<ttFont>
    <TTGlyph name=".notdef" xMin="0" yMin="0" xMax="500" yMax="700">
      <contour>
        <pt x="0" y="700" on="1"/>
        <pt x="500" y="700" on="1"/>
        <pt x="500" y="0" on="1"/>
        <pt x="0" y="0" on="1"/>
      </contour>
      <contour>
        <pt x="50" y="650" on="1"/>
        <pt x="50" y="50" on="1"/>
        <pt x="450" y="50" on="1"/>
        <pt x="450" y="650" on="1"/>
      </contour>
      <contour>
        <pt x="229" y="278" on="1"/>
        <pt x="229" y="307" on="0"/>
        <pt x="256" y="345" on="0"/>
        <pt x="283" y="367" on="1"/>
        <pt x="311" y="390" on="0"/>
        <pt x="339" y="431" on="0"/>
        <pt x="339" y="465" on="1"/>
        <pt x="339" y="496" on="0"/>
        <pt x="301" y="552" on="0"/>
        <pt x="250" y="552" on="1"/>
        <pt x="192" y="552" on="0"/>
        <pt x="152" y="485" on="0"/>
        <pt x="152" y="452" on="1"/>
        <pt x="152" y="424" on="1"/>
        <pt x="103" y="424" on="1"/>
        <pt x="99" y="444" on="0"/>
        <pt x="99" y="455" on="1"/>
        <pt x="99" y="478" on="0"/>
        <pt x="120" y="544" on="0"/>
        <pt x="187" y="602" on="0"/>
        <pt x="250" y="602" on="1"/>
        <pt x="313" y="602" on="0"/>
        <pt x="376" y="546" on="0"/>
        <pt x="393" y="486" on="0"/>
        <pt x="393" y="467" on="1"/>
        <pt x="393" y="422" on="0"/>
        <pt x="356" y="364" on="0"/>
        <pt x="326" y="338" on="1"/>
        <pt x="304" y="320" on="0"/>
        <pt x="282" y="290" on="0"/>
        <pt x="282" y="268" on="1"/>
        <pt x="282" y="215" on="1"/>
        <pt x="229" y="215" on="1"/>
      </contour>
      <contour>
        <pt x="225" y="169" on="1"/>
        <pt x="285" y="169" on="1"/>
        <pt x="285" y="99" on="1"/>
        <pt x="225" y="99" on="1"/>
      </contour>
    </TTGlyph>
    <TTGlyph name=".ttfautohint" xMin="0" yMin="0" xMax="0" yMax="0">
      <contour>
        <pt x="0" y="0" on="1"/>
      </contour>
    </TTGlyph>
    <TTGlyph name="A" xMin="22" yMin="0" xMax="571" yMax="688">
      <contour>
        <pt x="421" y="182" on="1"/>
        <pt x="168" y="182" on="1"/>
        <pt x="112" y="0" on="1"/>
        <pt x="22" y="0" on="1"/>
        <pt x="237" y="688" on="1"/>
        <pt x="356" y="688" on="1"/>
        <pt x="571" y="0" on="1"/>
        <pt x="478" y="0" on="1"/>
      </contour>
      <contour>
        <pt x="292" y="593" on="1"/>
        <pt x="190" y="260" on="1"/>
        <pt x="399" y="260" on="1"/>
        <pt x="298" y="593" on="1"/>
      </contour>
    </TTGlyph>
    <TTGlyph name="A.ss01" xMin="76" yMin="0" xMax="536" yMax="696">
      <contour>
        <pt x="446" y="236" on="1"/>
        <pt x="166" y="236" on="1"/>
        <pt x="166" y="0" on="1"/>
        <pt x="76" y="0" on="1"/>
        <pt x="76" y="387" on="1"/>
        <pt x="76" y="521" on="0"/>
        <pt x="105" y="645" on="0"/>
        <pt x="200" y="696" on="0"/>
        <pt x="306" y="696" on="1"/>
        <pt x="412" y="696" on="0"/>
        <pt x="507" y="645" on="0"/>
        <pt x="536" y="521" on="0"/>
        <pt x="536" y="387" on="1"/>
        <pt x="536" y="0" on="1"/>
        <pt x="446" y="0" on="1"/>
      </contour>
      <contour>
        <pt x="446" y="513" on="0"/>
        <pt x="430" y="588" on="0"/>
        <pt x="374" y="618" on="0"/>
        <pt x="306" y="618" on="1"/>
        <pt x="238" y="618" on="0"/>
        <pt x="182" y="588" on="0"/>
        <pt x="166" y="513" on="0"/>
        <pt x="166" y="422" on="1"/>
        <pt x="166" y="316" on="1"/>
        <pt x="446" y="316" on="1"/>
        <pt x="446" y="422" on="1"/>
      </contour>
    </TTGlyph>
    <TTGlyph name="AE" xMin="-7" yMin="0" xMax="774" yMax="688">
      <contour>
        <pt x="410" y="182" on="1"/>
        <pt x="157" y="182" on="1"/>
        <pt x="83" y="0" on="1"/>
        <pt x="-7" y="0" on="1"/>
        <pt x="277" y="688" on="1"/>
        <pt x="774" y="688" on="1"/>
        <pt x="774" y="610" on="1"/>
        <pt x="412" y="610" on="1"/>
        <pt x="461" y="386" on="1"/>
        <pt x="735" y="386" on="1"/>
        <pt x="735" y="308" on="1"/>
        <pt x="475" y="308" on="1"/>
        <pt x="526" y="78" on="1"/>
        <pt x="774" y="78" on="1"/>
        <pt x="774" y="0" on="1"/>
        <pt x="449" y="0" on="1"/>
      </contour>
      <contour>
        <pt x="322" y="594" on="1"/>
        <pt x="187" y="260" on="1"/>
        <pt x="396" y="260" on="1"/>
        <pt x="327" y="594" on="1"/>
      </contour>
    </TTGlyph>
    <TTGlyph name="AEacute" xMin="-7" yMin="0" xMax="774" yMax="888">
      <component glyphName=".ttfautohint" x="0" y="0" flags="0x0"/>
      <component glyphName="AE" x="0" y="0" flags="0x0"/>
      <component glyphName="acutecomb.case" x="551" y="0" flags="0x0"/>
    </TTGlyph>
    <TTGlyph name="Aacute" xMin="22" yMin="0" xMax="571" yMax="891">
      <component glyphName=".ttfautohint" x="22" y="0" flags="0x0"/>
      <component glyphName="A" x="0" y="0" flags="0x0"/>
      <component glyphName="acute" x="233" y="148" flags="0x4"/>
    </TTGlyph>
    <TTGlyph name="Aacute.ss01" xMin="76" yMin="0" xMax="536" yMax="891">
      <component glyphName=".ttfautohint" x="76" y="0" flags="0x0"/>
      <component glyphName="A.ss01" x="0" y="0" flags="0x0"/>
      <component glyphName="acute" x="252" y="148" flags="0x4"/>
    </TTGlyph>
    <TTGlyph name="Abreve" xMin="22" yMin="0" xMax="571" yMax="888">
      <component glyphName=".ttfautohint" x="22" y="0" flags="0x0"/>
      <component glyphName="A" x="0" y="0" flags="0x0"/>
      <component glyphName="uni0306.case" x="437" y="0" flags="0x0"/>
    </TTGlyph>
    <TTGlyph name="Abreve.ss01" xMin="76" yMin="0" xMax="536" yMax="888">
      <component glyphName=".ttfautohint" x="76" y="0" flags="0x0"/>
      <component glyphName="A.ss01" x="0" y="0" flags="0x0"/>
      <component glyphName="uni0306.case" x="447" y="0" flags="0x0"/>
    </TTGlyph>
    <TTGlyph name="Acircumflex" xMin="22" yMin="0" xMax="571" yMax="889">
      <component glyphName=".ttfautohint" x="22" y="0" flags="0x0"/>
      <component glyphName="A" x="0" y="0" flags="0x0"/>
      <component glyphName="circumflex" x="148" y="146" flags="0x4"/>
    </TTGlyph>
    <TTGlyph name="Acircumflex.ss01" xMin="76" yMin="0" xMax="536" yMax="889">
      <component glyphName=".ttfautohint" x="76" y="0" flags="0x0"/>
      <component glyphName="A.ss01" x="0" y="0" flags="0x0"/>
      <component glyphName="circumflex" x="160" y="146" flags="0x4"/>
    </TTGlyph>
    <TTGlyph name="Adieresis" xMin="22" yMin="0" xMax="571" yMax="858">
      <component glyphName=".ttfautohint" x="22" y="0" flags="0x0"/>
      <component glyphName="A" x="0" y="0" flags="0x0"/>
      <component glyphName="dieresis" x="146" y="128" flags="0x4"/>
    </TTGlyph>
    <TTGlyph name="Adieresis.ss01" xMin="76" yMin="0" xMax="536" yMax="856">
      <component glyphName=".ttfautohint" x="76" y="0" flags="0x0"/>
      <component glyphName="A.ss01" x="0" y="0" flags="0x0"/>
      <component glyphName="dieresis" x="159" y="126" flags="0x4"/>
    </TTGlyph>
    <TTGlyph name="Agrave" xMin="22" yMin="0" xMax="571" yMax="891">
      <component glyphName=".ttfautohint" x="22" y="0" flags="0x0"/>
      <component glyphName="A" x="0" y="0" flags="0x0"/>
      <component glyphName="grave" x="163" y="148" flags="0x4"/>
    </TTGlyph>
    <TTGlyph name="Agrave.ss01" xMin="76" yMin="0" xMax="536" yMax="891">
      <component glyphName=".ttfautohint" x="76" y="0" flags="0x0"/>
      <component glyphName="A.ss01" x="0" y="0" flags="0x0"/>
      <component glyphName="grave" x="169" y="148" flags="0x4"/>
    </TTGlyph>
    <TTGlyph name="Amacron" xMin="22" yMin="0" xMax="571" yMax="887">
      <component glyphName=".ttfautohint" x="22" y="0" flags="0x0"/>
      <component glyphName="A" x="0" y="0" flags="0x0"/>
      <component glyphName="uni0304.case" x="465" y="0" flags="0x0"/>
    </TTGlyph>
    <TTGlyph name="Amacron.ss01" xMin="76" yMin="0" xMax="536" yMax="887">
      <component glyphName=".ttfautohint" x="76" y="0" flags="0x0"/>
      <component glyphName="A.ss01" x="0" y="0" flags="0x0"/>
      <component glyphName="uni0304.case" x="475" y="0" flags="0x0"/>
    </TTGlyph>
    <TTGlyph name="Aogonek" xMin="21" yMin="-196" xMax="570" yMax="688">
      <contour>
        <pt x="491" y="-142" on="0"/>
        <pt x="537" y="-142" on="1"/>
        <pt x="553" y="-141" on="1"/>
        <pt x="553" y="-194" on="1"/>
        <pt x="521" y="-196" on="0"/>
        <pt x="513" y="-196" on="1"/>
        <pt x="419" y="-196" on="0"/>
        <pt x="419" y="-118" on="1"/>
        <pt x="419" y="-89" on="0"/>
        <pt x="451" y="-25" on="0"/>
        <pt x="477" y="2" on="1"/>
        <pt x="421" y="182" on="1"/>
        <pt x="168" y="182" on="1"/>
        <pt x="112" y="0" on="1"/>
        <pt x="21" y="0" on="1"/>
        <pt x="236" y="688" on="1"/>
        <pt x="355" y="688" on="1"/>
        <pt x="570" y="0" on="1"/>
        <pt x="548" y="0" on="1"/>
        <pt x="526" y="-19" on="0"/>
        <pt x="491" y="-77" on="0"/>
        <pt x="491" y="-101" on="1"/>
      </contour>
      <contour>
        <pt x="398" y="260" on="1"/>
        <pt x="297" y="593" on="1"/>
        <pt x="292" y="593" on="1"/>
        <pt x="190" y="260" on="1"/>
      </contour>
    </TTGlyph>
    <TTGlyph name="Aogonek.ss01" xMin="76" yMin="-196" xMax="536" yMax="696">
      <contour>
        <pt x="495" y="-20" on="0"/>
        <pt x="460" y="-77" on="0"/>
        <pt x="460" y="-101" on="1"/>
        <pt x="460" y="-141" on="0"/>
        <pt x="506" y="-141" on="1"/>
        <pt x="515" y="-141" on="0"/>
        <pt x="522" y="-140" on="1"/>
        <pt x="522" y="-194" on="1"/>
        <pt x="494" y="-196" on="0"/>
        <pt x="482" y="-196" on="1"/>
        <pt x="388" y="-196" on="0"/>
        <pt x="388" y="-118" on="1"/>
        <pt x="388" y="-89" on="0"/>
        <pt x="420" y="-25" on="0"/>
        <pt x="446" y="2" on="1"/>
        <pt x="446" y="236" on="1"/>
        <pt x="166" y="236" on="1"/>
        <pt x="166" y="0" on="1"/>
        <pt x="76" y="0" on="1"/>
        <pt x="76" y="387" on="1"/>
        <pt x="76" y="521" on="0"/>
        <pt x="105" y="645" on="0"/>
        <pt x="200" y="696" on="0"/>
        <pt x="306" y="696" on="1"/>
        <pt x="412" y="696" on="0"/>
        <pt x="507" y="645" on="0"/>
        <pt x="536" y="521" on="0"/>
        <pt x="536" y="387" on="1"/>
        <pt x="536" y="0" on="1"/>
        <pt x="516" y="0" on="1"/>
      </contour>
      <contour>
        <pt x="446" y="316" on="1"/>
        <pt x="446" y="422" on="1"/>
        <pt x="446" y="513" on="0"/>
        <pt x="430" y="588" on="0"/>
        <pt x="374" y="618" on="0"/>
        <pt x="306" y="618" on="1"/>
        <pt x="238" y="618" on="0"/>
        <pt x="182" y="588" on="0"/>
        <pt x="166" y="513" on="0"/>
        <pt x="166" y="422" on="1"/>
        <pt x="166" y="316" on="1"/>
      </contour>
    </TTGlyph>
    <TTGlyph name="Aring" xMin="22" yMin="0" xMax="571" yMax="878">
      <contour>
        <pt x="571" y="0" on="1"/>
        <pt x="478" y="0" on="1"/>
        <pt x="421" y="182" on="1"/>
        <pt x="168" y="182" on="1"/>
        <pt x="112" y="0" on="1"/>
        <pt x="22" y="0" on="1"/>
        <pt x="232" y="678" on="1"/>
        <pt x="207" y="683" on="0"/>
        <pt x="183" y="707" on="0"/>
        <pt x="177" y="742" on="0"/>
        <pt x="177" y="775" on="1"/>
        <pt x="177" y="817" on="0"/>
        <pt x="190" y="858" on="0"/>
        <pt x="240" y="878" on="0"/>
        <pt x="295" y="878" on="1"/>
        <pt x="351" y="878" on="0"/>
        <pt x="401" y="858" on="0"/>
        <pt x="415" y="817" on="0"/>
        <pt x="415" y="775" on="1"/>
        <pt x="415" y="742" on="0"/>
        <pt x="409" y="707" on="0"/>
        <pt x="385" y="684" on="0"/>
        <pt x="360" y="678" on="1"/>
      </contour>
      <contour>
        <pt x="265" y="832" on="0"/>
        <pt x="240" y="822" on="0"/>
        <pt x="233" y="800" on="0"/>
        <pt x="233" y="775" on="1"/>
        <pt x="233" y="749" on="0"/>
        <pt x="240" y="728" on="0"/>
        <pt x="265" y="718" on="0"/>
        <pt x="295" y="718" on="1"/>
        <pt x="326" y="718" on="0"/>
        <pt x="353" y="728" on="0"/>
        <pt x="359" y="749" on="0"/>
        <pt x="359" y="775" on="1"/>
        <pt x="359" y="801" on="0"/>
        <pt x="353" y="822" on="0"/>
        <pt x="326" y="832" on="0"/>
        <pt x="295" y="832" on="1"/>
      </contour>
      <contour>
        <pt x="399" y="260" on="1"/>
        <pt x="298" y="593" on="1"/>
        <pt x="292" y="593" on="1"/>
        <pt x="190" y="260" on="1"/>
      </contour>
    </TTGlyph>
    <TTGlyph name="Aring.ss01" xMin="76" yMin="0" xMax="536" yMax="944">
      <component glyphName=".ttfautohint" x="76" y="0" flags="0x0"/>
      <component glyphName="A.ss01" x="0" y="0" flags="0x0"/>
      <component glyphName="ring" x="174" y="132" flags="0x4"/>
    </TTGlyph>
    <TTGlyph name="Aringacute" xMin="22" yMin="0" xMax="571" yMax="1078">
      <component glyphName=".ttfautohint" x="22" y="0" flags="0x0"/>
      <component glyphName="Aring" x="0" y="0" flags="0x0"/>
      <component glyphName="acutecomb.case" x="437" y="190" flags="0x4"/>
    </TTGlyph>
    <TTGlyph name="Aringacute.ss01" xMin="76" yMin="0" xMax="536" yMax="1097">
      <component glyphName=".ttfautohint" x="76" y="0" flags="0x0"/>
      <component glyphName="A.ss01" x="0" y="0" flags="0x0"/>
      <component glyphName="uni030A.case" x="441" y="0" flags="0x0"/>
      <component glyphName="acutecomb.case" x="450" y="209" flags="0x4"/>
    </TTGlyph>
    <TTGlyph name="Atilde" xMin="22" yMin="0" xMax="571" yMax="876">
      <component glyphName=".ttfautohint" x="22" y="0" flags="0x0"/>
      <component glyphName="A" x="0" y="0" flags="0x0"/>
      <component glyphName="tilde" x="120" y="133" flags="0x4"/>
    </TTGlyph>
    <TTGlyph name="Atilde.ss01" xMin="76" yMin="0" xMax="536" yMax="876">
      <component glyphName=".ttfautohint" x="76" y="0" flags="0x0"/>
      <component glyphName="A.ss01" x="0" y="0" flags="0x0"/>
      <component glyphName="tilde" x="131" y="133" flags="0x4"/>
    </TTGlyph>
    <TTGlyph name="B" xMin="82" yMin="0" xMax="531" yMax="688">
      <contour>
        <pt x="82" y="688" on="1"/>
        <pt x="353" y="688" on="1"/>
        <pt x="444" y="688" on="0"/>
        <pt x="524" y="600" on="0"/>
        <pt x="524" y="515" on="1"/>
        <pt x="524" y="446" on="0"/>
        <pt x="472" y="366" on="0"/>
        <pt x="416" y="353" on="1"/>
        <pt x="416" y="349" on="1"/>
        <pt x="481" y="336" on="0"/>
        <pt x="531" y="253" on="0"/>
        <pt x="531" y="182" on="1"/>
        <pt x="531" y="96" on="0"/>
        <pt x="452" y="0" on="0"/>
        <pt x="349" y="0" on="1"/>
        <pt x="82" y="0" on="1"/>
      </contour>
      <contour>
        <pt x="381" y="387" on="0"/>
        <pt x="434" y="440" on="0"/>
        <pt x="434" y="498" on="1"/>
        <pt x="434" y="541" on="0"/>
        <pt x="415" y="588" on="0"/>
        <pt x="369" y="610" on="0"/>
        <pt x="325" y="610" on="1"/>
        <pt x="172" y="610" on="1"/>
        <pt x="172" y="387" on="1"/>
        <pt x="325" y="387" on="1"/>
      </contour>
      <contour>
        <pt x="393" y="78" on="0"/>
        <pt x="440" y="129" on="0"/>
        <pt x="440" y="193" on="1"/>
        <pt x="440" y="258" on="0"/>
        <pt x="391" y="309" on="0"/>
        <pt x="329" y="309" on="1"/>
        <pt x="172" y="309" on="1"/>
        <pt x="172" y="78" on="1"/>
        <pt x="329" y="78" on="1"/>
      </contour>
    </TTGlyph>
    <TTGlyph name="C" xMin="63" yMin="-8" xMax="445" yMax="696">
      <contour>
        <pt x="418" y="0" on="0"/>
        <pt x="339" y="-8" on="0"/>
        <pt x="305" y="-8" on="1"/>
        <pt x="197" y="-8" on="0"/>
        <pt x="97" y="46" on="0"/>
        <pt x="63" y="189" on="0"/>
        <pt x="63" y="344" on="1"/>
        <pt x="63" y="497" on="0"/>
        <pt x="98" y="641" on="0"/>
        <pt x="198" y="696" on="0"/>
        <pt x="305" y="696" on="1"/>
        <pt x="341" y="696" on="0"/>
        <pt x="418" y="688" on="0"/>
        <pt x="442" y="681" on="1"/>
        <pt x="442" y="608" on="1"/>
        <pt x="375" y="618" on="0"/>
        <pt x="326" y="618" on="1"/>
        <pt x="242" y="618" on="0"/>
        <pt x="174" y="584" on="0"/>
        <pt x="154" y="478" on="0"/>
        <pt x="154" y="344" on="1"/>
        <pt x="154" y="210" on="0"/>
        <pt x="174" y="104" on="0"/>
        <pt x="242" y="70" on="0"/>
        <pt x="326" y="70" on="1"/>
        <pt x="390" y="70" on="0"/>
        <pt x="445" y="80" on="1"/>
        <pt x="445" y="5" on="1"/>
      </contour>
    </TTGlyph>
    <TTGlyph name="Cacute" xMin="63" yMin="-8" xMax="445" yMax="888">
      <component glyphName=".ttfautohint" x="63" y="0" flags="0x0"/>
      <component glyphName="C" x="0" y="0" flags="0x0"/>
      <component glyphName="acutecomb.case" x="387" y="0" flags="0x0"/>
    </TTGlyph>
    <TTGlyph name="Cacute.loclPLK" xMin="63" yMin="-8" xMax="445" yMax="888">
      <component glyphName=".ttfautohint" x="63" y="0" flags="0x0"/>
      <component glyphName="C" x="0" y="0" flags="0x0"/>
      <component glyphName="acute.case.loclPLK" x="193" y="0" flags="0x0"/>
    </TTGlyph>
    <TTGlyph name="Ccaron" xMin="63" yMin="-8" xMax="445" yMax="888">
      <component glyphName=".ttfautohint" x="63" y="0" flags="0x0"/>
      <component glyphName="C" x="0" y="0" flags="0x0"/>
      <component glyphName="uni030C.case" x="392" y="0" flags="0x0"/>
    </TTGlyph>
    <TTGlyph name="Ccedilla" xMin="63" yMin="-190" xMax="445" yMax="696">
      <contour>
        <pt x="390" y="70" on="0"/>
        <pt x="445" y="80" on="1"/>
        <pt x="445" y="5" on="1"/>
        <pt x="418" y="0" on="0"/>
        <pt x="339" y="-8" on="0"/>
        <pt x="305" y="-8" on="1"/>
        <pt x="283" y="-8" on="0"/>
        <pt x="273" y="-7" on="1"/>
        <pt x="235" y="-190" on="1"/>
        <pt x="153" y="-190" on="1"/>
        <pt x="153" y="-185" on="1"/>
        <pt x="214" y="-2" on="1"/>
        <pt x="149" y="8" on="0"/>
        <pt x="86" y="77" on="0"/>
        <pt x="63" y="214" on="0"/>
        <pt x="63" y="344" on="1"/>
        <pt x="63" y="497" on="0"/>
        <pt x="98" y="641" on="0"/>
        <pt x="198" y="696" on="0"/>
        <pt x="305" y="696" on="1"/>
        <pt x="341" y="696" on="0"/>
        <pt x="418" y="688" on="0"/>
        <pt x="442" y="681" on="1"/>
        <pt x="442" y="608" on="1"/>
        <pt x="375" y="618" on="0"/>
        <pt x="326" y="618" on="1"/>
        <pt x="242" y="618" on="0"/>
        <pt x="174" y="584" on="0"/>
        <pt x="154" y="478" on="0"/>
        <pt x="154" y="344" on="1"/>
        <pt x="154" y="210" on="0"/>
        <pt x="174" y="104" on="0"/>
        <pt x="242" y="70" on="0"/>
        <pt x="326" y="70" on="1"/>
      </contour>
    </TTGlyph>
    <TTGlyph name="Ccircumflex" xMin="63" yMin="-8" xMax="445" yMax="888">
      <component glyphName=".ttfautohint" x="63" y="0" flags="0x0"/>
      <component glyphName="C" x="0" y="0" flags="0x0"/>
      <component glyphName="uni0302.case" x="392" y="0" flags="0x0"/>
    </TTGlyph>
    <TTGlyph name="Cdotaccent" xMin="63" yMin="-8" xMax="445" yMax="875">
      <component glyphName=".ttfautohint" x="63" y="0" flags="0x0"/>
      <component glyphName="C" x="0" y="0" flags="0x0"/>
      <component glyphName="uni0307.case" x="302" y="0" flags="0x0"/>
    </TTGlyph>
    <TTGlyph name="D" xMin="82" yMin="0" xMax="532" yMax="688">
      <contour>
        <pt x="82" y="688" on="1"/>
        <pt x="278" y="688" on="1"/>
        <pt x="401" y="688" on="0"/>
        <pt x="504" y="636" on="0"/>
        <pt x="532" y="503" on="0"/>
        <pt x="532" y="344" on="1"/>
        <pt x="532" y="185" on="0"/>
        <pt x="504" y="52" on="0"/>
        <pt x="401" y="0" on="0"/>
        <pt x="278" y="0" on="1"/>
        <pt x="82" y="0" on="1"/>
      </contour>
      <contour>
        <pt x="269" y="78" on="1"/>
        <pt x="359" y="78" on="0"/>
        <pt x="422" y="104" on="0"/>
        <pt x="442" y="205" on="0"/>
        <pt x="442" y="344" on="1"/>
        <pt x="442" y="482" on="0"/>
        <pt x="422" y="584" on="0"/>
        <pt x="358" y="610" on="0"/>
        <pt x="269" y="610" on="1"/>
        <pt x="172" y="610" on="1"/>
        <pt x="172" y="78" on="1"/>
      </contour>
    </TTGlyph>
    <TTGlyph name="Dcaron" xMin="82" yMin="0" xMax="532" yMax="888">
      <component glyphName=".ttfautohint" x="82" y="0" flags="0x0"/>
      <component glyphName="D" x="0" y="0" flags="0x0"/>
      <component glyphName="uni030C.case" x="445" y="0" flags="0x0"/>
    </TTGlyph>
    <TTGlyph name="Dcroat" xMin="21" yMin="0" xMax="532" yMax="688">
      <component glyphName=".ttfautohint" x="21" y="0" flags="0x0"/>
      <component glyphName="Eth" x="0" y="0" flags="0x0"/>
    </TTGlyph>
    <TTGlyph name="E" xMin="82" yMin="0" xMax="472" yMax="688">
      <contour>
        <pt x="82" y="688" on="1"/>
        <pt x="472" y="688" on="1"/>
        <pt x="472" y="610" on="1"/>
        <pt x="173" y="610" on="1"/>
        <pt x="173" y="387" on="1"/>
        <pt x="432" y="387" on="1"/>
        <pt x="432" y="309" on="1"/>
        <pt x="173" y="309" on="1"/>
        <pt x="173" y="78" on="1"/>
        <pt x="472" y="78" on="1"/>
        <pt x="472" y="0" on="1"/>
        <pt x="82" y="0" on="1"/>
      </contour>
    </TTGlyph>
    <TTGlyph name="Eacute" xMin="82" yMin="0" xMax="472" yMax="891">
      <component glyphName=".ttfautohint" x="82" y="0" flags="0x0"/>
      <component glyphName="E" x="0" y="0" flags="0x0"/>
      <component glyphName="acute" x="231" y="148" flags="0x4"/>
    </TTGlyph>
    <TTGlyph name="Ebreve" xMin="82" yMin="0" xMax="472" yMax="888">
      <component glyphName=".ttfautohint" x="82" y="0" flags="0x0"/>
      <component glyphName="E" x="0" y="0" flags="0x0"/>
      <component glyphName="uni0306.case" x="417" y="0" flags="0x0"/>
    </TTGlyph>
    <TTGlyph name="Ecaron" xMin="82" yMin="0" xMax="472" yMax="888">
      <component glyphName=".ttfautohint" x="82" y="0" flags="0x0"/>
      <component glyphName="E" x="0" y="0" flags="0x0"/>
      <component glyphName="uni030C.case" x="423" y="0" flags="0x0"/>
    </TTGlyph>
    <TTGlyph name="Ecircumflex" xMin="82" yMin="0" xMax="472" yMax="889">
      <component glyphName=".ttfautohint" x="82" y="0" flags="0x0"/>
      <component glyphName="E" x="0" y="0" flags="0x0"/>
      <component glyphName="circumflex" x="130" y="146" flags="0x4"/>
    </TTGlyph>
    <TTGlyph name="Edieresis" xMin="82" yMin="0" xMax="472" yMax="857">
      <component glyphName=".ttfautohint" x="82" y="0" flags="0x0"/>
      <component glyphName="E" x="0" y="0" flags="0x0"/>
      <component glyphName="dieresis" x="130" y="127" flags="0x4"/>
    </TTGlyph>
    <TTGlyph name="Edotaccent" xMin="82" yMin="0" xMax="472" yMax="875">
      <component glyphName=".ttfautohint" x="82" y="0" flags="0x0"/>
      <component glyphName="E" x="0" y="0" flags="0x0"/>
      <component glyphName="uni0307.case" x="333" y="0" flags="0x0"/>
    </TTGlyph>
    <TTGlyph name="Egrave" xMin="82" yMin="0" xMax="472" yMax="891">
      <component glyphName=".ttfautohint" x="82" y="0" flags="0x0"/>
      <component glyphName="E" x="0" y="0" flags="0x0"/>
      <component glyphName="grave" x="145" y="148" flags="0x4"/>
    </TTGlyph>
    <TTGlyph name="Emacron" xMin="82" yMin="0" xMax="472" yMax="887">
      <component glyphName=".ttfautohint" x="82" y="0" flags="0x0"/>
      <component glyphName="E" x="0" y="0" flags="0x0"/>
      <component glyphName="uni0304.case" x="444" y="0" flags="0x0"/>
    </TTGlyph>
    <TTGlyph name="Eng" xMin="82" yMin="-197" xMax="549" yMax="688">
      <contour>
        <pt x="549" y="688" on="1"/>
        <pt x="549" y="-52" on="1"/>
        <pt x="549" y="-119" on="0"/>
        <pt x="519" y="-179" on="0"/>
        <pt x="452" y="-197" on="0"/>
        <pt x="381" y="-197" on="1"/>
        <pt x="381" y="-130" on="1"/>
        <pt x="418" y="-130" on="0"/>
        <pt x="452" y="-120" on="0"/>
        <pt x="462" y="-98" on="0"/>
        <pt x="462" y="-75" on="1"/>
        <pt x="462" y="2" on="1"/>
        <pt x="173" y="512" on="1"/>
        <pt x="169" y="512" on="1"/>
        <pt x="169" y="0" on="1"/>
        <pt x="82" y="0" on="1"/>
        <pt x="82" y="688" on="1"/>
        <pt x="175" y="688" on="1"/>
        <pt x="458" y="190" on="1"/>
        <pt x="462" y="190" on="1"/>
        <pt x="462" y="688" on="1"/>
      </contour>
    </TTGlyph>
    <TTGlyph name="Eogonek" xMin="82" yMin="-196" xMax="471" yMax="688">
      <contour>
        <pt x="377" y="-196" on="0"/>
        <pt x="332" y="-154" on="0"/>
        <pt x="332" y="-121" on="1"/>
        <pt x="332" y="-90" on="0"/>
        <pt x="368" y="-28" on="0"/>
        <pt x="399" y="0" on="1"/>
        <pt x="82" y="0" on="1"/>
        <pt x="82" y="688" on="1"/>
        <pt x="471" y="688" on="1"/>
        <pt x="471" y="610" on="1"/>
        <pt x="172" y="610" on="1"/>
        <pt x="172" y="387" on="1"/>
        <pt x="432" y="387" on="1"/>
        <pt x="432" y="309" on="1"/>
        <pt x="172" y="309" on="1"/>
        <pt x="172" y="78" on="1"/>
        <pt x="471" y="78" on="1"/>
        <pt x="471" y="0" on="1"/>
        <pt x="447" y="-17" on="0"/>
        <pt x="405" y="-76" on="0"/>
        <pt x="405" y="-102" on="1"/>
        <pt x="405" y="-120" on="0"/>
        <pt x="426" y="-142" on="0"/>
        <pt x="449" y="-142" on="1"/>
        <pt x="467" y="-141" on="1"/>
        <pt x="467" y="-194" on="1"/>
        <pt x="449" y="-196" on="0"/>
        <pt x="427" y="-196" on="1"/>
      </contour>
    </TTGlyph>
    <TTGlyph name="Eth" xMin="21" yMin="0" xMax="532" yMax="688">
      <contour>
        <pt x="82" y="311" on="1"/>
        <pt x="21" y="311" on="1"/>
        <pt x="21" y="385" on="1"/>
        <pt x="82" y="385" on="1"/>
        <pt x="82" y="688" on="1"/>
        <pt x="278" y="688" on="1"/>
        <pt x="401" y="688" on="0"/>
        <pt x="504" y="636" on="0"/>
        <pt x="532" y="503" on="0"/>
        <pt x="532" y="344" on="1"/>
        <pt x="532" y="185" on="0"/>
        <pt x="504" y="52" on="0"/>
        <pt x="401" y="0" on="0"/>
        <pt x="278" y="0" on="1"/>
        <pt x="82" y="0" on="1"/>
      </contour>
      <contour>
        <pt x="359" y="78" on="0"/>
        <pt x="422" y="104" on="0"/>
        <pt x="442" y="205" on="0"/>
        <pt x="442" y="344" on="1"/>
        <pt x="442" y="482" on="0"/>
        <pt x="422" y="584" on="0"/>
        <pt x="358" y="610" on="0"/>
        <pt x="269" y="610" on="1"/>
        <pt x="172" y="610" on="1"/>
        <pt x="172" y="385" on="1"/>
        <pt x="273" y="385" on="1"/>
        <pt x="273" y="311" on="1"/>
        <pt x="172" y="311" on="1"/>
        <pt x="172" y="78" on="1"/>
        <pt x="269" y="78" on="1"/>
      </contour>
    </TTGlyph>
    <TTGlyph name="Euro" xMin="35" yMin="-8" xMax="486" yMax="696">
      <contour>
        <pt x="252" y="-8" on="0"/>
        <pt x="156" y="31" on="0"/>
        <pt x="113" y="135" on="0"/>
        <pt x="108" y="241" on="1"/>
        <pt x="35" y="241" on="1"/>
        <pt x="35" y="297" on="1"/>
        <pt x="106" y="297" on="1"/>
        <pt x="106" y="394" on="1"/>
        <pt x="35" y="394" on="1"/>
        <pt x="35" y="449" on="1"/>
        <pt x="109" y="449" on="1"/>
        <pt x="114" y="551" on="0"/>
        <pt x="157" y="655" on="0"/>
        <pt x="254" y="696" on="0"/>
        <pt x="346" y="696" on="1"/>
        <pt x="387" y="696" on="0"/>
        <pt x="464" y="686" on="0"/>
        <pt x="482" y="681" on="1"/>
        <pt x="482" y="609" on="1"/>
        <pt x="463" y="612" on="0"/>
        <pt x="395" y="618" on="0"/>
        <pt x="367" y="618" on="1"/>
        <pt x="296" y="618" on="0"/>
        <pt x="231" y="596" on="0"/>
        <pt x="202" y="527" on="0"/>
        <pt x="198" y="449" on="1"/>
        <pt x="439" y="449" on="1"/>
        <pt x="439" y="394" on="1"/>
        <pt x="197" y="394" on="1"/>
        <pt x="197" y="297" on="1"/>
        <pt x="439" y="297" on="1"/>
        <pt x="439" y="241" on="1"/>
        <pt x="198" y="241" on="1"/>
        <pt x="202" y="162" on="0"/>
        <pt x="230" y="92" on="0"/>
        <pt x="296" y="70" on="0"/>
        <pt x="367" y="70" on="1"/>
        <pt x="400" y="70" on="0"/>
        <pt x="467" y="76" on="0"/>
        <pt x="486" y="79" on="1"/>
        <pt x="486" y="5" on="1"/>
        <pt x="463" y="0" on="0"/>
        <pt x="385" y="-8" on="0"/>
        <pt x="346" y="-8" on="1"/>
      </contour>
    </TTGlyph>
    <TTGlyph name="F" xMin="82" yMin="0" xMax="454" yMax="688">
      <contour>
        <pt x="82" y="688" on="1"/>
        <pt x="454" y="688" on="1"/>
        <pt x="454" y="610" on="1"/>
        <pt x="173" y="610" on="1"/>
        <pt x="173" y="371" on="1"/>
        <pt x="423" y="371" on="1"/>
        <pt x="423" y="293" on="1"/>
        <pt x="173" y="293" on="1"/>
        <pt x="173" y="0" on="1"/>
        <pt x="82" y="0" on="1"/>
      </contour>
    </TTGlyph>
    <TTGlyph name="G" xMin="63" yMin="-8" xMax="512" yMax="696">
      <contour>
        <pt x="301" y="297" on="1"/>
        <pt x="301" y="374" on="1"/>
        <pt x="512" y="374" on="1"/>
        <pt x="512" y="11" on="1"/>
        <pt x="470" y="3" on="0"/>
        <pt x="361" y="-8" on="0"/>
        <pt x="318" y="-8" on="1"/>
        <pt x="208" y="-8" on="0"/>
        <pt x="103" y="45" on="0"/>
        <pt x="63" y="191" on="0"/>
        <pt x="63" y="344" on="1"/>
        <pt x="63" y="495" on="0"/>
        <pt x="104" y="641" on="0"/>
        <pt x="210" y="696" on="0"/>
        <pt x="320" y="696" on="1"/>
        <pt x="366" y="696" on="0"/>
        <pt x="474" y="684" on="0"/>
        <pt x="509" y="676" on="1"/>
        <pt x="509" y="603" on="1"/>
        <pt x="410" y="618" on="0"/>
        <pt x="358" y="618" on="1"/>
        <pt x="260" y="618" on="0"/>
        <pt x="184" y="591" on="0"/>
        <pt x="154" y="481" on="0"/>
        <pt x="154" y="344" on="1"/>
        <pt x="154" y="218" on="0"/>
        <pt x="176" y="108" on="0"/>
        <pt x="243" y="68" on="0"/>
        <pt x="319" y="68" on="1"/>
        <pt x="369" y="68" on="0"/>
        <pt x="425" y="76" on="1"/>
        <pt x="425" y="297" on="1"/>
      </contour>
    </TTGlyph>
    <TTGlyph name="G.ss01" xMin="63" yMin="-8" xMax="538" yMax="696">
      <contour>
        <pt x="206" y="-8" on="0"/>
        <pt x="101" y="46" on="0"/>
        <pt x="63" y="191" on="0"/>
        <pt x="63" y="344" on="1"/>
        <pt x="63" y="495" on="0"/>
        <pt x="105" y="641" on="0"/>
        <pt x="214" y="696" on="0"/>
        <pt x="327" y="696" on="1"/>
        <pt x="372" y="696" on="0"/>
        <pt x="478" y="685" on="0"/>
        <pt x="517" y="676" on="1"/>
        <pt x="517" y="603" on="1"/>
        <pt x="476" y="610" on="0"/>
        <pt x="390" y="618" on="0"/>
        <pt x="363" y="618" on="1"/>
        <pt x="262" y="618" on="0"/>
        <pt x="183" y="590" on="0"/>
        <pt x="153" y="481" on="0"/>
        <pt x="153" y="344" on="1"/>
        <pt x="153" y="215" on="0"/>
        <pt x="175" y="105" on="0"/>
        <pt x="239" y="70" on="0"/>
        <pt x="314" y="70" on="1"/>
        <pt x="382" y="70" on="0"/>
        <pt x="434" y="95" on="0"/>
        <pt x="449" y="174" on="0"/>
        <pt x="449" y="277" on="1"/>
        <pt x="449" y="305" on="1"/>
        <pt x="322" y="305" on="1"/>
        <pt x="322" y="382" on="1"/>
        <pt x="538" y="382" on="1"/>
        <pt x="538" y="291" on="1"/>
        <pt x="538" y="155" on="0"/>
        <pt x="515" y="41" on="0"/>
        <pt x="425" y="-8" on="0"/>
        <pt x="318" y="-8" on="1"/>
      </contour>
    </TTGlyph>
    <TTGlyph name="G_tilde.loclGUA" xMin="63" yMin="-8" xMax="512" yMax="888">
      <component glyphName=".ttfautohint" x="63" y="0" flags="0x0"/>
      <component glyphName="G" x="0" y="0" flags="0x0"/>
      <component glyphName="tildecomb.case" x="468" y="0" flags="0x0"/>
    </TTGlyph>
    <TTGlyph name="Gbreve" xMin="63" yMin="-8" xMax="512" yMax="888">
      <component glyphName=".ttfautohint" x="63" y="0" flags="0x0"/>
      <component glyphName="G" x="0" y="0" flags="0x0"/>
      <component glyphName="uni0306.case" x="432" y="0" flags="0x0"/>
    </TTGlyph>
    <TTGlyph name="Gbreve.ss01" xMin="63" yMin="-8" xMax="538" yMax="888">
      <component glyphName=".ttfautohint" x="63" y="0" flags="0x0"/>
      <component glyphName="G.ss01" x="0" y="0" flags="0x0"/>
      <component glyphName="uni0306.case" x="440" y="0" flags="0x0"/>
    </TTGlyph>
    <TTGlyph name="Gcaron" xMin="63" yMin="-8" xMax="512" yMax="888">
      <component glyphName=".ttfautohint" x="63" y="0" flags="0x0"/>
      <component glyphName="G" x="0" y="0" flags="0x0"/>
      <component glyphName="uni030C.case" x="439" y="0" flags="0x0"/>
    </TTGlyph>
    <TTGlyph name="Gcaron.ss01" xMin="63" yMin="-8" xMax="538" yMax="888">
      <component glyphName=".ttfautohint" x="63" y="0" flags="0x0"/>
      <component glyphName="G.ss01" x="0" y="0" flags="0x0"/>
      <component glyphName="uni030C.case" x="446" y="0" flags="0x0"/>
    </TTGlyph>
    <TTGlyph name="Gcircumflex" xMin="63" yMin="-8" xMax="512" yMax="888">
      <component glyphName=".ttfautohint" x="63" y="0" flags="0x0"/>
      <component glyphName="G" x="0" y="0" flags="0x0"/>
      <component glyphName="uni0302.case" x="439" y="0" flags="0x0"/>
    </TTGlyph>
    <TTGlyph name="Gcircumflex.ss01" xMin="63" yMin="-8" xMax="538" yMax="888">
      <component glyphName=".ttfautohint" x="63" y="0" flags="0x0"/>
      <component glyphName="G.ss01" x="0" y="0" flags="0x0"/>
      <component glyphName="uni0302.case" x="446" y="0" flags="0x0"/>
    </TTGlyph>
    <TTGlyph name="Gcommaaccent" xMin="63" yMin="-264" xMax="512" yMax="696">
      <component glyphName=".ttfautohint" x="63" y="0" flags="0x0"/>
      <component glyphName="G" x="0" y="0" flags="0x0"/>
      <component glyphName="uni0326" x="403" y="0" flags="0x0"/>
    </TTGlyph>
    <TTGlyph name="Gcommaaccent.ss01" xMin="63" yMin="-264" xMax="538" yMax="696">
      <component glyphName=".ttfautohint" x="63" y="0" flags="0x0"/>
      <component glyphName="G.ss01" x="0" y="0" flags="0x0"/>
      <component glyphName="uni0326" x="411" y="0" flags="0x0"/>
    </TTGlyph>
    <TTGlyph name="Gdotaccent" xMin="63" yMin="-8" xMax="512" yMax="875">
      <component glyphName=".ttfautohint" x="63" y="0" flags="0x0"/>
      <component glyphName="G" x="0" y="0" flags="0x0"/>
      <component glyphName="uni0307.case" x="349" y="0" flags="0x0"/>
    </TTGlyph>
    <TTGlyph name="Gdotaccent.ss01" xMin="63" yMin="-8" xMax="538" yMax="875">
      <component glyphName=".ttfautohint" x="63" y="0" flags="0x0"/>
      <component glyphName="G.ss01" x="0" y="0" flags="0x0"/>
      <component glyphName="uni0307.case" x="357" y="0" flags="0x0"/>
    </TTGlyph>
    <TTGlyph name="Gtilde.loclGUA.ss01" xMin="63" yMin="-8" xMax="538" yMax="888">
      <component glyphName=".ttfautohint" x="63" y="0" flags="0x0"/>
      <component glyphName="G.ss01" x="0" y="0" flags="0x0"/>
      <component glyphName="tildecomb.case" x="476" y="0" flags="0x0"/>
    </TTGlyph>
    <TTGlyph name="H" xMin="82" yMin="0" xMax="548" yMax="688">
      <contour>
        <pt x="458" y="306" on="1"/>
        <pt x="172" y="306" on="1"/>
        <pt x="172" y="0" on="1"/>
        <pt x="82" y="0" on="1"/>
        <pt x="82" y="688" on="1"/>
        <pt x="172" y="688" on="1"/>
        <pt x="172" y="387" on="1"/>
        <pt x="458" y="387" on="1"/>
        <pt x="458" y="688" on="1"/>
        <pt x="548" y="688" on="1"/>
        <pt x="548" y="0" on="1"/>
        <pt x="458" y="0" on="1"/>
      </contour>
    </TTGlyph>
    <TTGlyph name="Hbar" xMin="82" yMin="0" xMax="548" yMax="688">
      <contour>
        <pt x="548" y="688" on="1"/>
        <pt x="548" y="0" on="1"/>
        <pt x="458" y="0" on="1"/>
        <pt x="458" y="275" on="1"/>
        <pt x="172" y="275" on="1"/>
        <pt x="172" y="0" on="1"/>
        <pt x="82" y="0" on="1"/>
        <pt x="82" y="688" on="1"/>
        <pt x="172" y="688" on="1"/>
        <pt x="172" y="555" on="1"/>
        <pt x="458" y="555" on="1"/>
        <pt x="458" y="688" on="1"/>
      </contour>
      <contour>
        <pt x="458" y="356" on="1"/>
        <pt x="458" y="481" on="1"/>
        <pt x="172" y="481" on="1"/>
        <pt x="172" y="356" on="1"/>
      </contour>
    </TTGlyph>
    <TTGlyph name="Hcircumflex" xMin="82" yMin="0" xMax="548" yMax="888">
      <component glyphName=".ttfautohint" x="82" y="0" flags="0x0"/>
      <component glyphName="H" x="0" y="0" flags="0x0"/>
      <component glyphName="uni0302.case" x="462" y="0" flags="0x0"/>
    </TTGlyph>
    <TTGlyph name="I" xMin="84" yMin="0" xMax="174" yMax="688">
      <contour>
        <pt x="84" y="688" on="1"/>
        <pt x="174" y="688" on="1"/>
        <pt x="174" y="0" on="1"/>
        <pt x="84" y="0" on="1"/>
      </contour>
    </TTGlyph>
    <TTGlyph name="IJ" xMin="84" yMin="0" xMax="491" yMax="688">
      <component glyphName=".ttfautohint" x="84" y="0" flags="0x0"/>
      <component glyphName="I" x="0" y="0" flags="0x0"/>
      <component glyphName="J" x="257" y="0" flags="0x0"/>
    </TTGlyph>
    <TTGlyph name="Iacute" xMin="83" yMin="0" xMax="250" yMax="891">
      <component glyphName=".ttfautohint" x="83" y="0" flags="0x0"/>
      <component glyphName="I" x="0" y="0" flags="0x0"/>
      <component glyphName="acute" x="70" y="148" flags="0x4"/>
    </TTGlyph>
    <TTGlyph name="Iacute_J.loclNLD" xMin="84" yMin="0" xMax="574" yMax="888">
      <component glyphName=".ttfautohint" x="84" y="0" flags="0x0"/>
      <component glyphName="I" x="0" y="0" flags="0x0"/>
      <component glyphName="acutecomb.case" x="270" y="0" flags="0x0"/>
      <component glyphName="J" x="257" y="0" flags="0x0"/>
      <component glyphName="acutecomb.case" x="588" y="0" flags="0x0"/>
    </TTGlyph>
    <TTGlyph name="Ibreve" xMin="0" yMin="0" xMax="256" yMax="888">
      <component glyphName=".ttfautohint" x="0" y="0" flags="0x0"/>
      <component glyphName="I" x="0" y="0" flags="0x0"/>
      <component glyphName="uni0306.case" x="269" y="0" flags="0x0"/>
    </TTGlyph>
    <TTGlyph name="Icircumflex" xMin="-6" yMin="0" xMax="262" yMax="889">
      <component glyphName=".ttfautohint" x="0" y="0" flags="0x0"/>
      <component glyphName="I" x="0" y="0" flags="0x0"/>
      <component glyphName="circumflex" x="-19" y="146" flags="0x4"/>
    </TTGlyph>
    <TTGlyph name="Idieresis" xMin="-2" yMin="0" xMax="260" yMax="857">
      <component glyphName=".ttfautohint" x="0" y="0" flags="0x0"/>
      <component glyphName="I" x="0" y="0" flags="0x0"/>
      <component glyphName="dieresis" x="-21" y="127" flags="0x4"/>
    </TTGlyph>
    <TTGlyph name="Idotaccent" xMin="84" yMin="0" xMax="174" yMax="875">
      <component glyphName=".ttfautohint" x="84" y="0" flags="0x0"/>
      <component glyphName="I" x="0" y="0" flags="0x0"/>
      <component glyphName="uni0307.case" x="186" y="0" flags="0x0"/>
    </TTGlyph>
    <TTGlyph name="Igrave" xMin="10" yMin="0" xMax="177" yMax="891">
      <component glyphName=".ttfautohint" x="10" y="0" flags="0x0"/>
      <component glyphName="I" x="0" y="0" flags="0x0"/>
      <component glyphName="grave" x="-3" y="148" flags="0x4"/>
    </TTGlyph>
    <TTGlyph name="Imacron" xMin="18" yMin="0" xMax="240" yMax="887">
      <component glyphName=".ttfautohint" x="18" y="0" flags="0x0"/>
      <component glyphName="I" x="0" y="0" flags="0x0"/>
      <component glyphName="uni0304.case" x="297" y="0" flags="0x0"/>
    </TTGlyph>
    <TTGlyph name="Iogonek" xMin="40" yMin="-196" xMax="175" yMax="688">
      <contour>
        <pt x="40" y="-196" on="0"/>
        <pt x="40" y="-118" on="1"/>
        <pt x="40" y="-90" on="0"/>
        <pt x="74" y="-26" on="0"/>
        <pt x="101" y="0" on="1"/>
        <pt x="84" y="0" on="1"/>
        <pt x="84" y="688" on="1"/>
        <pt x="174" y="688" on="1"/>
        <pt x="174" y="0" on="1"/>
        <pt x="152" y="-17" on="0"/>
        <pt x="113" y="-77" on="0"/>
        <pt x="113" y="-101" on="1"/>
        <pt x="113" y="-142" on="0"/>
        <pt x="158" y="-142" on="1"/>
        <pt x="175" y="-141" on="1"/>
        <pt x="175" y="-194" on="1"/>
        <pt x="157" y="-196" on="0"/>
        <pt x="135" y="-196" on="1"/>
      </contour>
    </TTGlyph>
    <TTGlyph name="Itilde" xMin="-35" yMin="0" xMax="291" yMax="888">
      <component glyphName=".ttfautohint" x="0" y="0" flags="0x0"/>
      <component glyphName="I" x="0" y="0" flags="0x0"/>
      <component glyphName="tildecomb.case" x="305" y="0" flags="0x0"/>
    </TTGlyph>
    <TTGlyph name="J" xMin="24" yMin="0" xMax="234" yMax="688">
      <contour>
        <pt x="88" y="76" on="0"/>
        <pt x="133" y="94" on="0"/>
        <pt x="144" y="156" on="0"/>
        <pt x="144" y="246" on="1"/>
        <pt x="144" y="688" on="1"/>
        <pt x="234" y="688" on="1"/>
        <pt x="234" y="275" on="1"/>
        <pt x="234" y="132" on="0"/>
        <pt x="212" y="30" on="0"/>
        <pt x="134" y="1" on="0"/>
        <pt x="24" y="0" on="1"/>
        <pt x="24" y="74" on="1"/>
      </contour>
    </TTGlyph>
    <TTGlyph name="Jcircumflex" xMin="24" yMin="0" xMax="323" yMax="888">
      <component glyphName=".ttfautohint" x="24" y="0" flags="0x0"/>
      <component glyphName="J" x="0" y="0" flags="0x0"/>
      <component glyphName="uni0302.case" x="336" y="0" flags="0x0"/>
    </TTGlyph>
    <TTGlyph name="K" xMin="82" yMin="0" xMax="560" yMax="688">
      <contour>
        <pt x="268" y="310" on="1"/>
        <pt x="173" y="310" on="1"/>
        <pt x="173" y="0" on="1"/>
        <pt x="82" y="0" on="1"/>
        <pt x="82" y="688" on="1"/>
        <pt x="173" y="688" on="1"/>
        <pt x="173" y="388" on="1"/>
        <pt x="268" y="388" on="1"/>
        <pt x="460" y="688" on="1"/>
        <pt x="557" y="688" on="1"/>
        <pt x="342" y="355" on="1"/>
        <pt x="560" y="0" on="1"/>
        <pt x="459" y="0" on="1"/>
      </contour>
    </TTGlyph>
    <TTGlyph name="Kcommaaccent" xMin="82" yMin="-264" xMax="560" yMax="688">
      <component glyphName=".ttfautohint" x="82" y="0" flags="0x0"/>
      <component glyphName="K" x="0" y="0" flags="0x0"/>
      <component glyphName="uni0326" x="402" y="0" flags="0x0"/>
    </TTGlyph>
    <TTGlyph name="L" xMin="82" yMin="0" xMax="438" yMax="688">
      <contour>
        <pt x="82" y="688" on="1"/>
        <pt x="173" y="688" on="1"/>
        <pt x="173" y="81" on="1"/>
        <pt x="438" y="81" on="1"/>
        <pt x="438" y="0" on="1"/>
        <pt x="82" y="0" on="1"/>
      </contour>
    </TTGlyph>
    <TTGlyph name="Lacute" xMin="82" yMin="0" xMax="438" yMax="888">
      <component glyphName=".ttfautohint" x="82" y="0" flags="0x0"/>
      <component glyphName="L" x="0" y="0" flags="0x0"/>
      <component glyphName="acutecomb.case" x="281" y="0" flags="0x0"/>
    </TTGlyph>
    <TTGlyph name="Lcaron" xMin="82" yMin="0" xMax="438" yMax="707">
      <component glyphName=".ttfautohint" x="82" y="0" flags="0x0"/>
      <component glyphName="L" x="0" y="0" flags="0x0"/>
      <component glyphName="caron.loclCSY" x="268" y="19" flags="0x4"/>
    </TTGlyph>
    <TTGlyph name="Lcommaaccent" xMin="82" yMin="-264" xMax="438" yMax="688">
      <component glyphName=".ttfautohint" x="82" y="0" flags="0x0"/>
      <component glyphName="L" x="0" y="0" flags="0x0"/>
      <component glyphName="uni0326" x="356" y="0" flags="0x0"/>
    </TTGlyph>
    <TTGlyph name="Ldot" xMin="82" yMin="0" xMax="438" yMax="688">
      <component glyphName=".ttfautohint" x="82" y="0" flags="0x0"/>
      <component glyphName="L" x="0" y="0" flags="0x0"/>
      <component glyphName="periodcentered" x="257" y="63" flags="0x4"/>
    </TTGlyph>
    <TTGlyph name="Lslash" xMin="26" yMin="0" xMax="438" yMax="688">
      <contour>
        <pt x="438" y="81" on="1"/>
        <pt x="438" y="0" on="1"/>
        <pt x="82" y="0" on="1"/>
        <pt x="82" y="283" on="1"/>
        <pt x="26" y="262" on="1"/>
        <pt x="26" y="333" on="1"/>
        <pt x="82" y="354" on="1"/>
        <pt x="82" y="688" on="1"/>
        <pt x="173" y="688" on="1"/>
        <pt x="173" y="387" on="1"/>
        <pt x="332" y="447" on="1"/>
        <pt x="332" y="375" on="1"/>
        <pt x="173" y="316" on="1"/>
        <pt x="173" y="81" on="1"/>
      </contour>
    </TTGlyph>
    <TTGlyph name="M" xMin="82" yMin="0" xMax="710" yMax="688">
      <contour>
        <pt x="623" y="545" on="1"/>
        <pt x="618" y="545" on="1"/>
        <pt x="432" y="0" on="1"/>
        <pt x="357" y="0" on="1"/>
        <pt x="172" y="545" on="1"/>
        <pt x="167" y="545" on="1"/>
        <pt x="167" y="0" on="1"/>
        <pt x="82" y="0" on="1"/>
        <pt x="82" y="688" on="1"/>
        <pt x="210" y="688" on="1"/>
        <pt x="394" y="148" on="1"/>
        <pt x="400" y="148" on="1"/>
        <pt x="584" y="688" on="1"/>
        <pt x="710" y="688" on="1"/>
        <pt x="710" y="0" on="1"/>
        <pt x="623" y="0" on="1"/>
      </contour>
    </TTGlyph>
    <TTGlyph name="N" xMin="82" yMin="0" xMax="549" yMax="688">
      <contour>
        <pt x="173" y="512" on="1"/>
        <pt x="169" y="512" on="1"/>
        <pt x="169" y="0" on="1"/>
        <pt x="82" y="0" on="1"/>
        <pt x="82" y="688" on="1"/>
        <pt x="175" y="688" on="1"/>
        <pt x="458" y="188" on="1"/>
        <pt x="462" y="188" on="1"/>
        <pt x="462" y="688" on="1"/>
        <pt x="549" y="688" on="1"/>
        <pt x="549" y="0" on="1"/>
        <pt x="462" y="0" on="1"/>
      </contour>
    </TTGlyph>
    <TTGlyph name="Nacute" xMin="82" yMin="0" xMax="549" yMax="888">
      <component glyphName=".ttfautohint" x="82" y="0" flags="0x0"/>
      <component glyphName="N" x="0" y="0" flags="0x0"/>
      <component glyphName="acutecomb.case" x="458" y="0" flags="0x0"/>
    </TTGlyph>
    <TTGlyph name="Nacute.loclPLK" xMin="82" yMin="0" xMax="549" yMax="888">
      <component glyphName=".ttfautohint" x="82" y="0" flags="0x0"/>
      <component glyphName="N" x="0" y="0" flags="0x0"/>
      <component glyphName="acute.case.loclPLK" x="264" y="0" flags="0x0"/>
    </TTGlyph>
    <TTGlyph name="Ncaron" xMin="82" yMin="0" xMax="549" yMax="888">
      <component glyphName=".ttfautohint" x="82" y="0" flags="0x0"/>
      <component glyphName="N" x="0" y="0" flags="0x0"/>
      <component glyphName="uni030C.case" x="463" y="0" flags="0x0"/>
    </TTGlyph>
    <TTGlyph name="Ncommaaccent" xMin="82" yMin="-264" xMax="549" yMax="688">
      <component glyphName=".ttfautohint" x="82" y="0" flags="0x0"/>
      <component glyphName="N" x="0" y="0" flags="0x0"/>
      <component glyphName="uni0326" x="427" y="0" flags="0x0"/>
    </TTGlyph>
    <TTGlyph name="Ntilde" xMin="82" yMin="0" xMax="549" yMax="876">
      <component glyphName=".ttfautohint" x="82" y="0" flags="0x0"/>
      <component glyphName="N" x="0" y="0" flags="0x0"/>
      <component glyphName="tilde" x="140" y="133" flags="0x4"/>
    </TTGlyph>
    <TTGlyph name="O" xMin="63" yMin="-8" xMax="556" yMax="696">
      <contour>
        <pt x="191" y="-8" on="0"/>
        <pt x="91" y="46" on="0"/>
        <pt x="63" y="183" on="0"/>
        <pt x="63" y="344" on="1"/>
        <pt x="63" y="505" on="0"/>
        <pt x="91" y="642" on="0"/>
        <pt x="191" y="696" on="0"/>
        <pt x="309" y="696" on="1"/>
        <pt x="428" y="696" on="0"/>
        <pt x="528" y="642" on="0"/>
        <pt x="556" y="505" on="0"/>
        <pt x="556" y="344" on="1"/>
        <pt x="556" y="183" on="0"/>
        <pt x="528" y="46" on="0"/>
        <pt x="428" y="-8" on="0"/>
        <pt x="309" y="-8" on="1"/>
      </contour>
      <contour>
        <pt x="389" y="70" on="0"/>
        <pt x="447" y="97" on="0"/>
        <pt x="465" y="203" on="0"/>
        <pt x="465" y="344" on="1"/>
        <pt x="465" y="486" on="0"/>
        <pt x="447" y="591" on="0"/>
        <pt x="389" y="618" on="0"/>
        <pt x="309" y="618" on="1"/>
        <pt x="229" y="618" on="0"/>
        <pt x="172" y="591" on="0"/>
        <pt x="154" y="486" on="0"/>
        <pt x="154" y="344" on="1"/>
        <pt x="154" y="202" on="0"/>
        <pt x="172" y="97" on="0"/>
        <pt x="229" y="70" on="0"/>
        <pt x="309" y="70" on="1"/>
      </contour>
    </TTGlyph>
    <TTGlyph name="OE" xMin="63" yMin="0" xMax="846" yMax="688">
      <contour>
        <pt x="190" y="0" on="0"/>
        <pt x="91" y="53" on="0"/>
        <pt x="63" y="186" on="0"/>
        <pt x="63" y="344" on="1"/>
        <pt x="63" y="502" on="0"/>
        <pt x="91" y="635" on="0"/>
        <pt x="190" y="688" on="0"/>
        <pt x="309" y="688" on="1"/>
        <pt x="846" y="688" on="1"/>
        <pt x="846" y="610" on="1"/>
        <pt x="577" y="610" on="1"/>
        <pt x="537" y="610" on="0"/>
        <pt x="512" y="615" on="1"/>
        <pt x="537" y="586" on="0"/>
        <pt x="554" y="481" on="0"/>
        <pt x="555" y="386" on="1"/>
        <pt x="807" y="386" on="1"/>
        <pt x="807" y="308" on="1"/>
        <pt x="556" y="308" on="1"/>
        <pt x="554" y="207" on="0"/>
        <pt x="537" y="101" on="0"/>
        <pt x="511" y="72" on="1"/>
        <pt x="545" y="78" on="0"/>
        <pt x="577" y="78" on="1"/>
        <pt x="846" y="78" on="1"/>
        <pt x="846" y="0" on="1"/>
        <pt x="309" y="0" on="1"/>
      </contour>
      <contour>
        <pt x="389" y="78" on="0"/>
        <pt x="447" y="105" on="0"/>
        <pt x="465" y="207" on="0"/>
        <pt x="465" y="344" on="1"/>
        <pt x="465" y="481" on="0"/>
        <pt x="447" y="583" on="0"/>
        <pt x="388" y="610" on="0"/>
        <pt x="309" y="610" on="1"/>
        <pt x="229" y="610" on="0"/>
        <pt x="172" y="583" on="0"/>
        <pt x="154" y="482" on="0"/>
        <pt x="154" y="344" on="1"/>
        <pt x="154" y="206" on="0"/>
        <pt x="172" y="105" on="0"/>
        <pt x="229" y="78" on="0"/>
        <pt x="309" y="78" on="1"/>
      </contour>
    </TTGlyph>
    <TTGlyph name="Oacute" xMin="63" yMin="-8" xMax="556" yMax="891">
      <component glyphName=".ttfautohint" x="63" y="0" flags="0x0"/>
      <component glyphName="O" x="0" y="0" flags="0x0"/>
      <component glyphName="acute" x="254" y="148" flags="0x4"/>
    </TTGlyph>
    <TTGlyph name="Oacute.loclPLK" xMin="63" yMin="-8" xMax="556" yMax="888">
      <component glyphName=".ttfautohint" x="63" y="0" flags="0x0"/>
      <component glyphName="O" x="0" y="0" flags="0x0"/>
      <component glyphName="acute.case.loclPLK" x="258" y="0" flags="0x0"/>
    </TTGlyph>
    <TTGlyph name="Obreve" xMin="63" yMin="-8" xMax="556" yMax="888">
      <component glyphName=".ttfautohint" x="63" y="0" flags="0x0"/>
      <component glyphName="O" x="0" y="0" flags="0x0"/>
      <component glyphName="uni0306.case" x="450" y="0" flags="0x0"/>
    </TTGlyph>
    <TTGlyph name="Ocircumflex" xMin="63" yMin="-8" xMax="556" yMax="889">
      <component glyphName=".ttfautohint" x="63" y="0" flags="0x0"/>
      <component glyphName="O" x="0" y="0" flags="0x0"/>
      <component glyphName="circumflex" x="162" y="146" flags="0x4"/>
    </TTGlyph>
    <TTGlyph name="Odieresis" xMin="63" yMin="-8" xMax="556" yMax="858">
      <component glyphName=".ttfautohint" x="63" y="0" flags="0x0"/>
      <component glyphName="O" x="0" y="0" flags="0x0"/>
      <component glyphName="dieresis" x="159" y="128" flags="0x4"/>
    </TTGlyph>
    <TTGlyph name="Ograve" xMin="63" yMin="-8" xMax="556" yMax="891">
      <component glyphName=".ttfautohint" x="63" y="0" flags="0x0"/>
      <component glyphName="O" x="0" y="0" flags="0x0"/>
      <component glyphName="grave" x="166" y="148" flags="0x4"/>
    </TTGlyph>
    <TTGlyph name="Ohorn" xMin="63" yMin="-8" xMax="593" yMax="784">
      <contour>
        <pt x="593" y="784" on="1"/>
        <pt x="593" y="754" on="1"/>
        <pt x="593" y="714" on="0"/>
        <pt x="580" y="672" on="0"/>
        <pt x="543" y="651" on="0"/>
        <pt x="506" y="648" on="1"/>
        <pt x="538" y="615" on="0"/>
        <pt x="556" y="483" on="0"/>
        <pt x="556" y="344" on="1"/>
        <pt x="556" y="183" on="0"/>
        <pt x="528" y="46" on="0"/>
        <pt x="428" y="-8" on="0"/>
        <pt x="309" y="-8" on="1"/>
        <pt x="191" y="-8" on="0"/>
        <pt x="91" y="46" on="0"/>
        <pt x="63" y="183" on="0"/>
        <pt x="63" y="344" on="1"/>
        <pt x="63" y="505" on="0"/>
        <pt x="91" y="642" on="0"/>
        <pt x="191" y="696" on="0"/>
        <pt x="309" y="696" on="1"/>
        <pt x="381" y="696" on="0"/>
        <pt x="421" y="688" on="1"/>
        <pt x="474" y="688" on="1"/>
        <pt x="500" y="688" on="0"/>
        <pt x="525" y="698" on="0"/>
        <pt x="533" y="720" on="0"/>
        <pt x="533" y="742" on="1"/>
        <pt x="533" y="784" on="1"/>
      </contour>
      <contour>
        <pt x="389" y="70" on="0"/>
        <pt x="447" y="97" on="0"/>
        <pt x="465" y="203" on="0"/>
        <pt x="465" y="344" on="1"/>
        <pt x="465" y="486" on="0"/>
        <pt x="447" y="591" on="0"/>
        <pt x="389" y="618" on="0"/>
        <pt x="309" y="618" on="1"/>
        <pt x="229" y="618" on="0"/>
        <pt x="172" y="591" on="0"/>
        <pt x="154" y="486" on="0"/>
        <pt x="154" y="344" on="1"/>
        <pt x="154" y="202" on="0"/>
        <pt x="172" y="97" on="0"/>
        <pt x="229" y="70" on="0"/>
        <pt x="309" y="70" on="1"/>
      </contour>
    </TTGlyph>
    <TTGlyph name="Ohungarumlaut" xMin="63" yMin="-8" xMax="556" yMax="881">
      <component glyphName=".ttfautohint" x="63" y="0" flags="0x0"/>
      <component glyphName="O" x="0" y="0" flags="0x0"/>
      <component glyphName="uni030B.case" x="531" y="0" flags="0x0"/>
    </TTGlyph>
    <TTGlyph name="Omacron" xMin="63" yMin="-8" xMax="556" yMax="887">
      <component glyphName=".ttfautohint" x="63" y="0" flags="0x0"/>
      <component glyphName="O" x="0" y="0" flags="0x0"/>
      <component glyphName="uni0304.case" x="478" y="0" flags="0x0"/>
    </TTGlyph>
    <TTGlyph name="Oslash" xMin="63" yMin="-55" xMax="556" yMax="743">
      <contour>
        <pt x="538" y="615" on="0"/>
        <pt x="556" y="484" on="0"/>
        <pt x="556" y="344" on="1"/>
        <pt x="556" y="183" on="0"/>
        <pt x="528" y="46" on="0"/>
        <pt x="428" y="-8" on="0"/>
        <pt x="309" y="-8" on="1"/>
        <pt x="220" y="-8" on="0"/>
        <pt x="172" y="6" on="1"/>
        <pt x="140" y="-55" on="1"/>
        <pt x="63" y="-55" on="1"/>
        <pt x="113" y="40" on="1"/>
        <pt x="81" y="73" on="0"/>
        <pt x="63" y="205" on="0"/>
        <pt x="63" y="344" on="1"/>
        <pt x="63" y="505" on="0"/>
        <pt x="91" y="642" on="0"/>
        <pt x="191" y="696" on="0"/>
        <pt x="309" y="696" on="1"/>
        <pt x="399" y="696" on="0"/>
        <pt x="445" y="682" on="1"/>
        <pt x="477" y="743" on="1"/>
        <pt x="554" y="743" on="1"/>
        <pt x="505" y="648" on="1"/>
      </contour>
      <contour>
        <pt x="154" y="259" on="0"/>
        <pt x="158" y="168" on="0"/>
        <pt x="165" y="140" on="1"/>
        <pt x="408" y="609" on="1"/>
        <pt x="392" y="615" on="0"/>
        <pt x="347" y="618" on="0"/>
        <pt x="309" y="618" on="1"/>
        <pt x="229" y="618" on="0"/>
        <pt x="172" y="591" on="0"/>
        <pt x="154" y="486" on="0"/>
        <pt x="154" y="344" on="1"/>
      </contour>
      <contour>
        <pt x="389" y="70" on="0"/>
        <pt x="447" y="97" on="0"/>
        <pt x="465" y="203" on="0"/>
        <pt x="465" y="344" on="1"/>
        <pt x="465" y="431" on="0"/>
        <pt x="461" y="522" on="0"/>
        <pt x="454" y="550" on="1"/>
        <pt x="210" y="79" on="1"/>
        <pt x="226" y="73" on="0"/>
        <pt x="271" y="70" on="0"/>
        <pt x="309" y="70" on="1"/>
      </contour>
    </TTGlyph>
    <TTGlyph name="Oslashacute" xMin="63" yMin="-55" xMax="556" yMax="888">
      <component glyphName=".ttfautohint" x="63" y="0" flags="0x0"/>
      <component glyphName="Oslash" x="0" y="0" flags="0x0"/>
      <component glyphName="acutecomb.case" x="451" y="0" flags="0x0"/>
    </TTGlyph>
    <TTGlyph name="Otilde" xMin="63" yMin="-8" xMax="556" yMax="876">
      <component glyphName=".ttfautohint" x="63" y="0" flags="0x0"/>
      <component glyphName="O" x="0" y="0" flags="0x0"/>
      <component glyphName="tilde" x="133" y="133" flags="0x4"/>
    </TTGlyph>
    <TTGlyph name="P" xMin="82" yMin="0" xMax="521" yMax="688">
      <contour>
        <pt x="82" y="688" on="1"/>
        <pt x="340" y="688" on="1"/>
        <pt x="418" y="688" on="0"/>
        <pt x="496" y="634" on="0"/>
        <pt x="521" y="542" on="0"/>
        <pt x="521" y="469" on="1"/>
        <pt x="521" y="398" on="0"/>
        <pt x="497" y="305" on="0"/>
        <pt x="417" y="249" on="0"/>
        <pt x="339" y="249" on="1"/>
        <pt x="173" y="249" on="1"/>
        <pt x="173" y="0" on="1"/>
        <pt x="82" y="0" on="1"/>
      </contour>
      <contour>
        <pt x="313" y="328" on="1"/>
        <pt x="366" y="328" on="0"/>
        <pt x="416" y="356" on="0"/>
        <pt x="431" y="413" on="0"/>
        <pt x="431" y="469" on="1"/>
        <pt x="431" y="526" on="0"/>
        <pt x="417" y="582" on="0"/>
        <pt x="368" y="610" on="0"/>
        <pt x="314" y="610" on="1"/>
        <pt x="173" y="610" on="1"/>
        <pt x="173" y="328" on="1"/>
      </contour>
    </TTGlyph>
    <TTGlyph name="Q" xMin="63" yMin="-115" xMax="575" yMax="696">
      <contour>
        <pt x="575" y="-112" on="1"/>
        <pt x="575" y="-115" on="1"/>
        <pt x="477" y="-115" on="1"/>
        <pt x="405" y="-3" on="1"/>
        <pt x="360" y="-8" on="0"/>
        <pt x="309" y="-8" on="1"/>
        <pt x="191" y="-8" on="0"/>
        <pt x="91" y="46" on="0"/>
        <pt x="63" y="183" on="0"/>
        <pt x="63" y="344" on="1"/>
        <pt x="63" y="505" on="0"/>
        <pt x="91" y="642" on="0"/>
        <pt x="191" y="696" on="0"/>
        <pt x="309" y="696" on="1"/>
        <pt x="428" y="696" on="0"/>
        <pt x="528" y="642" on="0"/>
        <pt x="556" y="505" on="0"/>
        <pt x="556" y="344" on="1"/>
        <pt x="556" y="240" on="0"/>
        <pt x="547" y="122" on="0"/>
        <pt x="517" y="44" on="0"/>
        <pt x="485" y="24" on="1"/>
      </contour>
      <contour>
        <pt x="343" y="70" on="0"/>
        <pt x="358" y="71" on="1"/>
        <pt x="263" y="218" on="1"/>
        <pt x="356" y="218" on="1"/>
        <pt x="436" y="98" on="1"/>
        <pt x="454" y="121" on="0"/>
        <pt x="465" y="225" on="0"/>
        <pt x="465" y="344" on="1"/>
        <pt x="465" y="486" on="0"/>
        <pt x="447" y="591" on="0"/>
        <pt x="389" y="618" on="0"/>
        <pt x="309" y="618" on="1"/>
        <pt x="229" y="618" on="0"/>
        <pt x="172" y="591" on="0"/>
        <pt x="154" y="486" on="0"/>
        <pt x="154" y="344" on="1"/>
        <pt x="154" y="202" on="0"/>
        <pt x="172" y="97" on="0"/>
        <pt x="229" y="70" on="0"/>
        <pt x="309" y="70" on="1"/>
      </contour>
    </TTGlyph>
    <TTGlyph name="R" xMin="82" yMin="0" xMax="541" yMax="688">
      <contour>
        <pt x="445" y="0" on="1"/>
        <pt x="351" y="270" on="1"/>
        <pt x="346" y="269" on="0"/>
        <pt x="338" y="269" on="1"/>
        <pt x="173" y="269" on="1"/>
        <pt x="173" y="0" on="1"/>
        <pt x="82" y="0" on="1"/>
        <pt x="82" y="688" on="1"/>
        <pt x="350" y="688" on="1"/>
        <pt x="427" y="688" on="0"/>
        <pt x="505" y="636" on="0"/>
        <pt x="529" y="549" on="0"/>
        <pt x="529" y="479" on="1"/>
        <pt x="529" y="405" on="0"/>
        <pt x="493" y="305" on="0"/>
        <pt x="437" y="285" on="1"/>
        <pt x="541" y="0" on="1"/>
      </contour>
      <contour>
        <pt x="374" y="347" on="0"/>
        <pt x="424" y="374" on="0"/>
        <pt x="439" y="428" on="0"/>
        <pt x="439" y="479" on="1"/>
        <pt x="439" y="531" on="0"/>
        <pt x="425" y="583" on="0"/>
        <pt x="377" y="610" on="0"/>
        <pt x="325" y="610" on="1"/>
        <pt x="173" y="610" on="1"/>
        <pt x="173" y="347" on="1"/>
        <pt x="320" y="347" on="1"/>
      </contour>
    </TTGlyph>
    <TTGlyph name="R.ss01" xMin="82" yMin="0" xMax="533" yMax="688">
      <contour>
        <pt x="533" y="0" on="1"/>
        <pt x="444" y="0" on="1"/>
        <pt x="434" y="150" on="1"/>
        <pt x="431" y="194" on="0"/>
        <pt x="419" y="242" on="0"/>
        <pt x="373" y="273" on="0"/>
        <pt x="325" y="273" on="1"/>
        <pt x="172" y="273" on="1"/>
        <pt x="172" y="0" on="1"/>
        <pt x="82" y="0" on="1"/>
        <pt x="82" y="688" on="1"/>
        <pt x="357" y="688" on="1"/>
        <pt x="452" y="688" on="0"/>
        <pt x="529" y="597" on="0"/>
        <pt x="529" y="501" on="1"/>
        <pt x="529" y="413" on="0"/>
        <pt x="478" y="333" on="0"/>
        <pt x="424" y="319" on="1"/>
        <pt x="424" y="315" on="1"/>
        <pt x="457" y="306" on="0"/>
        <pt x="497" y="277" on="0"/>
        <pt x="520" y="220" on="0"/>
        <pt x="523" y="170" on="1"/>
      </contour>
      <contour>
        <pt x="372" y="350" on="0"/>
        <pt x="421" y="378" on="0"/>
        <pt x="438" y="433" on="0"/>
        <pt x="438" y="480" on="1"/>
        <pt x="438" y="531" on="0"/>
        <pt x="425" y="583" on="0"/>
        <pt x="377" y="610" on="0"/>
        <pt x="326" y="610" on="1"/>
        <pt x="172" y="610" on="1"/>
        <pt x="172" y="350" on="1"/>
        <pt x="324" y="350" on="1"/>
      </contour>
    </TTGlyph>
    <TTGlyph name="Racute" xMin="82" yMin="0" xMax="541" yMax="888">
      <component glyphName=".ttfautohint" x="82" y="0" flags="0x0"/>
      <component glyphName="R" x="0" y="0" flags="0x0"/>
      <component glyphName="acutecomb.case" x="437" y="0" flags="0x0"/>
    </TTGlyph>
    <TTGlyph name="Racute.ss01" xMin="82" yMin="0" xMax="533" yMax="888">
      <component glyphName=".ttfautohint" x="82" y="0" flags="0x0"/>
      <component glyphName="R.ss01" x="0" y="0" flags="0x0"/>
      <component glyphName="acutecomb.case" x="439" y="0" flags="0x0"/>
    </TTGlyph>
    <TTGlyph name="Rcaron" xMin="82" yMin="0" xMax="541" yMax="888">
      <component glyphName=".ttfautohint" x="82" y="0" flags="0x0"/>
      <component glyphName="R" x="0" y="0" flags="0x0"/>
      <component glyphName="uni030C.case" x="442" y="0" flags="0x0"/>
    </TTGlyph>
    <TTGlyph name="Rcaron.ss01" xMin="82" yMin="0" xMax="533" yMax="888">
      <component glyphName=".ttfautohint" x="82" y="0" flags="0x0"/>
      <component glyphName="R.ss01" x="0" y="0" flags="0x0"/>
      <component glyphName="uni030C.case" x="444" y="0" flags="0x0"/>
    </TTGlyph>
    <TTGlyph name="Rcommaaccent" xMin="82" yMin="-264" xMax="541" yMax="688">
      <component glyphName=".ttfautohint" x="82" y="0" flags="0x0"/>
      <component glyphName="R" x="0" y="0" flags="0x0"/>
      <component glyphName="uni0326" x="406" y="0" flags="0x0"/>
    </TTGlyph>
    <TTGlyph name="Rcommaaccent.ss01" xMin="82" yMin="-264" xMax="533" yMax="688">
      <component glyphName=".ttfautohint" x="82" y="0" flags="0x0"/>
      <component glyphName="R.ss01" x="0" y="0" flags="0x0"/>
      <component glyphName="uni0326" x="408" y="0" flags="0x0"/>
    </TTGlyph>
    <TTGlyph name="S" xMin="52" yMin="-8" xMax="486" yMax="696">
      <contour>
        <pt x="229" y="-8" on="0"/>
        <pt x="113" y="0" on="0"/>
        <pt x="69" y="6" on="1"/>
        <pt x="69" y="82" on="1"/>
        <pt x="113" y="77" on="0"/>
        <pt x="216" y="70" on="0"/>
        <pt x="251" y="70" on="1"/>
        <pt x="297" y="70" on="0"/>
        <pt x="351" y="80" on="0"/>
        <pt x="369" y="93" on="1"/>
        <pt x="385" y="105" on="0"/>
        <pt x="395" y="150" on="0"/>
        <pt x="395" y="190" on="1"/>
        <pt x="395" y="240" on="0"/>
        <pt x="385" y="280" on="0"/>
        <pt x="351" y="297" on="0"/>
        <pt x="308" y="303" on="1"/>
        <pt x="171" y="322" on="1"/>
        <pt x="120" y="328" on="0"/>
        <pt x="69" y="373" on="0"/>
        <pt x="52" y="444" on="0"/>
        <pt x="52" y="502" on="1"/>
        <pt x="52" y="580" on="0"/>
        <pt x="102" y="664" on="0"/>
        <pt x="196" y="696" on="0"/>
        <pt x="272" y="696" on="1"/>
        <pt x="321" y="696" on="0"/>
        <pt x="422" y="687" on="0"/>
        <pt x="455" y="680" on="1"/>
        <pt x="455" y="606" on="1"/>
        <pt x="376" y="618" on="0"/>
        <pt x="291" y="618" on="1"/>
        <pt x="243" y="618" on="0"/>
        <pt x="185" y="607" on="0"/>
        <pt x="169" y="594" on="1"/>
        <pt x="152" y="582" on="0"/>
        <pt x="142" y="540" on="0"/>
        <pt x="142" y="504" on="1"/>
        <pt x="142" y="463" on="0"/>
        <pt x="152" y="425" on="0"/>
        <pt x="181" y="408" on="0"/>
        <pt x="213" y="404" on="1"/>
        <pt x="349" y="386" on="1"/>
        <pt x="400" y="380" on="0"/>
        <pt x="457" y="350" on="0"/>
        <pt x="472" y="313" on="1"/>
        <pt x="486" y="277" on="0"/>
        <pt x="486" y="199" on="1"/>
        <pt x="486" y="113" on="0"/>
        <pt x="439" y="23" on="0"/>
        <pt x="351" y="-8" on="0"/>
        <pt x="278" y="-8" on="1"/>
      </contour>
    </TTGlyph>
    <TTGlyph name="Sacute" xMin="52" yMin="-8" xMax="486" yMax="888">
      <component glyphName=".ttfautohint" x="52" y="0" flags="0x0"/>
      <component glyphName="S" x="0" y="0" flags="0x0"/>
      <component glyphName="acutecomb.case" x="411" y="0" flags="0x0"/>
    </TTGlyph>
    <TTGlyph name="Sacute.loclPLK" xMin="52" yMin="-8" xMax="486" yMax="888">
      <component glyphName=".ttfautohint" x="52" y="0" flags="0x0"/>
      <component glyphName="S" x="0" y="0" flags="0x0"/>
      <component glyphName="acute.case.loclPLK" x="217" y="0" flags="0x0"/>
    </TTGlyph>
    <TTGlyph name="Scaron" xMin="52" yMin="-8" xMax="486" yMax="889">
      <component glyphName=".ttfautohint" x="52" y="0" flags="0x0"/>
      <component glyphName="S" x="0" y="0" flags="0x0"/>
      <component glyphName="caron" x="128" y="146" flags="0x4"/>
    </TTGlyph>
    <TTGlyph name="Scedilla" xMin="52" yMin="-190" xMax="486" yMax="696">
      <contour>
        <pt x="486" y="117" on="0"/>
        <pt x="443" y="28" on="0"/>
        <pt x="363" y="-6" on="0"/>
        <pt x="298" y="-8" on="1"/>
        <pt x="260" y="-190" on="1"/>
        <pt x="178" y="-190" on="1"/>
        <pt x="178" y="-185" on="1"/>
        <pt x="237" y="-7" on="1"/>
        <pt x="146" y="-5" on="0"/>
        <pt x="69" y="6" on="1"/>
        <pt x="69" y="82" on="1"/>
        <pt x="113" y="77" on="0"/>
        <pt x="216" y="70" on="0"/>
        <pt x="251" y="70" on="1"/>
        <pt x="297" y="70" on="0"/>
        <pt x="351" y="80" on="0"/>
        <pt x="369" y="93" on="1"/>
        <pt x="385" y="105" on="0"/>
        <pt x="395" y="150" on="0"/>
        <pt x="395" y="190" on="1"/>
        <pt x="395" y="240" on="0"/>
        <pt x="385" y="280" on="0"/>
        <pt x="351" y="297" on="0"/>
        <pt x="308" y="303" on="1"/>
        <pt x="171" y="322" on="1"/>
        <pt x="120" y="328" on="0"/>
        <pt x="69" y="373" on="0"/>
        <pt x="52" y="444" on="0"/>
        <pt x="52" y="502" on="1"/>
        <pt x="52" y="580" on="0"/>
        <pt x="102" y="664" on="0"/>
        <pt x="196" y="696" on="0"/>
        <pt x="272" y="696" on="1"/>
        <pt x="321" y="696" on="0"/>
        <pt x="422" y="687" on="0"/>
        <pt x="455" y="680" on="1"/>
        <pt x="455" y="606" on="1"/>
        <pt x="376" y="618" on="0"/>
        <pt x="291" y="618" on="1"/>
        <pt x="243" y="618" on="0"/>
        <pt x="185" y="607" on="0"/>
        <pt x="169" y="594" on="1"/>
        <pt x="152" y="582" on="0"/>
        <pt x="142" y="540" on="0"/>
        <pt x="142" y="504" on="1"/>
        <pt x="142" y="463" on="0"/>
        <pt x="152" y="425" on="0"/>
        <pt x="181" y="408" on="0"/>
        <pt x="213" y="404" on="1"/>
        <pt x="349" y="386" on="1"/>
        <pt x="400" y="380" on="0"/>
        <pt x="457" y="350" on="0"/>
        <pt x="472" y="313" on="1"/>
        <pt x="486" y="277" on="0"/>
        <pt x="486" y="199" on="1"/>
      </contour>
    </TTGlyph>
    <TTGlyph name="Scircumflex" xMin="52" yMin="-8" xMax="486" yMax="888">
      <component glyphName=".ttfautohint" x="52" y="0" flags="0x0"/>
      <component glyphName="S" x="0" y="0" flags="0x0"/>
      <component glyphName="uni0302.case" x="416" y="0" flags="0x0"/>
    </TTGlyph>
    <TTGlyph name="Scommaaccent" xMin="52" yMin="-264" xMax="486" yMax="696">
      <component glyphName=".ttfautohint" x="52" y="0" flags="0x0"/>
      <component glyphName="S" x="0" y="0" flags="0x0"/>
      <component glyphName="uni0326" x="381" y="0" flags="0x0"/>
    </TTGlyph>
    <TTGlyph name="T" xMin="23" yMin="0" xMax="478" yMax="688">
      <contour>
        <pt x="205" y="607" on="1"/>
        <pt x="23" y="607" on="1"/>
        <pt x="23" y="688" on="1"/>
        <pt x="478" y="688" on="1"/>
        <pt x="478" y="607" on="1"/>
        <pt x="295" y="607" on="1"/>
        <pt x="295" y="0" on="1"/>
        <pt x="205" y="0" on="1"/>
      </contour>
    </TTGlyph>
    <TTGlyph name="Tbar" xMin="23" yMin="0" xMax="478" yMax="688">
      <contour>
        <pt x="295" y="607" on="1"/>
        <pt x="295" y="377" on="1"/>
        <pt x="453" y="377" on="1"/>
        <pt x="453" y="306" on="1"/>
        <pt x="295" y="306" on="1"/>
        <pt x="295" y="0" on="1"/>
        <pt x="205" y="0" on="1"/>
        <pt x="205" y="306" on="1"/>
        <pt x="46" y="306" on="1"/>
        <pt x="46" y="377" on="1"/>
        <pt x="205" y="377" on="1"/>
        <pt x="205" y="607" on="1"/>
        <pt x="23" y="607" on="1"/>
        <pt x="23" y="688" on="1"/>
        <pt x="478" y="688" on="1"/>
        <pt x="478" y="607" on="1"/>
      </contour>
    </TTGlyph>
    <TTGlyph name="Tcaron" xMin="23" yMin="0" xMax="478" yMax="888">
      <component glyphName=".ttfautohint" x="23" y="0" flags="0x0"/>
      <component glyphName="T" x="0" y="0" flags="0x0"/>
      <component glyphName="uni030C.case" x="397" y="0" flags="0x0"/>
    </TTGlyph>
    <TTGlyph name="Thorn" xMin="83" yMin="0" xMax="521" yMax="688">
      <contour>
        <pt x="83" y="688" on="1"/>
        <pt x="173" y="688" on="1"/>
        <pt x="173" y="570" on="1"/>
        <pt x="340" y="570" on="1"/>
        <pt x="418" y="570" on="0"/>
        <pt x="497" y="516" on="0"/>
        <pt x="521" y="424" on="0"/>
        <pt x="521" y="351" on="1"/>
        <pt x="521" y="280" on="0"/>
        <pt x="497" y="187" on="0"/>
        <pt x="418" y="131" on="0"/>
        <pt x="339" y="131" on="1"/>
        <pt x="173" y="131" on="1"/>
        <pt x="173" y="0" on="1"/>
        <pt x="83" y="0" on="1"/>
      </contour>
      <contour>
        <pt x="313" y="209" on="1"/>
        <pt x="366" y="209" on="0"/>
        <pt x="416" y="237" on="0"/>
        <pt x="431" y="295" on="0"/>
        <pt x="431" y="351" on="1"/>
        <pt x="431" y="408" on="0"/>
        <pt x="417" y="464" on="0"/>
        <pt x="368" y="491" on="0"/>
        <pt x="314" y="491" on="1"/>
        <pt x="173" y="491" on="1"/>
        <pt x="173" y="209" on="1"/>
      </contour>
    </TTGlyph>
    <TTGlyph name="U" xMin="76" yMin="-8" xMax="536" yMax="688">
      <contour>
        <pt x="536" y="688" on="1"/>
        <pt x="536" y="301" on="1"/>
        <pt x="536" y="167" on="0"/>
        <pt x="507" y="43" on="0"/>
        <pt x="412" y="-8" on="0"/>
        <pt x="306" y="-8" on="1"/>
        <pt x="200" y="-8" on="0"/>
        <pt x="105" y="43" on="0"/>
        <pt x="76" y="167" on="0"/>
        <pt x="76" y="301" on="1"/>
        <pt x="76" y="688" on="1"/>
        <pt x="166" y="688" on="1"/>
        <pt x="166" y="266" on="1"/>
        <pt x="166" y="176" on="0"/>
        <pt x="182" y="100" on="0"/>
        <pt x="239" y="70" on="0"/>
        <pt x="306" y="70" on="1"/>
        <pt x="374" y="70" on="0"/>
        <pt x="430" y="100" on="0"/>
        <pt x="446" y="175" on="0"/>
        <pt x="446" y="266" on="1"/>
        <pt x="446" y="688" on="1"/>
      </contour>
    </TTGlyph>
    <TTGlyph name="Uacute" xMin="76" yMin="-8" xMax="536" yMax="891">
      <component glyphName=".ttfautohint" x="76" y="0" flags="0x0"/>
      <component glyphName="U" x="0" y="0" flags="0x0"/>
      <component glyphName="acute" x="256" y="148" flags="0x4"/>
    </TTGlyph>
    <TTGlyph name="Ubreve" xMin="76" yMin="-8" xMax="536" yMax="888">
      <component glyphName=".ttfautohint" x="76" y="0" flags="0x0"/>
      <component glyphName="U" x="0" y="0" flags="0x0"/>
      <component glyphName="uni0306.case" x="447" y="0" flags="0x0"/>
    </TTGlyph>
    <TTGlyph name="Ucircumflex" xMin="76" yMin="-8" xMax="536" yMax="889">
      <component glyphName=".ttfautohint" x="76" y="0" flags="0x0"/>
      <component glyphName="U" x="0" y="0" flags="0x0"/>
      <component glyphName="circumflex" x="160" y="146" flags="0x4"/>
    </TTGlyph>
    <TTGlyph name="Udieresis" xMin="76" yMin="-8" xMax="536" yMax="858">
      <component glyphName=".ttfautohint" x="76" y="0" flags="0x0"/>
      <component glyphName="U" x="0" y="0" flags="0x0"/>
      <component glyphName="dieresis" x="156" y="128" flags="0x4"/>
    </TTGlyph>
    <TTGlyph name="Ugrave" xMin="76" yMin="-8" xMax="536" yMax="891">
      <component glyphName=".ttfautohint" x="76" y="0" flags="0x0"/>
      <component glyphName="U" x="0" y="0" flags="0x0"/>
      <component glyphName="grave" x="174" y="148" flags="0x4"/>
    </TTGlyph>
    <TTGlyph name="Uhorn" xMin="76" yMin="-8" xMax="632" yMax="784">
      <contour>
        <pt x="632" y="784" on="1"/>
        <pt x="632" y="754" on="1"/>
        <pt x="632" y="713" on="0"/>
        <pt x="618" y="669" on="0"/>
        <pt x="577" y="649" on="0"/>
        <pt x="536" y="647" on="1"/>
        <pt x="536" y="301" on="1"/>
        <pt x="536" y="167" on="0"/>
        <pt x="507" y="43" on="0"/>
        <pt x="412" y="-8" on="0"/>
        <pt x="306" y="-8" on="1"/>
        <pt x="200" y="-8" on="0"/>
        <pt x="105" y="43" on="0"/>
        <pt x="76" y="167" on="0"/>
        <pt x="76" y="301" on="1"/>
        <pt x="76" y="688" on="1"/>
        <pt x="166" y="688" on="1"/>
        <pt x="166" y="266" on="1"/>
        <pt x="166" y="176" on="0"/>
        <pt x="182" y="100" on="0"/>
        <pt x="239" y="70" on="0"/>
        <pt x="306" y="70" on="1"/>
        <pt x="374" y="70" on="0"/>
        <pt x="430" y="100" on="0"/>
        <pt x="446" y="175" on="0"/>
        <pt x="446" y="266" on="1"/>
        <pt x="446" y="688" on="1"/>
        <pt x="513" y="688" on="1"/>
        <pt x="539" y="688" on="0"/>
        <pt x="564" y="698" on="0"/>
        <pt x="572" y="720" on="0"/>
        <pt x="572" y="742" on="1"/>
        <pt x="572" y="784" on="1"/>
      </contour>
    </TTGlyph>
    <TTGlyph name="Uhungarumlaut" xMin="76" yMin="-8" xMax="536" yMax="881">
      <component glyphName=".ttfautohint" x="76" y="0" flags="0x0"/>
      <component glyphName="U" x="0" y="0" flags="0x0"/>
      <component glyphName="uni030B.case" x="528" y="0" flags="0x0"/>
    </TTGlyph>
    <TTGlyph name="Umacron" xMin="76" yMin="-8" xMax="536" yMax="887">
      <component glyphName=".ttfautohint" x="76" y="0" flags="0x0"/>
      <component glyphName="U" x="0" y="0" flags="0x0"/>
      <component glyphName="uni0304.case" x="475" y="0" flags="0x0"/>
    </TTGlyph>
    <TTGlyph name="Uogonek" xMin="76" yMin="-196" xMax="536" yMax="688">
      <contour>
        <pt x="536" y="688" on="1"/>
        <pt x="536" y="301" on="1"/>
        <pt x="536" y="212" on="0"/>
        <pt x="526" y="107" on="0"/>
        <pt x="495" y="39" on="0"/>
        <pt x="464" y="20" on="1"/>
        <pt x="428" y="-2" on="0"/>
        <pt x="382" y="-65" on="0"/>
        <pt x="382" y="-101" on="1"/>
        <pt x="382" y="-142" on="0"/>
        <pt x="428" y="-142" on="1"/>
        <pt x="444" y="-141" on="1"/>
        <pt x="444" y="-194" on="1"/>
        <pt x="412" y="-196" on="0"/>
        <pt x="404" y="-196" on="1"/>
        <pt x="310" y="-196" on="0"/>
        <pt x="310" y="-118" on="1"/>
        <pt x="310" y="-92" on="0"/>
        <pt x="339" y="-33" on="0"/>
        <pt x="365" y="-5" on="1"/>
        <pt x="340" y="-8" on="0"/>
        <pt x="306" y="-8" on="1"/>
        <pt x="200" y="-8" on="0"/>
        <pt x="105" y="43" on="0"/>
        <pt x="76" y="167" on="0"/>
        <pt x="76" y="301" on="1"/>
        <pt x="76" y="688" on="1"/>
        <pt x="166" y="688" on="1"/>
        <pt x="166" y="266" on="1"/>
        <pt x="166" y="176" on="0"/>
        <pt x="182" y="100" on="0"/>
        <pt x="239" y="70" on="0"/>
        <pt x="306" y="70" on="1"/>
        <pt x="374" y="70" on="0"/>
        <pt x="430" y="100" on="0"/>
        <pt x="446" y="175" on="0"/>
        <pt x="446" y="266" on="1"/>
        <pt x="446" y="688" on="1"/>
      </contour>
    </TTGlyph>
    <TTGlyph name="Uring" xMin="76" yMin="-8" xMax="536" yMax="927">
      <component glyphName=".ttfautohint" x="76" y="0" flags="0x0"/>
      <component glyphName="U" x="0" y="0" flags="0x0"/>
      <component glyphName="uni030A.case" x="441" y="0" flags="0x0"/>
    </TTGlyph>
    <TTGlyph name="Utilde" xMin="76" yMin="-8" xMax="536" yMax="888">
      <component glyphName=".ttfautohint" x="76" y="0" flags="0x0"/>
      <component glyphName="U" x="0" y="0" flags="0x0"/>
      <component glyphName="tildecomb.case" x="483" y="0" flags="0x0"/>
    </TTGlyph>
    <TTGlyph name="V" xMin="19" yMin="0" xMax="548" yMax="688">
      <contour>
        <pt x="19" y="688" on="1"/>
        <pt x="113" y="688" on="1"/>
        <pt x="282" y="107" on="1"/>
        <pt x="288" y="107" on="1"/>
        <pt x="457" y="688" on="1"/>
        <pt x="548" y="688" on="1"/>
        <pt x="343" y="0" on="1"/>
        <pt x="224" y="0" on="1"/>
      </contour>
    </TTGlyph>
    <TTGlyph name="W" xMin="26" yMin="0" xMax="828" yMax="688">
      <contour>
        <pt x="430" y="544" on="1"/>
        <pt x="425" y="544" on="1"/>
        <pt x="293" y="0" on="1"/>
        <pt x="180" y="0" on="1"/>
        <pt x="26" y="688" on="1"/>
        <pt x="118" y="688" on="1"/>
        <pt x="239" y="117" on="1"/>
        <pt x="245" y="117" on="1"/>
        <pt x="379" y="688" on="1"/>
        <pt x="479" y="688" on="1"/>
        <pt x="615" y="117" on="1"/>
        <pt x="621" y="117" on="1"/>
        <pt x="738" y="688" on="1"/>
        <pt x="828" y="688" on="1"/>
        <pt x="675" y="0" on="1"/>
        <pt x="562" y="0" on="1"/>
      </contour>
    </TTGlyph>
    <TTGlyph name="Wacute" xMin="26" yMin="0" xMax="828" yMax="888">
      <component glyphName=".ttfautohint" x="26" y="0" flags="0x0"/>
      <component glyphName="W" x="0" y="0" flags="0x0"/>
      <component glyphName="acutecomb.case" x="568" y="0" flags="0x0"/>
    </TTGlyph>
    <TTGlyph name="Wcircumflex" xMin="26" yMin="0" xMax="828" yMax="888">
      <component glyphName=".ttfautohint" x="26" y="0" flags="0x0"/>
      <component glyphName="W" x="0" y="0" flags="0x0"/>
      <component glyphName="uni0302.case" x="573" y="0" flags="0x0"/>
    </TTGlyph>
    <TTGlyph name="Wdieresis" xMin="26" yMin="0" xMax="828" yMax="875">
      <component glyphName=".ttfautohint" x="26" y="0" flags="0x0"/>
      <component glyphName="W" x="0" y="0" flags="0x0"/>
      <component glyphName="uni0308.case" x="576" y="0" flags="0x0"/>
    </TTGlyph>
    <TTGlyph name="Wgrave" xMin="26" yMin="0" xMax="828" yMax="888">
      <component glyphName=".ttfautohint" x="26" y="0" flags="0x0"/>
      <component glyphName="W" x="0" y="0" flags="0x0"/>
      <component glyphName="gravecomb.case" x="479" y="0" flags="0x0"/>
    </TTGlyph>
    <TTGlyph name="X" xMin="22" yMin="0" xMax="562" yMax="688">
      <contour>
        <pt x="294" y="273" on="1"/>
        <pt x="287" y="273" on="1"/>
        <pt x="122" y="0" on="1"/>
        <pt x="22" y="0" on="1"/>
        <pt x="235" y="346" on="1"/>
        <pt x="25" y="688" on="1"/>
        <pt x="128" y="688" on="1"/>
        <pt x="290" y="421" on="1"/>
        <pt x="297" y="421" on="1"/>
        <pt x="459" y="688" on="1"/>
        <pt x="559" y="688" on="1"/>
        <pt x="350" y="348" on="1"/>
        <pt x="562" y="0" on="1"/>
        <pt x="459" y="0" on="1"/>
      </contour>
    </TTGlyph>
    <TTGlyph name="Y" xMin="7" yMin="0" xMax="521" yMax="688">
      <contour>
        <pt x="218" y="259" on="1"/>
        <pt x="7" y="688" on="1"/>
        <pt x="102" y="688" on="1"/>
        <pt x="262" y="358" on="1"/>
        <pt x="269" y="358" on="1"/>
        <pt x="429" y="688" on="1"/>
        <pt x="521" y="688" on="1"/>
        <pt x="308" y="259" on="1"/>
        <pt x="308" y="0" on="1"/>
        <pt x="218" y="0" on="1"/>
      </contour>
    </TTGlyph>
    <TTGlyph name="Y.loclGUA" xMin="34" yMin="0" xMax="495" yMax="688">
      <contour>
        <pt x="495" y="688" on="1"/>
        <pt x="495" y="505" on="1"/>
        <pt x="495" y="381" on="0"/>
        <pt x="471" y="260" on="0"/>
        <pt x="393" y="202" on="0"/>
        <pt x="309" y="197" on="1"/>
        <pt x="309" y="0" on="1"/>
        <pt x="219" y="0" on="1"/>
        <pt x="219" y="197" on="1"/>
        <pt x="136" y="202" on="0"/>
        <pt x="58" y="260" on="0"/>
        <pt x="34" y="382" on="0"/>
        <pt x="34" y="505" on="1"/>
        <pt x="34" y="688" on="1"/>
        <pt x="125" y="688" on="1"/>
        <pt x="125" y="470" on="1"/>
        <pt x="125" y="379" on="0"/>
        <pt x="141" y="304" on="0"/>
        <pt x="197" y="274" on="0"/>
        <pt x="265" y="274" on="1"/>
        <pt x="333" y="274" on="0"/>
        <pt x="389" y="304" on="0"/>
        <pt x="405" y="379" on="0"/>
        <pt x="405" y="470" on="1"/>
        <pt x="405" y="688" on="1"/>
      </contour>
    </TTGlyph>
    <TTGlyph name="Yacute" xMin="7" yMin="0" xMax="521" yMax="891">
      <component glyphName=".ttfautohint" x="7" y="0" flags="0x0"/>
      <component glyphName="Y" x="0" y="0" flags="0x0"/>
      <component glyphName="acute" x="219" y="148" flags="0x4"/>
    </TTGlyph>
    <TTGlyph name="Yacute.loclGUA" xMin="34" yMin="0" xMax="495" yMax="888">
      <component glyphName=".ttfautohint" x="34" y="0" flags="0x0"/>
      <component glyphName="Y.loclGUA" x="0" y="0" flags="0x0"/>
      <component glyphName="acutecomb.case" x="406" y="0" flags="0x0"/>
    </TTGlyph>
    <TTGlyph name="Ycircumflex" xMin="7" yMin="0" xMax="521" yMax="888">
      <component glyphName=".ttfautohint" x="7" y="0" flags="0x0"/>
      <component glyphName="Y" x="0" y="0" flags="0x0"/>
      <component glyphName="uni0302.case" x="411" y="0" flags="0x0"/>
    </TTGlyph>
    <TTGlyph name="Ycircumflex.loclGUA" xMin="34" yMin="0" xMax="495" yMax="888">
      <component glyphName=".ttfautohint" x="34" y="0" flags="0x0"/>
      <component glyphName="Y.loclGUA" x="0" y="0" flags="0x0"/>
      <component glyphName="uni0302.case" x="411" y="0" flags="0x0"/>
    </TTGlyph>
    <TTGlyph name="Ydieresis" xMin="7" yMin="0" xMax="521" yMax="858">
      <component glyphName=".ttfautohint" x="7" y="0" flags="0x0"/>
      <component glyphName="Y" x="0" y="0" flags="0x0"/>
      <component glyphName="dieresis" x="117" y="128" flags="0x4"/>
    </TTGlyph>
    <TTGlyph name="Ydieresis.loclGUA" xMin="34" yMin="0" xMax="495" yMax="875">
      <component glyphName=".ttfautohint" x="34" y="0" flags="0x0"/>
      <component glyphName="Y.loclGUA" x="0" y="0" flags="0x0"/>
      <component glyphName="uni0308.case" x="414" y="0" flags="0x0"/>
    </TTGlyph>
    <TTGlyph name="Ygrave" xMin="7" yMin="0" xMax="521" yMax="888">
      <component glyphName=".ttfautohint" x="7" y="0" flags="0x0"/>
      <component glyphName="Y" x="0" y="0" flags="0x0"/>
      <component glyphName="gravecomb.case" x="317" y="0" flags="0x0"/>
    </TTGlyph>
    <TTGlyph name="Ygrave.loclGUA" xMin="34" yMin="0" xMax="495" yMax="888">
      <component glyphName=".ttfautohint" x="34" y="0" flags="0x0"/>
      <component glyphName="Y.loclGUA" x="0" y="0" flags="0x0"/>
      <component glyphName="gravecomb.case" x="316" y="0" flags="0x0"/>
    </TTGlyph>
    <TTGlyph name="Z" xMin="42" yMin="0" xMax="480" yMax="688">
      <contour>
        <pt x="42" y="74" on="1"/>
        <pt x="367" y="610" on="1"/>
        <pt x="51" y="610" on="1"/>
        <pt x="51" y="688" on="1"/>
        <pt x="476" y="688" on="1"/>
        <pt x="476" y="615" on="1"/>
        <pt x="150" y="78" on="1"/>
        <pt x="480" y="78" on="1"/>
        <pt x="480" y="0" on="1"/>
        <pt x="42" y="0" on="1"/>
      </contour>
    </TTGlyph>
    <TTGlyph name="Zacute" xMin="42" yMin="0" xMax="480" yMax="888">
      <component glyphName=".ttfautohint" x="42" y="0" flags="0x0"/>
      <component glyphName="Z" x="0" y="0" flags="0x0"/>
      <component glyphName="acutecomb.case" x="402" y="0" flags="0x0"/>
    </TTGlyph>
    <TTGlyph name="Zacute.loclPLK" xMin="42" yMin="0" xMax="480" yMax="888">
      <component glyphName=".ttfautohint" x="42" y="0" flags="0x0"/>
      <component glyphName="Z" x="0" y="0" flags="0x0"/>
      <component glyphName="acute.case.loclPLK" x="208" y="0" flags="0x0"/>
    </TTGlyph>
    <TTGlyph name="Zcaron" xMin="42" yMin="0" xMax="480" yMax="889">
      <component glyphName=".ttfautohint" x="42" y="0" flags="0x0"/>
      <component glyphName="Z" x="0" y="0" flags="0x0"/>
      <component glyphName="caron" x="121" y="146" flags="0x4"/>
    </TTGlyph>
    <TTGlyph name="Zdotaccent" xMin="42" yMin="0" xMax="480" yMax="875">
      <component glyphName=".ttfautohint" x="42" y="0" flags="0x0"/>
      <component glyphName="Z" x="0" y="0" flags="0x0"/>
      <component glyphName="uni0307.case" x="318" y="0" flags="0x0"/>
    </TTGlyph>
    <TTGlyph name="a" xMin="44" yMin="-8" xMax="427" yMax="518">
      <contour>
        <pt x="114" y="-8" on="0"/>
        <pt x="44" y="59" on="0"/>
        <pt x="44" y="140" on="1"/>
        <pt x="44" y="199" on="0"/>
        <pt x="70" y="267" on="0"/>
        <pt x="132" y="297" on="0"/>
        <pt x="188" y="297" on="1"/>
        <pt x="212" y="297" on="0"/>
        <pt x="342" y="292" on="1"/>
        <pt x="342" y="321" on="1"/>
        <pt x="342" y="381" on="0"/>
        <pt x="323" y="431" on="0"/>
        <pt x="271" y="445" on="0"/>
        <pt x="210" y="445" on="1"/>
        <pt x="182" y="445" on="0"/>
        <pt x="95" y="438" on="0"/>
        <pt x="72" y="434" on="1"/>
        <pt x="72" y="504" on="1"/>
        <pt x="154" y="518" on="0"/>
        <pt x="237" y="518" on="1"/>
        <pt x="317" y="518" on="0"/>
        <pt x="398" y="481" on="0"/>
        <pt x="427" y="398" on="0"/>
        <pt x="427" y="320" on="1"/>
        <pt x="427" y="0" on="1"/>
        <pt x="351" y="0" on="1"/>
        <pt x="347" y="68" on="1"/>
        <pt x="341" y="68" on="1"/>
        <pt x="323" y="23" on="0"/>
        <pt x="242" y="-8" on="0"/>
        <pt x="189" y="-8" on="1"/>
      </contour>
      <contour>
        <pt x="260" y="66" on="0"/>
        <pt x="308" y="83" on="0"/>
        <pt x="322" y="107" on="1"/>
        <pt x="342" y="142" on="0"/>
        <pt x="342" y="208" on="1"/>
        <pt x="342" y="231" on="1"/>
        <pt x="208" y="231" on="1"/>
        <pt x="174" y="231" on="0"/>
        <pt x="141" y="219" on="0"/>
        <pt x="128" y="184" on="0"/>
        <pt x="128" y="147" on="1"/>
        <pt x="128" y="112" on="0"/>
        <pt x="143" y="78" on="0"/>
        <pt x="182" y="66" on="0"/>
        <pt x="223" y="66" on="1"/>
      </contour>
    </TTGlyph>
    <TTGlyph name="aacute" xMin="44" yMin="-8" xMax="427" yMax="743">
      <component glyphName=".ttfautohint" x="44" y="0" flags="0x0"/>
      <component glyphName="a" x="0" y="0" flags="0x0"/>
      <component glyphName="acute" x="193" y="0" flags="0x0"/>
    </TTGlyph>
    <TTGlyph name="abreve" xMin="44" yMin="-8" xMax="427" yMax="743">
      <component glyphName=".ttfautohint" x="44" y="0" flags="0x0"/>
      <component glyphName="a" x="0" y="0" flags="0x0"/>
      <component glyphName="uni0306" x="390" y="0" flags="0x0"/>
    </TTGlyph>
    <TTGlyph name="acircumflex" xMin="44" yMin="-8" xMax="427" yMax="743">
      <component glyphName=".ttfautohint" x="44" y="0" flags="0x0"/>
      <component glyphName="a" x="0" y="0" flags="0x0"/>
      <component glyphName="circumflex" x="103" y="0" flags="0x0"/>
    </TTGlyph>
    <TTGlyph name="acute" xMin="13" yMin="602" xMax="180" yMax="743">
      <contour>
        <pt x="13" y="607" on="1"/>
        <pt x="91" y="743" on="1"/>
        <pt x="180" y="743" on="1"/>
        <pt x="180" y="738" on="1"/>
        <pt x="77" y="602" on="1"/>
        <pt x="13" y="602" on="1"/>
      </contour>
    </TTGlyph>
    <TTGlyph name="acute.case.loclPLK" xMin="13" yMin="747" xMax="141" yMax="888">
      <contour>
        <pt x="13" y="752" on="1"/>
        <pt x="51" y="888" on="1"/>
        <pt x="141" y="888" on="1"/>
        <pt x="141" y="883" on="1"/>
        <pt x="77" y="747" on="1"/>
        <pt x="13" y="747" on="1"/>
      </contour>
    </TTGlyph>
    <TTGlyph name="acute.loclPLK" xMin="13" yMin="602" xMax="141" yMax="743">
      <contour>
        <pt x="13" y="607" on="1"/>
        <pt x="51" y="743" on="1"/>
        <pt x="141" y="743" on="1"/>
        <pt x="141" y="738" on="1"/>
        <pt x="77" y="602" on="1"/>
        <pt x="13" y="602" on="1"/>
      </contour>
    </TTGlyph>
    <TTGlyph name="acutecomb" xMin="-181" yMin="602" xMax="-14" yMax="743">
      <contour>
        <pt x="-181" y="607" on="1"/>
        <pt x="-103" y="743" on="1"/>
        <pt x="-14" y="743" on="1"/>
        <pt x="-14" y="738" on="1"/>
        <pt x="-117" y="602" on="1"/>
        <pt x="-181" y="602" on="1"/>
      </contour>
    </TTGlyph>
    <TTGlyph name="acutecomb.case" xMin="-181" yMin="747" xMax="-14" yMax="888">
      <contour>
        <pt x="-181" y="752" on="1"/>
        <pt x="-103" y="888" on="1"/>
        <pt x="-14" y="888" on="1"/>
        <pt x="-14" y="883" on="1"/>
        <pt x="-117" y="747" on="1"/>
        <pt x="-181" y="747" on="1"/>
      </contour>
    </TTGlyph>
    <TTGlyph name="adieresis" xMin="44" yMin="-8" xMax="427" yMax="728">
      <component glyphName=".ttfautohint" x="44" y="0" flags="0x0"/>
      <component glyphName="a" x="0" y="0" flags="0x0"/>
      <component glyphName="dieresis" x="100" y="-2" flags="0x4"/>
    </TTGlyph>
    <TTGlyph name="ae" xMin="44" yMin="-8" xMax="728" yMax="518">
      <contour>
        <pt x="728" y="227" on="1"/>
        <pt x="427" y="227" on="1"/>
        <pt x="427" y="154" on="0"/>
        <pt x="443" y="91" on="0"/>
        <pt x="500" y="65" on="0"/>
        <pt x="567" y="65" on="1"/>
        <pt x="627" y="65" on="0"/>
        <pt x="711" y="76" on="1"/>
        <pt x="711" y="6" on="1"/>
        <pt x="683" y="0" on="0"/>
        <pt x="592" y="-8" on="0"/>
        <pt x="550" y="-8" on="1"/>
        <pt x="477" y="-8" on="0"/>
        <pt x="394" y="25" on="0"/>
        <pt x="374" y="65" on="1"/>
        <pt x="350" y="21" on="0"/>
        <pt x="261" y="-8" on="0"/>
        <pt x="203" y="-8" on="1"/>
        <pt x="119" y="-8" on="0"/>
        <pt x="44" y="58" on="0"/>
        <pt x="44" y="140" on="1"/>
        <pt x="44" y="198" on="0"/>
        <pt x="70" y="264" on="0"/>
        <pt x="132" y="294" on="0"/>
        <pt x="188" y="294" on="1"/>
        <pt x="342" y="293" on="1"/>
        <pt x="342" y="321" on="1"/>
        <pt x="342" y="381" on="0"/>
        <pt x="323" y="431" on="0"/>
        <pt x="271" y="445" on="0"/>
        <pt x="210" y="445" on="1"/>
        <pt x="183" y="445" on="0"/>
        <pt x="96" y="438" on="0"/>
        <pt x="72" y="434" on="1"/>
        <pt x="72" y="504" on="1"/>
        <pt x="158" y="518" on="0"/>
        <pt x="237" y="518" on="1"/>
        <pt x="296" y="518" on="0"/>
        <pt x="368" y="494" on="0"/>
        <pt x="388" y="466" on="1"/>
        <pt x="410" y="493" on="0"/>
        <pt x="485" y="518" on="0"/>
        <pt x="544" y="518" on="1"/>
        <pt x="630" y="518" on="0"/>
        <pt x="707" y="468" on="0"/>
        <pt x="728" y="365" on="0"/>
        <pt x="728" y="256" on="1"/>
      </contour>
      <contour>
        <pt x="489" y="445" on="0"/>
        <pt x="442" y="421" on="0"/>
        <pt x="427" y="360" on="0"/>
        <pt x="427" y="293" on="1"/>
        <pt x="645" y="293" on="1"/>
        <pt x="645" y="297" on="1"/>
        <pt x="645" y="364" on="0"/>
        <pt x="629" y="425" on="0"/>
        <pt x="587" y="445" on="0"/>
        <pt x="542" y="445" on="1"/>
      </contour>
      <contour>
        <pt x="342" y="227" on="1"/>
        <pt x="207" y="227" on="1"/>
        <pt x="172" y="227" on="0"/>
        <pt x="140" y="216" on="0"/>
        <pt x="127" y="183" on="0"/>
        <pt x="127" y="147" on="1"/>
        <pt x="127" y="111" on="0"/>
        <pt x="142" y="77" on="0"/>
        <pt x="181" y="65" on="0"/>
        <pt x="223" y="65" on="1"/>
        <pt x="261" y="65" on="0"/>
        <pt x="310" y="84" on="0"/>
        <pt x="323" y="110" on="1"/>
        <pt x="342" y="145" on="0"/>
        <pt x="342" y="207" on="1"/>
      </contour>
    </TTGlyph>
    <TTGlyph name="aeacute" xMin="44" yMin="-8" xMax="728" yMax="743">
      <component glyphName=".ttfautohint" x="44" y="0" flags="0x0"/>
      <component glyphName="ae" x="0" y="0" flags="0x0"/>
      <component glyphName="acutecomb" x="534" y="0" flags="0x0"/>
    </TTGlyph>
    <TTGlyph name="agrave" xMin="44" yMin="-8" xMax="427" yMax="743">
      <component glyphName=".ttfautohint" x="44" y="0" flags="0x0"/>
      <component glyphName="a" x="0" y="0" flags="0x0"/>
      <component glyphName="grave" x="114" y="0" flags="0x0"/>
    </TTGlyph>
    <TTGlyph name="amacron" xMin="44" yMin="-8" xMax="427" yMax="742">
      <component glyphName=".ttfautohint" x="44" y="0" flags="0x0"/>
      <component glyphName="a" x="0" y="0" flags="0x0"/>
      <component glyphName="uni0304" x="418" y="0" flags="0x0"/>
    </TTGlyph>
    <TTGlyph name="ampersand" xMin="57" yMin="-8" xMax="609" yMax="696">
      <contour>
        <pt x="609" y="385" on="1"/>
        <pt x="609" y="311" on="1"/>
        <pt x="510" y="311" on="1"/>
        <pt x="510" y="10" on="1"/>
        <pt x="474" y="3" on="0"/>
        <pt x="363" y="-8" on="0"/>
        <pt x="315" y="-8" on="1"/>
        <pt x="208" y="-8" on="0"/>
        <pt x="96" y="36" on="0"/>
        <pt x="57" y="117" on="0"/>
        <pt x="57" y="183" on="1"/>
        <pt x="57" y="263" on="0"/>
        <pt x="110" y="334" on="0"/>
        <pt x="168" y="349" on="1"/>
        <pt x="168" y="353" on="1"/>
        <pt x="113" y="367" on="0"/>
        <pt x="63" y="442" on="0"/>
        <pt x="63" y="515" on="1"/>
        <pt x="63" y="575" on="0"/>
        <pt x="105" y="653" on="0"/>
        <pt x="216" y="696" on="0"/>
        <pt x="315" y="696" on="1"/>
        <pt x="358" y="696" on="0"/>
        <pt x="466" y="685" on="0"/>
        <pt x="507" y="677" on="1"/>
        <pt x="507" y="609" on="1"/>
        <pt x="468" y="615" on="0"/>
        <pt x="373" y="623" on="0"/>
        <pt x="340" y="623" on="1"/>
        <pt x="256" y="623" on="0"/>
        <pt x="175" y="600" on="0"/>
        <pt x="149" y="551" on="0"/>
        <pt x="149" y="502" on="1"/>
        <pt x="149" y="465" on="0"/>
        <pt x="164" y="416" on="0"/>
        <pt x="215" y="385" on="0"/>
        <pt x="265" y="385" on="1"/>
        <pt x="339" y="385" on="1"/>
        <pt x="339" y="311" on="1"/>
        <pt x="265" y="311" on="1"/>
        <pt x="212" y="311" on="0"/>
        <pt x="161" y="284" on="0"/>
        <pt x="144" y="233" on="0"/>
        <pt x="144" y="187" on="1"/>
        <pt x="144" y="135" on="0"/>
        <pt x="179" y="82" on="0"/>
        <pt x="252" y="64" on="0"/>
        <pt x="319" y="64" on="1"/>
        <pt x="380" y="64" on="0"/>
        <pt x="425" y="72" on="1"/>
        <pt x="425" y="385" on="1"/>
      </contour>
    </TTGlyph>
    <TTGlyph name="aogonek" xMin="44" yMin="-196" xMax="430" yMax="518">
      <contour>
        <pt x="430" y="-141" on="1"/>
        <pt x="430" y="-194" on="1"/>
        <pt x="396" y="-196" on="0"/>
        <pt x="390" y="-196" on="1"/>
        <pt x="340" y="-196" on="0"/>
        <pt x="295" y="-154" on="0"/>
        <pt x="295" y="-120" on="1"/>
        <pt x="295" y="-90" on="0"/>
        <pt x="328" y="-27" on="0"/>
        <pt x="356" y="0" on="1"/>
        <pt x="350" y="0" on="1"/>
        <pt x="346" y="70" on="1"/>
        <pt x="341" y="70" on="1"/>
        <pt x="323" y="23" on="0"/>
        <pt x="243" y="-8" on="0"/>
        <pt x="191" y="-8" on="1"/>
        <pt x="113" y="-8" on="0"/>
        <pt x="44" y="58" on="0"/>
        <pt x="44" y="141" on="1"/>
        <pt x="44" y="200" on="0"/>
        <pt x="69" y="265" on="0"/>
        <pt x="130" y="294" on="0"/>
        <pt x="186" y="294" on="1"/>
        <pt x="238" y="294" on="0"/>
        <pt x="342" y="290" on="1"/>
        <pt x="342" y="321" on="1"/>
        <pt x="342" y="381" on="0"/>
        <pt x="323" y="431" on="0"/>
        <pt x="271" y="446" on="0"/>
        <pt x="210" y="446" on="1"/>
        <pt x="182" y="446" on="0"/>
        <pt x="97" y="440" on="0"/>
        <pt x="73" y="436" on="1"/>
        <pt x="73" y="504" on="1"/>
        <pt x="152" y="518" on="0"/>
        <pt x="237" y="518" on="1"/>
        <pt x="319" y="518" on="0"/>
        <pt x="399" y="482" on="0"/>
        <pt x="427" y="399" on="0"/>
        <pt x="427" y="320" on="1"/>
        <pt x="427" y="0" on="1"/>
        <pt x="405" y="-16" on="0"/>
        <pt x="368" y="-75" on="0"/>
        <pt x="368" y="-102" on="1"/>
        <pt x="368" y="-142" on="0"/>
        <pt x="413" y="-142" on="1"/>
      </contour>
      <contour>
        <pt x="342" y="233" on="1"/>
        <pt x="208" y="233" on="1"/>
        <pt x="173" y="233" on="0"/>
        <pt x="140" y="221" on="0"/>
        <pt x="127" y="186" on="0"/>
        <pt x="127" y="148" on="1"/>
        <pt x="127" y="112" on="0"/>
        <pt x="142" y="77" on="0"/>
        <pt x="182" y="64" on="0"/>
        <pt x="223" y="64" on="1"/>
        <pt x="262" y="64" on="0"/>
        <pt x="312" y="80" on="0"/>
        <pt x="324" y="104" on="1"/>
        <pt x="342" y="140" on="0"/>
        <pt x="342" y="205" on="1"/>
      </contour>
    </TTGlyph>
    <TTGlyph name="approxequal" xMin="62" yMin="100" xMax="408" yMax="407">
      <contour>
        <pt x="62" y="326" on="0"/>
        <pt x="72" y="372" on="0"/>
        <pt x="104" y="396" on="0"/>
        <pt x="137" y="396" on="1"/>
        <pt x="161" y="396" on="0"/>
        <pt x="208" y="385" on="0"/>
        <pt x="247" y="373" on="1"/>
        <pt x="303" y="355" on="0"/>
        <pt x="328" y="355" on="1"/>
        <pt x="347" y="355" on="0"/>
        <pt x="358" y="376" on="0"/>
        <pt x="358" y="407" on="1"/>
        <pt x="408" y="407" on="1"/>
        <pt x="408" y="363" on="0"/>
        <pt x="398" y="317" on="0"/>
        <pt x="367" y="293" on="0"/>
        <pt x="334" y="293" on="1"/>
        <pt x="292" y="293" on="0"/>
        <pt x="223" y="316" on="1"/>
        <pt x="195" y="325" on="0"/>
        <pt x="159" y="334" on="0"/>
        <pt x="143" y="334" on="1"/>
        <pt x="123" y="334" on="0"/>
        <pt x="112" y="313" on="0"/>
        <pt x="112" y="282" on="1"/>
        <pt x="62" y="282" on="1"/>
      </contour>
      <contour>
        <pt x="62" y="144" on="0"/>
        <pt x="72" y="191" on="0"/>
        <pt x="104" y="215" on="0"/>
        <pt x="137" y="215" on="1"/>
        <pt x="161" y="215" on="0"/>
        <pt x="208" y="204" on="0"/>
        <pt x="247" y="192" on="1"/>
        <pt x="303" y="174" on="0"/>
        <pt x="328" y="174" on="1"/>
        <pt x="347" y="174" on="0"/>
        <pt x="358" y="195" on="0"/>
        <pt x="358" y="226" on="1"/>
        <pt x="408" y="226" on="1"/>
        <pt x="408" y="182" on="0"/>
        <pt x="398" y="135" on="0"/>
        <pt x="367" y="111" on="0"/>
        <pt x="334" y="111" on="1"/>
        <pt x="309" y="111" on="0"/>
        <pt x="258" y="123" on="0"/>
        <pt x="223" y="135" on="1"/>
        <pt x="195" y="144" on="0"/>
        <pt x="159" y="153" on="0"/>
        <pt x="143" y="153" on="1"/>
        <pt x="123" y="153" on="0"/>
        <pt x="112" y="131" on="0"/>
        <pt x="112" y="100" on="1"/>
        <pt x="62" y="100" on="1"/>
      </contour>
    </TTGlyph>
    <TTGlyph name="aring" xMin="44" yMin="-8" xMax="427" yMax="801">
      <component glyphName=".ttfautohint" x="44" y="0" flags="0x0"/>
      <component glyphName="a" x="0" y="0" flags="0x0"/>
      <component glyphName="ring" x="115" y="-11" flags="0x4"/>
    </TTGlyph>
    <TTGlyph name="aringacute" xMin="44" yMin="-8" xMax="427" yMax="985">
      <component glyphName=".ttfautohint" x="44" y="0" flags="0x0"/>
      <component glyphName="a" x="0" y="0" flags="0x0"/>
      <component glyphName="uni030A" x="384" y="0" flags="0x0"/>
      <component glyphName="acutecomb" x="394" y="242" flags="0x4"/>
    </TTGlyph>
    <TTGlyph name="arrowboth" xMin="55" yMin="174" xMax="828" yMax="435">
      <contour>
        <pt x="55" y="304" on="1"/>
        <pt x="328" y="435" on="1"/>
        <pt x="291" y="338" on="1"/>
        <pt x="592" y="338" on="1"/>
        <pt x="555" y="435" on="1"/>
        <pt x="828" y="304" on="1"/>
        <pt x="555" y="174" on="1"/>
        <pt x="592" y="270" on="1"/>
        <pt x="291" y="270" on="1"/>
        <pt x="328" y="174" on="1"/>
      </contour>
    </TTGlyph>
    <TTGlyph name="arrowdown" xMin="67" yMin="-85" xMax="328" yMax="688">
      <contour>
        <pt x="67" y="188" on="1"/>
        <pt x="164" y="151" on="1"/>
        <pt x="164" y="688" on="1"/>
        <pt x="232" y="688" on="1"/>
        <pt x="232" y="151" on="1"/>
        <pt x="328" y="188" on="1"/>
        <pt x="198" y="-85" on="1"/>
      </contour>
    </TTGlyph>
    <TTGlyph name="arrowdown.ss01" xMin="30" yMin="171" xMax="315" yMax="456">
      <contour>
        <pt x="30" y="456" on="1"/>
        <pt x="315" y="456" on="1"/>
        <pt x="173" y="171" on="1"/>
      </contour>
    </TTGlyph>
    <TTGlyph name="arrowleft" xMin="55" yMin="174" xMax="828" yMax="435">
      <contour>
        <pt x="324" y="174" on="1"/>
        <pt x="55" y="304" on="1"/>
        <pt x="324" y="435" on="1"/>
        <pt x="287" y="338" on="1"/>
        <pt x="828" y="338" on="1"/>
        <pt x="828" y="270" on="1"/>
        <pt x="287" y="270" on="1"/>
      </contour>
    </TTGlyph>
    <TTGlyph name="arrowleft.ss01" xMin="30" yMin="201" xMax="315" yMax="486">
      <contour>
        <pt x="30" y="343" on="1"/>
        <pt x="315" y="486" on="1"/>
        <pt x="315" y="201" on="1"/>
      </contour>
    </TTGlyph>
    <TTGlyph name="arrowright" xMin="55" yMin="174" xMax="828" yMax="435">
      <contour>
        <pt x="592" y="270" on="1"/>
        <pt x="55" y="270" on="1"/>
        <pt x="55" y="338" on="1"/>
        <pt x="592" y="338" on="1"/>
        <pt x="555" y="435" on="1"/>
        <pt x="828" y="304" on="1"/>
        <pt x="555" y="174" on="1"/>
      </contour>
    </TTGlyph>
    <TTGlyph name="arrowright.ss01" xMin="48" yMin="201" xMax="333" yMax="486">
      <contour>
        <pt x="48" y="486" on="1"/>
        <pt x="333" y="343" on="1"/>
        <pt x="48" y="201" on="1"/>
      </contour>
    </TTGlyph>
    <TTGlyph name="arrowup" xMin="67" yMin="-82" xMax="328" yMax="691">
      <contour>
        <pt x="164" y="455" on="1"/>
        <pt x="67" y="418" on="1"/>
        <pt x="198" y="691" on="1"/>
        <pt x="328" y="418" on="1"/>
        <pt x="232" y="455" on="1"/>
        <pt x="232" y="-82" on="1"/>
        <pt x="164" y="-82" on="1"/>
      </contour>
    </TTGlyph>
    <TTGlyph name="arrowup.ss01" xMin="30" yMin="231" xMax="315" yMax="516">
      <contour>
        <pt x="173" y="516" on="1"/>
        <pt x="315" y="231" on="1"/>
        <pt x="30" y="231" on="1"/>
      </contour>
    </TTGlyph>
    <TTGlyph name="arrowupdn" xMin="67" yMin="-85" xMax="328" yMax="696">
      <contour>
        <pt x="67" y="188" on="1"/>
        <pt x="164" y="151" on="1"/>
        <pt x="164" y="460" on="1"/>
        <pt x="67" y="423" on="1"/>
        <pt x="198" y="696" on="1"/>
        <pt x="328" y="423" on="1"/>
        <pt x="232" y="460" on="1"/>
        <pt x="232" y="151" on="1"/>
        <pt x="328" y="188" on="1"/>
        <pt x="198" y="-85" on="1"/>
      </contour>
    </TTGlyph>
    <TTGlyph name="arrowupdnbse" xMin="55" yMin="-186" xMax="340" yMax="696">
      <contour>
        <pt x="67" y="188" on="1"/>
        <pt x="164" y="151" on="1"/>
        <pt x="164" y="460" on="1"/>
        <pt x="67" y="423" on="1"/>
        <pt x="198" y="696" on="1"/>
        <pt x="328" y="423" on="1"/>
        <pt x="232" y="460" on="1"/>
        <pt x="232" y="151" on="1"/>
        <pt x="328" y="188" on="1"/>
        <pt x="198" y="-85" on="1"/>
      </contour>
      <contour>
        <pt x="55" y="-123" on="1"/>
        <pt x="340" y="-123" on="1"/>
        <pt x="340" y="-186" on="1"/>
        <pt x="55" y="-186" on="1"/>
      </contour>
    </TTGlyph>
    <TTGlyph name="asciicircum" xMin="43" yMin="459" xMax="387" yMax="749">
      <contour>
        <pt x="216" y="688" on="1"/>
        <pt x="115" y="459" on="1"/>
        <pt x="43" y="459" on="1"/>
        <pt x="177" y="749" on="1"/>
        <pt x="255" y="749" on="1"/>
        <pt x="387" y="459" on="1"/>
        <pt x="316" y="459" on="1"/>
      </contour>
    </TTGlyph>
    <TTGlyph name="asciitilde" xMin="62" yMin="240" xMax="408" yMax="365">
      <contour>
        <pt x="408" y="321" on="0"/>
        <pt x="398" y="275" on="0"/>
        <pt x="367" y="251" on="0"/>
        <pt x="334" y="251" on="1"/>
        <pt x="292" y="251" on="0"/>
        <pt x="223" y="274" on="1"/>
        <pt x="195" y="283" on="0"/>
        <pt x="159" y="292" on="0"/>
        <pt x="143" y="292" on="1"/>
        <pt x="123" y="292" on="0"/>
        <pt x="112" y="271" on="0"/>
        <pt x="112" y="240" on="1"/>
        <pt x="62" y="240" on="1"/>
        <pt x="62" y="284" on="0"/>
        <pt x="72" y="330" on="0"/>
        <pt x="104" y="354" on="0"/>
        <pt x="137" y="354" on="1"/>
        <pt x="161" y="354" on="0"/>
        <pt x="208" y="343" on="0"/>
        <pt x="247" y="331" on="1"/>
        <pt x="268" y="324" on="0"/>
        <pt x="312" y="313" on="0"/>
        <pt x="328" y="313" on="1"/>
        <pt x="347" y="313" on="0"/>
        <pt x="358" y="335" on="0"/>
        <pt x="358" y="365" on="1"/>
        <pt x="408" y="365" on="1"/>
      </contour>
    </TTGlyph>
    <TTGlyph name="asterisk" xMin="47" yMin="339" xMax="378" yMax="688">
      <contour>
        <pt x="241" y="339" on="1"/>
        <pt x="184" y="339" on="1"/>
        <pt x="192" y="477" on="1"/>
        <pt x="76" y="401" on="1"/>
        <pt x="47" y="452" on="1"/>
        <pt x="171" y="513" on="1"/>
        <pt x="47" y="576" on="1"/>
        <pt x="76" y="626" on="1"/>
        <pt x="192" y="549" on="1"/>
        <pt x="184" y="688" on="1"/>
        <pt x="241" y="688" on="1"/>
        <pt x="232" y="550" on="1"/>
        <pt x="349" y="626" on="1"/>
        <pt x="378" y="576" on="1"/>
        <pt x="254" y="513" on="1"/>
        <pt x="378" y="452" on="1"/>
        <pt x="349" y="401" on="1"/>
        <pt x="233" y="477" on="1"/>
      </contour>
    </TTGlyph>
    <TTGlyph name="asterisk.ss02" xMin="35" yMin="-14" xMax="782" yMax="705">
      <contour>
        <pt x="269" y="262" on="1"/>
        <pt x="35" y="436" on="1"/>
        <pt x="322" y="436" on="1"/>
        <pt x="409" y="705" on="1"/>
        <pt x="494" y="436" on="1"/>
        <pt x="782" y="436" on="1"/>
        <pt x="550" y="262" on="1"/>
        <pt x="640" y="-14" on="1"/>
        <pt x="409" y="156" on="1"/>
        <pt x="178" y="-14" on="1"/>
      </contour>
    </TTGlyph>
    <TTGlyph name="at" xMin="72" yMin="-108" xMax="741" yMax="696">
      <contour>
        <pt x="237" y="-108" on="0"/>
        <pt x="105" y="-53" on="0"/>
        <pt x="72" y="97" on="0"/>
        <pt x="72" y="294" on="1"/>
        <pt x="72" y="491" on="0"/>
        <pt x="105" y="641" on="0"/>
        <pt x="237" y="696" on="0"/>
        <pt x="406" y="696" on="1"/>
        <pt x="575" y="696" on="0"/>
        <pt x="707" y="641" on="0"/>
        <pt x="741" y="491" on="0"/>
        <pt x="741" y="294" on="1"/>
        <pt x="741" y="189" on="0"/>
        <pt x="719" y="98" on="0"/>
        <pt x="675" y="75" on="0"/>
        <pt x="626" y="75" on="1"/>
        <pt x="499" y="75" on="1"/>
        <pt x="495" y="133" on="1"/>
        <pt x="490" y="133" on="1"/>
        <pt x="474" y="94" on="0"/>
        <pt x="411" y="68" on="0"/>
        <pt x="368" y="68" on="1"/>
        <pt x="301" y="68" on="0"/>
        <pt x="243" y="124" on="0"/>
        <pt x="243" y="196" on="1"/>
        <pt x="243" y="246" on="0"/>
        <pt x="264" y="302" on="0"/>
        <pt x="314" y="326" on="0"/>
        <pt x="361" y="326" on="1"/>
        <pt x="450" y="324" on="1"/>
        <pt x="492" y="323" on="1"/>
        <pt x="492" y="350" on="1"/>
        <pt x="492" y="400" on="0"/>
        <pt x="477" y="441" on="0"/>
        <pt x="436" y="453" on="0"/>
        <pt x="385" y="453" on="1"/>
        <pt x="360" y="453" on="0"/>
        <pt x="285" y="448" on="0"/>
        <pt x="268" y="445" on="1"/>
        <pt x="268" y="506" on="1"/>
        <pt x="338" y="518" on="0"/>
        <pt x="409" y="518" on="1"/>
        <pt x="478" y="518" on="0"/>
        <pt x="546" y="486" on="0"/>
        <pt x="569" y="417" on="0"/>
        <pt x="569" y="349" on="1"/>
        <pt x="569" y="119" on="1"/>
        <pt x="635" y="119" on="1"/>
        <pt x="660" y="119" on="0"/>
        <pt x="681" y="136" on="0"/>
        <pt x="692" y="209" on="0"/>
        <pt x="692" y="294" on="1"/>
        <pt x="692" y="444" on="0"/>
        <pt x="679" y="571" on="0"/>
        <pt x="626" y="635" on="0"/>
        <pt x="564" y="644" on="1"/>
        <pt x="518" y="651" on="0"/>
        <pt x="405" y="651" on="1"/>
        <pt x="304" y="651" on="0"/>
        <pt x="258" y="645" on="1"/>
        <pt x="191" y="637" on="0"/>
        <pt x="134" y="576" on="0"/>
        <pt x="119" y="445" on="0"/>
        <pt x="119" y="294" on="1"/>
        <pt x="119" y="133" on="0"/>
        <pt x="137" y="3" on="0"/>
        <pt x="207" y="-54" on="0"/>
        <pt x="292" y="-60" on="1"/>
        <pt x="331" y="-63" on="0"/>
        <pt x="406" y="-63" on="1"/>
        <pt x="452" y="-63" on="0"/>
        <pt x="542" y="-61" on="0"/>
        <pt x="569" y="-59" on="1"/>
        <pt x="569" y="-106" on="1"/>
        <pt x="532" y="-108" on="0"/>
        <pt x="406" y="-108" on="1"/>
      </contour>
      <contour>
        <pt x="433" y="130" on="0"/>
        <pt x="475" y="150" on="0"/>
        <pt x="492" y="199" on="0"/>
        <pt x="492" y="245" on="1"/>
        <pt x="492" y="273" on="1"/>
        <pt x="381" y="273" on="1"/>
        <pt x="353" y="273" on="0"/>
        <pt x="327" y="263" on="0"/>
        <pt x="317" y="234" on="0"/>
        <pt x="317" y="202" on="1"/>
        <pt x="317" y="171" on="0"/>
        <pt x="329" y="142" on="0"/>
        <pt x="361" y="130" on="0"/>
        <pt x="394" y="130" on="1"/>
      </contour>
    </TTGlyph>
    <TTGlyph name="atilde" xMin="44" yMin="-8" xMax="427" yMax="743">
      <component glyphName=".ttfautohint" x="44" y="0" flags="0x0"/>
      <component glyphName="a" x="0" y="0" flags="0x0"/>
      <component glyphName="tilde" x="73" y="0" flags="0x0"/>
    </TTGlyph>
    <TTGlyph name="b" xMin="72" yMin="-8" xMax="467" yMax="743">
      <contour>
        <pt x="249" y="-8" on="0"/>
        <pt x="176" y="24" on="0"/>
        <pt x="159" y="70" on="1"/>
        <pt x="153" y="70" on="1"/>
        <pt x="149" y="0" on="1"/>
        <pt x="72" y="0" on="1"/>
        <pt x="72" y="743" on="1"/>
        <pt x="157" y="743" on="1"/>
        <pt x="157" y="448" on="1"/>
        <pt x="163" y="448" on="1"/>
        <pt x="180" y="486" on="0"/>
        <pt x="249" y="518" on="0"/>
        <pt x="304" y="518" on="1"/>
        <pt x="369" y="518" on="0"/>
        <pt x="439" y="472" on="0"/>
        <pt x="467" y="361" on="0"/>
        <pt x="467" y="255" on="1"/>
        <pt x="467" y="149" on="0"/>
        <pt x="438" y="37" on="0"/>
        <pt x="368" y="-8" on="0"/>
        <pt x="302" y="-8" on="1"/>
      </contour>
      <contour>
        <pt x="322" y="68" on="0"/>
        <pt x="366" y="92" on="0"/>
        <pt x="382" y="167" on="0"/>
        <pt x="382" y="255" on="1"/>
        <pt x="382" y="342" on="0"/>
        <pt x="366" y="417" on="0"/>
        <pt x="321" y="442" on="0"/>
        <pt x="269" y="442" on="1"/>
        <pt x="228" y="442" on="0"/>
        <pt x="182" y="418" on="0"/>
        <pt x="172" y="391" on="1"/>
        <pt x="163" y="368" on="0"/>
        <pt x="157" y="305" on="0"/>
        <pt x="157" y="255" on="1"/>
        <pt x="157" y="206" on="0"/>
        <pt x="163" y="145" on="0"/>
        <pt x="171" y="122" on="1"/>
        <pt x="181" y="93" on="0"/>
        <pt x="228" y="68" on="0"/>
        <pt x="269" y="68" on="1"/>
      </contour>
    </TTGlyph>
    <TTGlyph name="backslash" xMin="6" yMin="-55" xMax="324" yMax="743">
      <contour>
        <pt x="6" y="743" on="1"/>
        <pt x="84" y="743" on="1"/>
        <pt x="324" y="-55" on="1"/>
        <pt x="247" y="-55" on="1"/>
      </contour>
    </TTGlyph>
    <TTGlyph name="bar" xMin="88" yMin="-161" xMax="166" yMax="743">
      <contour>
        <pt x="88" y="743" on="1"/>
        <pt x="166" y="743" on="1"/>
        <pt x="166" y="-161" on="1"/>
        <pt x="88" y="-161" on="1"/>
      </contour>
    </TTGlyph>
    <TTGlyph name="bar.ss02" xMin="-1" yMin="0" xMax="499" yMax="696">
      <contour>
        <pt x="-1" y="696" on="1"/>
        <pt x="499" y="696" on="1"/>
        <pt x="499" y="0" on="1"/>
        <pt x="-1" y="0" on="1"/>
      </contour>
    </TTGlyph>
    <TTGlyph name="braceleft" xMin="24" yMin="-150" xMax="281" yMax="743">
      <contour>
        <pt x="195" y="-137" on="0"/>
        <pt x="146" y="-83" on="0"/>
        <pt x="112" y="-8" on="0"/>
        <pt x="112" y="33" on="1"/>
        <pt x="112" y="149" on="1"/>
        <pt x="112" y="271" on="0"/>
        <pt x="24" y="273" on="1"/>
        <pt x="24" y="319" on="1"/>
        <pt x="73" y="320" on="0"/>
        <pt x="112" y="391" on="0"/>
        <pt x="112" y="443" on="1"/>
        <pt x="112" y="559" on="1"/>
        <pt x="112" y="600" on="0"/>
        <pt x="146" y="676" on="0"/>
        <pt x="195" y="730" on="0"/>
        <pt x="217" y="743" on="1"/>
        <pt x="281" y="743" on="1"/>
        <pt x="245" y="709" on="0"/>
        <pt x="193" y="615" on="0"/>
        <pt x="193" y="566" on="1"/>
        <pt x="193" y="446" on="1"/>
        <pt x="193" y="322" on="0"/>
        <pt x="102" y="300" on="1"/>
        <pt x="102" y="293" on="1"/>
        <pt x="193" y="271" on="0"/>
        <pt x="193" y="146" on="1"/>
        <pt x="193" y="27" on="1"/>
        <pt x="193" y="-22" on="0"/>
        <pt x="245" y="-116" on="0"/>
        <pt x="281" y="-150" on="1"/>
        <pt x="217" y="-150" on="1"/>
      </contour>
    </TTGlyph>
    <TTGlyph name="braceright" xMin="18" yMin="-150" xMax="275" yMax="743">
      <contour>
        <pt x="53" y="-116" on="0"/>
        <pt x="107" y="-22" on="0"/>
        <pt x="107" y="27" on="1"/>
        <pt x="107" y="146" on="1"/>
        <pt x="107" y="271" on="0"/>
        <pt x="197" y="293" on="1"/>
        <pt x="197" y="300" on="1"/>
        <pt x="107" y="322" on="0"/>
        <pt x="107" y="446" on="1"/>
        <pt x="107" y="566" on="1"/>
        <pt x="107" y="615" on="0"/>
        <pt x="54" y="707" on="0"/>
        <pt x="18" y="743" on="1"/>
        <pt x="82" y="743" on="1"/>
        <pt x="104" y="730" on="0"/>
        <pt x="153" y="676" on="0"/>
        <pt x="187" y="600" on="0"/>
        <pt x="187" y="559" on="1"/>
        <pt x="187" y="443" on="1"/>
        <pt x="187" y="320" on="0"/>
        <pt x="275" y="319" on="1"/>
        <pt x="275" y="273" on="1"/>
        <pt x="187" y="271" on="0"/>
        <pt x="187" y="149" on="1"/>
        <pt x="187" y="33" on="1"/>
        <pt x="187" y="-8" on="0"/>
        <pt x="153" y="-83" on="0"/>
        <pt x="104" y="-137" on="0"/>
        <pt x="82" y="-150" on="1"/>
        <pt x="18" y="-150" on="1"/>
      </contour>
    </TTGlyph>
    <TTGlyph name="bracketleft" xMin="83" yMin="-150" xMax="266" yMax="743">
      <contour>
        <pt x="83" y="743" on="1"/>
        <pt x="266" y="743" on="1"/>
        <pt x="266" y="682" on="1"/>
        <pt x="163" y="678" on="1"/>
        <pt x="163" y="-85" on="1"/>
        <pt x="266" y="-89" on="1"/>
        <pt x="266" y="-150" on="1"/>
        <pt x="83" y="-150" on="1"/>
      </contour>
    </TTGlyph>
    <TTGlyph name="bracketleft.ss02" xMin="45" yMin="0" xMax="397" yMax="696">
      <contour>
        <pt x="45" y="0" on="1"/>
        <pt x="45" y="348" on="1"/>
        <pt x="45" y="449" on="0"/>
        <pt x="135" y="608" on="0"/>
        <pt x="295" y="696" on="0"/>
        <pt x="397" y="696" on="1"/>
        <pt x="397" y="0" on="1"/>
      </contour>
    </TTGlyph>
    <TTGlyph name="bracketright" xMin="36" yMin="-150" xMax="219" yMax="743">
      <contour>
        <pt x="36" y="-89" on="1"/>
        <pt x="139" y="-85" on="1"/>
        <pt x="139" y="678" on="1"/>
        <pt x="36" y="682" on="1"/>
        <pt x="36" y="743" on="1"/>
        <pt x="219" y="743" on="1"/>
        <pt x="219" y="-150" on="1"/>
        <pt x="36" y="-150" on="1"/>
      </contour>
    </TTGlyph>
    <TTGlyph name="bracketright.ss02" xMin="0" yMin="0" xMax="352" yMax="696">
      <contour>
        <pt x="0" y="696" on="1"/>
        <pt x="102" y="696" on="0"/>
        <pt x="262" y="608" on="0"/>
        <pt x="352" y="449" on="0"/>
        <pt x="352" y="348" on="1"/>
        <pt x="352" y="0" on="1"/>
        <pt x="0" y="0" on="1"/>
      </contour>
    </TTGlyph>
    <TTGlyph name="breve" xMin="13" yMin="601" xMax="269" yMax="743">
      <contour>
        <pt x="269" y="694" on="0"/>
        <pt x="253" y="636" on="0"/>
        <pt x="197" y="601" on="0"/>
        <pt x="140" y="601" on="1"/>
        <pt x="83" y="601" on="0"/>
        <pt x="28" y="635" on="0"/>
        <pt x="13" y="693" on="0"/>
        <pt x="13" y="743" on="1"/>
        <pt x="69" y="743" on="1"/>
        <pt x="69" y="707" on="0"/>
        <pt x="76" y="673" on="0"/>
        <pt x="106" y="654" on="0"/>
        <pt x="140" y="654" on="1"/>
        <pt x="174" y="654" on="0"/>
        <pt x="205" y="673" on="0"/>
        <pt x="213" y="708" on="0"/>
        <pt x="213" y="743" on="1"/>
        <pt x="269" y="743" on="1"/>
      </contour>
    </TTGlyph>
    <TTGlyph name="brokenbar" xMin="88" yMin="-161" xMax="166" yMax="743">
      <contour>
        <pt x="88" y="743" on="1"/>
        <pt x="166" y="743" on="1"/>
        <pt x="166" y="390" on="1"/>
        <pt x="88" y="390" on="1"/>
      </contour>
      <contour>
        <pt x="88" y="192" on="1"/>
        <pt x="166" y="192" on="1"/>
        <pt x="166" y="-161" on="1"/>
        <pt x="88" y="-161" on="1"/>
      </contour>
    </TTGlyph>
    <TTGlyph name="bullet" xMin="65" yMin="241" xMax="269" yMax="446">
      <contour>
        <pt x="269" y="294" on="0"/>
        <pt x="258" y="255" on="0"/>
        <pt x="217" y="241" on="0"/>
        <pt x="166" y="241" on="1"/>
        <pt x="116" y="241" on="0"/>
        <pt x="76" y="255" on="0"/>
        <pt x="65" y="294" on="0"/>
        <pt x="65" y="342" on="1"/>
        <pt x="65" y="391" on="0"/>
        <pt x="76" y="431" on="0"/>
        <pt x="116" y="446" on="0"/>
        <pt x="166" y="446" on="1"/>
        <pt x="217" y="446" on="0"/>
        <pt x="258" y="431" on="0"/>
        <pt x="269" y="392" on="0"/>
        <pt x="269" y="342" on="1"/>
      </contour>
    </TTGlyph>
    <TTGlyph name="bullet.ss02" xMin="40" yMin="-8" xMax="743" yMax="696">
      <contour>
        <pt x="343" y="421" on="0"/>
        <pt x="279" y="480" on="0"/>
        <pt x="279" y="533" on="1"/>
        <pt x="279" y="575" on="0"/>
        <pt x="318" y="650" on="0"/>
        <pt x="373" y="696" on="0"/>
        <pt x="392" y="696" on="1"/>
        <pt x="411" y="696" on="0"/>
        <pt x="465" y="650" on="0"/>
        <pt x="504" y="575" on="0"/>
        <pt x="504" y="533" on="1"/>
        <pt x="504" y="480" on="0"/>
        <pt x="441" y="421" on="0"/>
        <pt x="392" y="421" on="1"/>
      </contour>
      <contour>
        <pt x="415" y="481" on="0"/>
        <pt x="444" y="508" on="0"/>
        <pt x="444" y="533" on="1"/>
        <pt x="444" y="560" on="0"/>
        <pt x="426" y="607" on="0"/>
        <pt x="401" y="636" on="0"/>
        <pt x="392" y="636" on="1"/>
        <pt x="383" y="636" on="0"/>
        <pt x="358" y="607" on="0"/>
        <pt x="339" y="560" on="0"/>
        <pt x="339" y="533" on="1"/>
        <pt x="339" y="508" on="0"/>
        <pt x="369" y="481" on="0"/>
        <pt x="392" y="481" on="1"/>
      </contour>
      <contour>
        <pt x="161" y="231" on="0"/>
        <pt x="86" y="270" on="0"/>
        <pt x="40" y="325" on="0"/>
        <pt x="40" y="344" on="1"/>
        <pt x="40" y="363" on="0"/>
        <pt x="86" y="417" on="0"/>
        <pt x="161" y="456" on="0"/>
        <pt x="203" y="456" on="1"/>
        <pt x="256" y="456" on="0"/>
        <pt x="315" y="393" on="0"/>
        <pt x="315" y="344" on="1"/>
        <pt x="315" y="295" on="0"/>
        <pt x="256" y="231" on="0"/>
        <pt x="203" y="231" on="1"/>
      </contour>
      <contour>
        <pt x="527" y="231" on="0"/>
        <pt x="468" y="295" on="0"/>
        <pt x="468" y="344" on="1"/>
        <pt x="468" y="393" on="0"/>
        <pt x="527" y="456" on="0"/>
        <pt x="581" y="456" on="1"/>
        <pt x="622" y="456" on="0"/>
        <pt x="697" y="417" on="0"/>
        <pt x="743" y="363" on="0"/>
        <pt x="743" y="344" on="1"/>
        <pt x="743" y="325" on="0"/>
        <pt x="697" y="270" on="0"/>
        <pt x="623" y="231" on="0"/>
        <pt x="581" y="231" on="1"/>
      </contour>
      <contour>
        <pt x="228" y="291" on="0"/>
        <pt x="255" y="321" on="0"/>
        <pt x="255" y="344" on="1"/>
        <pt x="255" y="367" on="0"/>
        <pt x="228" y="396" on="0"/>
        <pt x="203" y="396" on="1"/>
        <pt x="176" y="396" on="0"/>
        <pt x="129" y="378" on="0"/>
        <pt x="100" y="353" on="0"/>
        <pt x="100" y="344" on="1"/>
        <pt x="100" y="335" on="0"/>
        <pt x="129" y="310" on="0"/>
        <pt x="176" y="291" on="0"/>
        <pt x="203" y="291" on="1"/>
      </contour>
      <contour>
        <pt x="607" y="291" on="0"/>
        <pt x="654" y="310" on="0"/>
        <pt x="683" y="335" on="0"/>
        <pt x="683" y="344" on="1"/>
        <pt x="683" y="353" on="0"/>
        <pt x="654" y="378" on="0"/>
        <pt x="607" y="396" on="0"/>
        <pt x="581" y="396" on="1"/>
        <pt x="556" y="396" on="0"/>
        <pt x="528" y="367" on="0"/>
        <pt x="528" y="344" on="1"/>
        <pt x="528" y="321" on="0"/>
        <pt x="556" y="291" on="0"/>
        <pt x="581" y="291" on="1"/>
      </contour>
      <contour>
        <pt x="373" y="-8" on="0"/>
        <pt x="318" y="38" on="0"/>
        <pt x="279" y="113" on="0"/>
        <pt x="279" y="155" on="1"/>
        <pt x="279" y="208" on="0"/>
        <pt x="343" y="267" on="0"/>
        <pt x="392" y="267" on="1"/>
        <pt x="441" y="267" on="0"/>
        <pt x="504" y="208" on="0"/>
        <pt x="504" y="155" on="1"/>
        <pt x="504" y="113" on="0"/>
        <pt x="465" y="38" on="0"/>
        <pt x="411" y="-8" on="0"/>
        <pt x="392" y="-8" on="1"/>
      </contour>
      <contour>
        <pt x="401" y="52" on="0"/>
        <pt x="426" y="81" on="0"/>
        <pt x="444" y="128" on="0"/>
        <pt x="444" y="155" on="1"/>
        <pt x="444" y="180" on="0"/>
        <pt x="415" y="207" on="0"/>
        <pt x="392" y="207" on="1"/>
        <pt x="369" y="207" on="0"/>
        <pt x="339" y="180" on="0"/>
        <pt x="339" y="155" on="1"/>
        <pt x="339" y="128" on="0"/>
        <pt x="358" y="81" on="0"/>
        <pt x="383" y="52" on="0"/>
        <pt x="392" y="52" on="1"/>
      </contour>
    </TTGlyph>
    <TTGlyph name="c" xMin="54" yMin="-8" xMax="365" yMax="518">
      <contour>
        <pt x="341" y="0" on="0"/>
        <pt x="271" y="-8" on="0"/>
        <pt x="241" y="-8" on="1"/>
        <pt x="158" y="-8" on="0"/>
        <pt x="78" y="48" on="0"/>
        <pt x="54" y="155" on="0"/>
        <pt x="54" y="254" on="1"/>
        <pt x="54" y="355" on="0"/>
        <pt x="82" y="465" on="0"/>
        <pt x="161" y="518" on="0"/>
        <pt x="238" y="518" on="1"/>
        <pt x="269" y="518" on="0"/>
        <pt x="340" y="510" on="0"/>
        <pt x="362" y="504" on="1"/>
        <pt x="362" y="435" on="1"/>
        <pt x="310" y="445" on="0"/>
        <pt x="259" y="445" on="1"/>
        <pt x="205" y="445" on="0"/>
        <pt x="156" y="416" on="0"/>
        <pt x="139" y="339" on="0"/>
        <pt x="139" y="255" on="1"/>
        <pt x="139" y="170" on="0"/>
        <pt x="156" y="93" on="0"/>
        <pt x="206" y="65" on="0"/>
        <pt x="261" y="65" on="1"/>
        <pt x="313" y="65" on="0"/>
        <pt x="365" y="75" on="1"/>
        <pt x="365" y="5" on="1"/>
      </contour>
    </TTGlyph>
    <TTGlyph name="cacute" xMin="54" yMin="-8" xMax="365" yMax="743">
      <component glyphName=".ttfautohint" x="54" y="0" flags="0x0"/>
      <component glyphName="c" x="0" y="0" flags="0x0"/>
      <component glyphName="acutecomb" x="346" y="0" flags="0x0"/>
    </TTGlyph>
    <TTGlyph name="cacute.loclPLK" xMin="54" yMin="-8" xMax="365" yMax="743">
      <component glyphName=".ttfautohint" x="54" y="0" flags="0x0"/>
      <component glyphName="c" x="0" y="0" flags="0x0"/>
      <component glyphName="acute.loclPLK" x="152" y="0" flags="0x0"/>
    </TTGlyph>
    <TTGlyph name="caron" xMin="13" yMin="604" xMax="281" yMax="743">
      <contour>
        <pt x="13" y="737" on="1"/>
        <pt x="13" y="743" on="1"/>
        <pt x="72" y="743" on="1"/>
        <pt x="147" y="649" on="1"/>
        <pt x="222" y="743" on="1"/>
        <pt x="281" y="743" on="1"/>
        <pt x="281" y="737" on="1"/>
        <pt x="192" y="604" on="1"/>
        <pt x="102" y="604" on="1"/>
      </contour>
    </TTGlyph>
    <TTGlyph name="caron.loclCSY" xMin="42" yMin="442" xMax="139" yMax="688">
      <contour>
        <pt x="57" y="615" on="1"/>
        <pt x="57" y="688" on="1"/>
        <pt x="139" y="688" on="1"/>
        <pt x="139" y="615" on="1"/>
        <pt x="101" y="442" on="1"/>
        <pt x="42" y="442" on="1"/>
      </contour>
    </TTGlyph>
    <TTGlyph name="ccaron" xMin="54" yMin="-8" xMax="365" yMax="743">
      <component glyphName=".ttfautohint" x="54" y="0" flags="0x0"/>
      <component glyphName="c" x="0" y="0" flags="0x0"/>
      <component glyphName="uni030C" x="350" y="0" flags="0x0"/>
    </TTGlyph>
    <TTGlyph name="ccedilla" xMin="54" yMin="-190" xMax="365" yMax="518">
      <contour>
        <pt x="313" y="65" on="0"/>
        <pt x="365" y="75" on="1"/>
        <pt x="365" y="5" on="1"/>
        <pt x="341" y="0" on="0"/>
        <pt x="271" y="-8" on="0"/>
        <pt x="241" y="-8" on="1"/>
        <pt x="232" y="-8" on="1"/>
        <pt x="194" y="-190" on="1"/>
        <pt x="112" y="-190" on="1"/>
        <pt x="112" y="-185" on="1"/>
        <pt x="173" y="-2" on="1"/>
        <pt x="121" y="9" on="0"/>
        <pt x="70" y="72" on="0"/>
        <pt x="54" y="170" on="0"/>
        <pt x="54" y="254" on="1"/>
        <pt x="54" y="355" on="0"/>
        <pt x="82" y="465" on="0"/>
        <pt x="161" y="518" on="0"/>
        <pt x="238" y="518" on="1"/>
        <pt x="269" y="518" on="0"/>
        <pt x="340" y="510" on="0"/>
        <pt x="362" y="504" on="1"/>
        <pt x="362" y="435" on="1"/>
        <pt x="310" y="445" on="0"/>
        <pt x="259" y="445" on="1"/>
        <pt x="205" y="445" on="0"/>
        <pt x="156" y="416" on="0"/>
        <pt x="139" y="339" on="0"/>
        <pt x="139" y="255" on="1"/>
        <pt x="139" y="170" on="0"/>
        <pt x="156" y="93" on="0"/>
        <pt x="206" y="65" on="0"/>
        <pt x="261" y="65" on="1"/>
      </contour>
    </TTGlyph>
    <TTGlyph name="ccircumflex" xMin="54" yMin="-8" xMax="365" yMax="743">
      <component glyphName=".ttfautohint" x="54" y="0" flags="0x0"/>
      <component glyphName="c" x="0" y="0" flags="0x0"/>
      <component glyphName="uni0302" x="350" y="0" flags="0x0"/>
    </TTGlyph>
    <TTGlyph name="cdotaccent" xMin="54" yMin="-8" xMax="365" yMax="730">
      <component glyphName=".ttfautohint" x="54" y="0" flags="0x0"/>
      <component glyphName="c" x="0" y="0" flags="0x0"/>
      <component glyphName="uni0307" x="261" y="0" flags="0x0"/>
    </TTGlyph>
    <TTGlyph name="cedilla" xMin="18" yMin="-190" xMax="140" yMax="8">
      <contour>
        <pt x="18" y="-185" on="1"/>
        <pt x="82" y="8" on="1"/>
        <pt x="140" y="8" on="1"/>
        <pt x="140" y="3" on="1"/>
        <pt x="100" y="-190" on="1"/>
        <pt x="18" y="-190" on="1"/>
      </contour>
    </TTGlyph>
    <TTGlyph name="cent" xMin="56" yMin="-8" xMax="373" yMax="696">
      <contour>
        <pt x="373" y="82" on="1"/>
        <pt x="329" y="71" on="0"/>
        <pt x="278" y="68" on="1"/>
        <pt x="278" y="-8" on="1"/>
        <pt x="211" y="-8" on="1"/>
        <pt x="211" y="69" on="1"/>
        <pt x="147" y="74" on="0"/>
        <pt x="81" y="131" on="0"/>
        <pt x="56" y="243" on="0"/>
        <pt x="56" y="342" on="1"/>
        <pt x="56" y="442" on="0"/>
        <pt x="85" y="557" on="0"/>
        <pt x="151" y="612" on="0"/>
        <pt x="211" y="617" on="1"/>
        <pt x="211" y="696" on="1"/>
        <pt x="278" y="696" on="1"/>
        <pt x="278" y="618" on="1"/>
        <pt x="325" y="615" on="0"/>
        <pt x="369" y="605" on="1"/>
        <pt x="369" y="534" on="1"/>
        <pt x="322" y="543" on="0"/>
        <pt x="278" y="543" on="1"/>
        <pt x="278" y="142" on="1"/>
        <pt x="329" y="144" on="0"/>
        <pt x="373" y="153" on="1"/>
      </contour>
      <contour>
        <pt x="145" y="271" on="0"/>
        <pt x="155" y="194" on="0"/>
        <pt x="183" y="155" on="0"/>
        <pt x="211" y="148" on="1"/>
        <pt x="211" y="538" on="1"/>
        <pt x="183" y="531" on="0"/>
        <pt x="155" y="492" on="0"/>
        <pt x="145" y="414" on="0"/>
        <pt x="145" y="343" on="1"/>
      </contour>
    </TTGlyph>
    <TTGlyph name="circumflex" xMin="13" yMin="604" xMax="281" yMax="743">
      <contour>
        <pt x="13" y="610" on="1"/>
        <pt x="102" y="743" on="1"/>
        <pt x="192" y="743" on="1"/>
        <pt x="281" y="610" on="1"/>
        <pt x="281" y="604" on="1"/>
        <pt x="222" y="604" on="1"/>
        <pt x="147" y="698" on="1"/>
        <pt x="72" y="604" on="1"/>
        <pt x="13" y="604" on="1"/>
      </contour>
    </TTGlyph>
    <TTGlyph name="colon" xMin="60" yMin="0" xMax="157" yMax="510">
      <contour>
        <pt x="60" y="510" on="1"/>
        <pt x="157" y="510" on="1"/>
        <pt x="157" y="410" on="1"/>
        <pt x="60" y="410" on="1"/>
      </contour>
      <contour>
        <pt x="60" y="100" on="1"/>
        <pt x="157" y="100" on="1"/>
        <pt x="157" y="0" on="1"/>
        <pt x="60" y="0" on="1"/>
      </contour>
    </TTGlyph>
    <TTGlyph name="comma" xMin="41" yMin="-123" xMax="157" yMax="100">
      <contour>
        <pt x="76" y="-83" on="0"/>
        <pt x="97" y="-58" on="0"/>
        <pt x="97" y="-17" on="1"/>
        <pt x="97" y="0" on="1"/>
        <pt x="59" y="0" on="1"/>
        <pt x="59" y="100" on="1"/>
        <pt x="157" y="100" on="1"/>
        <pt x="157" y="16" on="1"/>
        <pt x="157" y="-43" on="0"/>
        <pt x="140" y="-100" on="0"/>
        <pt x="92" y="-123" on="0"/>
        <pt x="41" y="-123" on="1"/>
        <pt x="41" y="-83" on="1"/>
      </contour>
    </TTGlyph>
    <TTGlyph name="copyright" xMin="76" yMin="-8" xMax="580" yMax="696">
      <contour>
        <pt x="202" y="-8" on="0"/>
        <pt x="102" y="41" on="0"/>
        <pt x="76" y="173" on="0"/>
        <pt x="76" y="344" on="1"/>
        <pt x="76" y="515" on="0"/>
        <pt x="102" y="647" on="0"/>
        <pt x="202" y="696" on="0"/>
        <pt x="328" y="696" on="1"/>
        <pt x="454" y="696" on="0"/>
        <pt x="554" y="647" on="0"/>
        <pt x="580" y="515" on="0"/>
        <pt x="580" y="344" on="1"/>
        <pt x="580" y="173" on="0"/>
        <pt x="554" y="41" on="0"/>
        <pt x="454" y="-8" on="0"/>
        <pt x="328" y="-8" on="1"/>
      </contour>
      <contour>
        <pt x="437" y="32" on="0"/>
        <pt x="516" y="66" on="0"/>
        <pt x="537" y="182" on="0"/>
        <pt x="537" y="344" on="1"/>
        <pt x="537" y="506" on="0"/>
        <pt x="516" y="621" on="0"/>
        <pt x="437" y="655" on="0"/>
        <pt x="328" y="655" on="1"/>
        <pt x="219" y="655" on="0"/>
        <pt x="139" y="621" on="0"/>
        <pt x="118" y="505" on="0"/>
        <pt x="118" y="344" on="1"/>
        <pt x="118" y="182" on="0"/>
        <pt x="139" y="66" on="0"/>
        <pt x="219" y="32" on="0"/>
        <pt x="328" y="32" on="1"/>
      </contour>
      <contour>
        <pt x="290" y="154" on="0"/>
        <pt x="236" y="184" on="0"/>
        <pt x="218" y="261" on="0"/>
        <pt x="218" y="343" on="1"/>
        <pt x="218" y="425" on="0"/>
        <pt x="236" y="502" on="0"/>
        <pt x="290" y="533" on="0"/>
        <pt x="348" y="533" on="1"/>
        <pt x="368" y="533" on="0"/>
        <pt x="411" y="528" on="0"/>
        <pt x="423" y="525" on="1"/>
        <pt x="423" y="479" on="1"/>
        <pt x="391" y="484" on="0"/>
        <pt x="359" y="484" on="1"/>
        <pt x="317" y="484" on="0"/>
        <pt x="284" y="467" on="0"/>
        <pt x="274" y="412" on="0"/>
        <pt x="274" y="343" on="1"/>
        <pt x="274" y="274" on="0"/>
        <pt x="284" y="219" on="0"/>
        <pt x="317" y="202" on="0"/>
        <pt x="359" y="202" on="1"/>
        <pt x="396" y="202" on="0"/>
        <pt x="424" y="207" on="1"/>
        <pt x="424" y="160" on="1"/>
        <pt x="388" y="154" on="0"/>
        <pt x="348" y="154" on="1"/>
      </contour>
    </TTGlyph>
    <TTGlyph name="currency" xMin="54" yMin="-5" xMax="580" yMax="692">
      <contour>
        <pt x="54" y="45" on="1"/>
        <pt x="142" y="132" on="1"/>
        <pt x="126" y="161" on="0"/>
        <pt x="116" y="257" on="0"/>
        <pt x="116" y="345" on="1"/>
        <pt x="116" y="431" on="0"/>
        <pt x="126" y="527" on="0"/>
        <pt x="141" y="556" on="1"/>
        <pt x="54" y="642" on="1"/>
        <pt x="104" y="692" on="1"/>
        <pt x="196" y="600" on="1"/>
        <pt x="233" y="617" on="0"/>
        <pt x="316" y="617" on="1"/>
        <pt x="360" y="617" on="0"/>
        <pt x="418" y="609" on="0"/>
        <pt x="437" y="599" on="1"/>
        <pt x="530" y="692" on="1"/>
        <pt x="580" y="643" on="1"/>
        <pt x="492" y="555" on="1"/>
        <pt x="507" y="526" on="0"/>
        <pt x="516" y="430" on="0"/>
        <pt x="516" y="345" on="1"/>
        <pt x="516" y="258" on="0"/>
        <pt x="506" y="162" on="0"/>
        <pt x="491" y="133" on="1"/>
        <pt x="580" y="45" on="1"/>
        <pt x="530" y="-5" on="1"/>
        <pt x="437" y="89" on="1"/>
        <pt x="417" y="79" on="0"/>
        <pt x="359" y="71" on="0"/>
        <pt x="316" y="71" on="1"/>
        <pt x="235" y="71" on="0"/>
        <pt x="197" y="88" on="1"/>
        <pt x="104" y="-4" on="1"/>
      </contour>
      <contour>
        <pt x="375" y="143" on="0"/>
        <pt x="420" y="171" on="0"/>
        <pt x="431" y="245" on="0"/>
        <pt x="431" y="345" on="1"/>
        <pt x="431" y="444" on="0"/>
        <pt x="420" y="518" on="0"/>
        <pt x="375" y="545" on="0"/>
        <pt x="316" y="545" on="1"/>
        <pt x="257" y="545" on="0"/>
        <pt x="212" y="518" on="0"/>
        <pt x="201" y="444" on="0"/>
        <pt x="201" y="345" on="1"/>
        <pt x="201" y="245" on="0"/>
        <pt x="212" y="171" on="0"/>
        <pt x="257" y="143" on="0"/>
        <pt x="316" y="143" on="1"/>
      </contour>
    </TTGlyph>
    <TTGlyph name="d" xMin="54" yMin="-8" xMax="448" yMax="743">
      <contour>
        <pt x="153" y="-8" on="0"/>
        <pt x="83" y="37" on="0"/>
        <pt x="54" y="148" on="0"/>
        <pt x="54" y="254" on="1"/>
        <pt x="54" y="360" on="0"/>
        <pt x="82" y="472" on="0"/>
        <pt x="151" y="518" on="0"/>
        <pt x="217" y="518" on="1"/>
        <pt x="272" y="518" on="0"/>
        <pt x="341" y="486" on="0"/>
        <pt x="358" y="448" on="1"/>
        <pt x="363" y="448" on="1"/>
        <pt x="363" y="743" on="1"/>
        <pt x="448" y="743" on="1"/>
        <pt x="448" y="0" on="1"/>
        <pt x="371" y="0" on="1"/>
        <pt x="368" y="70" on="1"/>
        <pt x="362" y="70" on="1"/>
        <pt x="345" y="24" on="0"/>
        <pt x="271" y="-8" on="0"/>
        <pt x="219" y="-8" on="1"/>
      </contour>
      <contour>
        <pt x="294" y="68" on="0"/>
        <pt x="341" y="94" on="0"/>
        <pt x="351" y="122" on="1"/>
        <pt x="359" y="146" on="0"/>
        <pt x="363" y="207" on="0"/>
        <pt x="363" y="261" on="1"/>
        <pt x="363" y="303" on="0"/>
        <pt x="359" y="357" on="0"/>
        <pt x="353" y="378" on="1"/>
        <pt x="343" y="412" on="0"/>
        <pt x="295" y="442" on="0"/>
        <pt x="250" y="442" on="1"/>
        <pt x="199" y="442" on="0"/>
        <pt x="154" y="417" on="0"/>
        <pt x="139" y="342" on="0"/>
        <pt x="139" y="255" on="1"/>
        <pt x="139" y="167" on="0"/>
        <pt x="155" y="92" on="0"/>
        <pt x="199" y="68" on="0"/>
        <pt x="252" y="68" on="1"/>
      </contour>
    </TTGlyph>
    <TTGlyph name="dagger" xMin="51" yMin="0" xMax="355" yMax="688">
      <contour>
        <pt x="166" y="446" on="1"/>
        <pt x="51" y="454" on="1"/>
        <pt x="51" y="509" on="1"/>
        <pt x="166" y="517" on="1"/>
        <pt x="174" y="688" on="1"/>
        <pt x="230" y="688" on="1"/>
        <pt x="238" y="517" on="1"/>
        <pt x="355" y="509" on="1"/>
        <pt x="355" y="454" on="1"/>
        <pt x="238" y="446" on="1"/>
        <pt x="230" y="0" on="1"/>
        <pt x="174" y="0" on="1"/>
      </contour>
    </TTGlyph>
    <TTGlyph name="daggerdbl" xMin="51" yMin="0" xMax="355" yMax="688">
      <contour>
        <pt x="166" y="171" on="1"/>
        <pt x="51" y="178" on="1"/>
        <pt x="51" y="234" on="1"/>
        <pt x="166" y="241" on="1"/>
        <pt x="166" y="446" on="1"/>
        <pt x="51" y="454" on="1"/>
        <pt x="51" y="509" on="1"/>
        <pt x="166" y="517" on="1"/>
        <pt x="174" y="688" on="1"/>
        <pt x="230" y="688" on="1"/>
        <pt x="238" y="517" on="1"/>
        <pt x="355" y="509" on="1"/>
        <pt x="355" y="454" on="1"/>
        <pt x="238" y="446" on="1"/>
        <pt x="238" y="241" on="1"/>
        <pt x="355" y="234" on="1"/>
        <pt x="355" y="178" on="1"/>
        <pt x="238" y="171" on="1"/>
        <pt x="230" y="0" on="1"/>
        <pt x="174" y="0" on="1"/>
      </contour>
    </TTGlyph>
    <TTGlyph name="dcaron" xMin="54" yMin="-8" xMax="582" yMax="743">
      <component glyphName=".ttfautohint" x="54" y="0" flags="0x0"/>
      <component glyphName="d" x="0" y="0" flags="0x0"/>
      <component glyphName="caron.loclCSY" x="443" y="0" flags="0x0"/>
    </TTGlyph>
    <TTGlyph name="dcroat" xMin="54" yMin="-8" xMax="507" yMax="743">
      <contour>
        <pt x="507" y="617" on="1"/>
        <pt x="448" y="617" on="1"/>
        <pt x="448" y="0" on="1"/>
        <pt x="371" y="0" on="1"/>
        <pt x="368" y="70" on="1"/>
        <pt x="362" y="70" on="1"/>
        <pt x="345" y="24" on="0"/>
        <pt x="271" y="-8" on="0"/>
        <pt x="219" y="-8" on="1"/>
        <pt x="153" y="-8" on="0"/>
        <pt x="83" y="37" on="0"/>
        <pt x="54" y="148" on="0"/>
        <pt x="54" y="254" on="1"/>
        <pt x="54" y="360" on="0"/>
        <pt x="82" y="472" on="0"/>
        <pt x="151" y="518" on="0"/>
        <pt x="217" y="518" on="1"/>
        <pt x="272" y="518" on="0"/>
        <pt x="341" y="486" on="0"/>
        <pt x="358" y="448" on="1"/>
        <pt x="363" y="448" on="1"/>
        <pt x="363" y="617" on="1"/>
        <pt x="241" y="617" on="1"/>
        <pt x="241" y="688" on="1"/>
        <pt x="363" y="688" on="1"/>
        <pt x="363" y="743" on="1"/>
        <pt x="448" y="743" on="1"/>
        <pt x="448" y="688" on="1"/>
        <pt x="507" y="688" on="1"/>
      </contour>
      <contour>
        <pt x="359" y="146" on="0"/>
        <pt x="363" y="207" on="0"/>
        <pt x="363" y="261" on="1"/>
        <pt x="363" y="303" on="0"/>
        <pt x="359" y="357" on="0"/>
        <pt x="353" y="378" on="1"/>
        <pt x="343" y="412" on="0"/>
        <pt x="295" y="442" on="0"/>
        <pt x="250" y="442" on="1"/>
        <pt x="199" y="442" on="0"/>
        <pt x="154" y="417" on="0"/>
        <pt x="139" y="342" on="0"/>
        <pt x="139" y="255" on="1"/>
        <pt x="139" y="167" on="0"/>
        <pt x="155" y="92" on="0"/>
        <pt x="199" y="68" on="0"/>
        <pt x="252" y="68" on="1"/>
        <pt x="294" y="68" on="0"/>
        <pt x="341" y="94" on="0"/>
        <pt x="351" y="122" on="1"/>
      </contour>
    </TTGlyph>
    <TTGlyph name="degree" xMin="55" yMin="397" xMax="299" yMax="696">
      <contour>
        <pt x="119" y="397" on="0"/>
        <pt x="69" y="423" on="0"/>
        <pt x="55" y="482" on="0"/>
        <pt x="55" y="546" on="1"/>
        <pt x="55" y="610" on="0"/>
        <pt x="69" y="669" on="0"/>
        <pt x="119" y="696" on="0"/>
        <pt x="177" y="696" on="1"/>
        <pt x="235" y="696" on="0"/>
        <pt x="285" y="669" on="0"/>
        <pt x="299" y="610" on="0"/>
        <pt x="299" y="546" on="1"/>
        <pt x="299" y="482" on="0"/>
        <pt x="285" y="423" on="0"/>
        <pt x="235" y="397" on="0"/>
        <pt x="177" y="397" on="1"/>
      </contour>
      <contour>
        <pt x="208" y="445" on="0"/>
        <pt x="233" y="460" on="0"/>
        <pt x="239" y="497" on="0"/>
        <pt x="239" y="546" on="1"/>
        <pt x="239" y="595" on="0"/>
        <pt x="233" y="632" on="0"/>
        <pt x="208" y="647" on="0"/>
        <pt x="177" y="647" on="1"/>
        <pt x="145" y="647" on="0"/>
        <pt x="120" y="632" on="0"/>
        <pt x="114" y="595" on="0"/>
        <pt x="114" y="546" on="1"/>
        <pt x="114" y="497" on="0"/>
        <pt x="120" y="460" on="0"/>
        <pt x="145" y="445" on="0"/>
        <pt x="177" y="445" on="1"/>
      </contour>
    </TTGlyph>
    <TTGlyph name="dialog" xMin="59" yMin="-212" xMax="746" yMax="688">
      <contour>
        <pt x="306" y="-127" on="1"/>
        <pt x="494" y="60" on="1"/>
        <pt x="686" y="60" on="1"/>
        <pt x="686" y="628" on="1"/>
        <pt x="119" y="628" on="1"/>
        <pt x="119" y="60" on="1"/>
        <pt x="306" y="60" on="1"/>
        <pt x="306" y="0" on="1"/>
        <pt x="59" y="0" on="1"/>
        <pt x="59" y="688" on="1"/>
        <pt x="746" y="688" on="1"/>
        <pt x="746" y="0" on="1"/>
        <pt x="519" y="0" on="1"/>
        <pt x="306" y="-212" on="1"/>
      </contour>
    </TTGlyph>
    <TTGlyph name="dieresis" xMin="19" yMin="648" xMax="281" yMax="730">
      <contour>
        <pt x="19" y="730" on="1"/>
        <pt x="98" y="730" on="1"/>
        <pt x="98" y="648" on="1"/>
        <pt x="19" y="648" on="1"/>
      </contour>
      <contour>
        <pt x="202" y="730" on="1"/>
        <pt x="281" y="730" on="1"/>
        <pt x="281" y="648" on="1"/>
        <pt x="202" y="648" on="1"/>
      </contour>
    </TTGlyph>
    <TTGlyph name="divide" xMin="66" yMin="36" xMax="446" yMax="469">
      <contour>
        <pt x="218" y="469" on="1"/>
        <pt x="293" y="469" on="1"/>
        <pt x="293" y="393" on="1"/>
        <pt x="218" y="393" on="1"/>
      </contour>
      <contour>
        <pt x="66" y="288" on="1"/>
        <pt x="446" y="288" on="1"/>
        <pt x="446" y="218" on="1"/>
        <pt x="66" y="218" on="1"/>
      </contour>
      <contour>
        <pt x="218" y="113" on="1"/>
        <pt x="293" y="113" on="1"/>
        <pt x="293" y="36" on="1"/>
        <pt x="218" y="36" on="1"/>
      </contour>
    </TTGlyph>
    <TTGlyph name="dollar" xMin="59" yMin="-8" xMax="419" yMax="696">
      <contour>
        <pt x="419" y="171" on="0"/>
        <pt x="391" y="105" on="0"/>
        <pt x="329" y="73" on="0"/>
        <pt x="275" y="69" on="1"/>
        <pt x="275" y="-8" on="1"/>
        <pt x="209" y="-8" on="1"/>
        <pt x="209" y="68" on="1"/>
        <pt x="128" y="71" on="0"/>
        <pt x="73" y="82" on="1"/>
        <pt x="73" y="153" on="1"/>
        <pt x="145" y="143" on="0"/>
        <pt x="209" y="143" on="1"/>
        <pt x="209" y="311" on="1"/>
        <pt x="169" y="316" on="1"/>
        <pt x="124" y="322" on="0"/>
        <pt x="77" y="355" on="0"/>
        <pt x="59" y="414" on="0"/>
        <pt x="59" y="463" on="1"/>
        <pt x="59" y="543" on="0"/>
        <pt x="131" y="612" on="0"/>
        <pt x="209" y="618" on="1"/>
        <pt x="209" y="696" on="1"/>
        <pt x="275" y="696" on="1"/>
        <pt x="275" y="619" on="1"/>
        <pt x="344" y="616" on="0"/>
        <pt x="393" y="604" on="1"/>
        <pt x="393" y="534" on="1"/>
        <pt x="332" y="543" on="0"/>
        <pt x="275" y="544" on="1"/>
        <pt x="275" y="382" on="1"/>
        <pt x="315" y="378" on="1"/>
        <pt x="355" y="373" on="0"/>
        <pt x="398" y="346" on="0"/>
        <pt x="419" y="285" on="0"/>
        <pt x="419" y="227" on="1"/>
      </contour>
      <contour>
        <pt x="209" y="390" on="1"/>
        <pt x="209" y="543" on="1"/>
        <pt x="175" y="539" on="0"/>
        <pt x="144" y="506" on="0"/>
        <pt x="144" y="466" on="1"/>
        <pt x="144" y="435" on="0"/>
        <pt x="153" y="406" on="0"/>
        <pt x="174" y="394" on="0"/>
        <pt x="198" y="391" on="1"/>
      </contour>
      <contour>
        <pt x="310" y="150" on="0"/>
        <pt x="333" y="184" on="0"/>
        <pt x="333" y="223" on="1"/>
        <pt x="333" y="258" on="0"/>
        <pt x="324" y="289" on="0"/>
        <pt x="304" y="299" on="0"/>
        <pt x="279" y="302" on="1"/>
        <pt x="275" y="302" on="1"/>
        <pt x="275" y="145" on="1"/>
      </contour>
    </TTGlyph>
    <TTGlyph name="dotaccent" xMin="18" yMin="648" xMax="97" yMax="730">
      <contour>
        <pt x="18" y="730" on="1"/>
        <pt x="97" y="730" on="1"/>
        <pt x="97" y="648" on="1"/>
        <pt x="18" y="648" on="1"/>
      </contour>
    </TTGlyph>
    <TTGlyph name="dotbelowcomb" xMin="-156" yMin="-162" xMax="-59" yMax="-62">
      <contour>
        <pt x="-156" y="-62" on="1"/>
        <pt x="-59" y="-62" on="1"/>
        <pt x="-59" y="-162" on="1"/>
        <pt x="-156" y="-162" on="1"/>
      </contour>
    </TTGlyph>
    <TTGlyph name="dotlessi" xMin="72" yMin="0" xMax="158" yMax="510">
      <contour>
        <pt x="72" y="510" on="1"/>
        <pt x="158" y="510" on="1"/>
        <pt x="158" y="0" on="1"/>
        <pt x="72" y="0" on="1"/>
      </contour>
    </TTGlyph>
    <TTGlyph name="e" xMin="54" yMin="-8" xMax="441" yMax="518">
      <contour>
        <pt x="441" y="224" on="1"/>
        <pt x="139" y="224" on="1"/>
        <pt x="139" y="152" on="0"/>
        <pt x="155" y="90" on="0"/>
        <pt x="212" y="65" on="0"/>
        <pt x="279" y="65" on="1"/>
        <pt x="338" y="65" on="0"/>
        <pt x="424" y="76" on="1"/>
        <pt x="424" y="6" on="1"/>
        <pt x="396" y="0" on="0"/>
        <pt x="305" y="-8" on="0"/>
        <pt x="262" y="-8" on="1"/>
        <pt x="169" y="-8" on="0"/>
        <pt x="82" y="40" on="0"/>
        <pt x="54" y="147" on="0"/>
        <pt x="54" y="254" on="1"/>
        <pt x="54" y="361" on="0"/>
        <pt x="78" y="466" on="0"/>
        <pt x="164" y="518" on="0"/>
        <pt x="256" y="518" on="1"/>
        <pt x="342" y="518" on="0"/>
        <pt x="420" y="468" on="0"/>
        <pt x="441" y="364" on="0"/>
        <pt x="441" y="255" on="1"/>
      </contour>
      <contour>
        <pt x="201" y="445" on="0"/>
        <pt x="154" y="421" on="0"/>
        <pt x="140" y="359" on="0"/>
        <pt x="139" y="290" on="1"/>
        <pt x="358" y="290" on="1"/>
        <pt x="358" y="295" on="1"/>
        <pt x="358" y="363" on="0"/>
        <pt x="341" y="425" on="0"/>
        <pt x="299" y="445" on="0"/>
        <pt x="254" y="445" on="1"/>
      </contour>
    </TTGlyph>
    <TTGlyph name="eacute" xMin="54" yMin="-8" xMax="441" yMax="743">
      <component glyphName=".ttfautohint" x="54" y="0" flags="0x0"/>
      <component glyphName="e" x="0" y="0" flags="0x0"/>
      <component glyphName="acute" x="200" y="0" flags="0x0"/>
    </TTGlyph>
    <TTGlyph name="ebreve" xMin="54" yMin="-8" xMax="441" yMax="743">
      <component glyphName=".ttfautohint" x="54" y="0" flags="0x0"/>
      <component glyphName="e" x="0" y="0" flags="0x0"/>
      <component glyphName="uni0306" x="388" y="0" flags="0x0"/>
    </TTGlyph>
    <TTGlyph name="ecaron" xMin="54" yMin="-8" xMax="441" yMax="743">
      <component glyphName=".ttfautohint" x="54" y="0" flags="0x0"/>
      <component glyphName="e" x="0" y="0" flags="0x0"/>
      <component glyphName="uni030C" x="395" y="0" flags="0x0"/>
    </TTGlyph>
    <TTGlyph name="ecircumflex" xMin="54" yMin="-8" xMax="441" yMax="743">
      <component glyphName=".ttfautohint" x="54" y="0" flags="0x0"/>
      <component glyphName="e" x="0" y="0" flags="0x0"/>
      <component glyphName="circumflex" x="104" y="0" flags="0x0"/>
    </TTGlyph>
    <TTGlyph name="edieresis" xMin="54" yMin="-8" xMax="441" yMax="728">
      <component glyphName=".ttfautohint" x="54" y="0" flags="0x0"/>
      <component glyphName="e" x="0" y="0" flags="0x0"/>
      <component glyphName="dieresis" x="102" y="-2" flags="0x4"/>
    </TTGlyph>
    <TTGlyph name="edotaccent" xMin="54" yMin="-8" xMax="441" yMax="730">
      <component glyphName=".ttfautohint" x="54" y="0" flags="0x0"/>
      <component glyphName="e" x="0" y="0" flags="0x0"/>
      <component glyphName="uni0307" x="305" y="0" flags="0x0"/>
    </TTGlyph>
    <TTGlyph name="egrave" xMin="54" yMin="-8" xMax="441" yMax="743">
      <component glyphName=".ttfautohint" x="54" y="0" flags="0x0"/>
      <component glyphName="e" x="0" y="0" flags="0x0"/>
      <component glyphName="grave" x="114" y="0" flags="0x0"/>
    </TTGlyph>
    <TTGlyph name="eight" xMin="61" yMin="-8" xMax="528" yMax="696">
      <contour>
        <pt x="199" y="-8" on="0"/>
        <pt x="98" y="34" on="0"/>
        <pt x="61" y="115" on="0"/>
        <pt x="61" y="183" on="1"/>
        <pt x="61" y="241" on="0"/>
        <pt x="85" y="307" on="0"/>
        <pt x="131" y="339" on="0"/>
        <pt x="170" y="349" on="1"/>
        <pt x="170" y="353" on="1"/>
        <pt x="116" y="365" on="0"/>
        <pt x="66" y="441" on="0"/>
        <pt x="66" y="516" on="1"/>
        <pt x="66" y="581" on="0"/>
        <pt x="107" y="659" on="0"/>
        <pt x="206" y="696" on="0"/>
        <pt x="294" y="696" on="1"/>
        <pt x="382" y="696" on="0"/>
        <pt x="481" y="659" on="0"/>
        <pt x="523" y="581" on="0"/>
        <pt x="523" y="516" on="1"/>
        <pt x="523" y="441" on="0"/>
        <pt x="473" y="365" on="0"/>
        <pt x="419" y="353" on="1"/>
        <pt x="419" y="349" on="1"/>
        <pt x="458" y="339" on="0"/>
        <pt x="504" y="307" on="0"/>
        <pt x="528" y="241" on="0"/>
        <pt x="528" y="183" on="1"/>
        <pt x="528" y="115" on="0"/>
        <pt x="490" y="34" on="0"/>
        <pt x="389" y="-8" on="0"/>
        <pt x="294" y="-8" on="1"/>
      </contour>
      <contour>
        <pt x="352" y="386" on="0"/>
        <pt x="409" y="405" on="0"/>
        <pt x="432" y="453" on="0"/>
        <pt x="432" y="502" on="1"/>
        <pt x="432" y="551" on="0"/>
        <pt x="411" y="600" on="0"/>
        <pt x="353" y="619" on="0"/>
        <pt x="294" y="619" on="1"/>
        <pt x="235" y="619" on="0"/>
        <pt x="178" y="600" on="0"/>
        <pt x="157" y="551" on="0"/>
        <pt x="157" y="502" on="1"/>
        <pt x="157" y="453" on="0"/>
        <pt x="179" y="405" on="0"/>
        <pt x="236" y="386" on="0"/>
        <pt x="294" y="386" on="1"/>
      </contour>
      <contour>
        <pt x="352" y="69" on="0"/>
        <pt x="412" y="87" on="0"/>
        <pt x="437" y="137" on="0"/>
        <pt x="437" y="188" on="1"/>
        <pt x="437" y="242" on="0"/>
        <pt x="413" y="293" on="0"/>
        <pt x="355" y="310" on="0"/>
        <pt x="294" y="310" on="1"/>
        <pt x="232" y="310" on="0"/>
        <pt x="174" y="293" on="0"/>
        <pt x="151" y="243" on="0"/>
        <pt x="151" y="188" on="1"/>
        <pt x="151" y="137" on="0"/>
        <pt x="176" y="87" on="0"/>
        <pt x="236" y="69" on="0"/>
        <pt x="294" y="69" on="1"/>
      </contour>
    </TTGlyph>
    <TTGlyph name="eight.dnom" xMin="37" yMin="-4" xMax="312" yMax="383">
      <contour>
        <pt x="119" y="-4" on="0"/>
        <pt x="60" y="18" on="0"/>
        <pt x="37" y="63" on="0"/>
        <pt x="37" y="101" on="1"/>
        <pt x="37" y="146" on="0"/>
        <pt x="67" y="184" on="0"/>
        <pt x="101" y="192" on="1"/>
        <pt x="101" y="194" on="1"/>
        <pt x="70" y="201" on="0"/>
        <pt x="40" y="243" on="0"/>
        <pt x="40" y="284" on="1"/>
        <pt x="40" y="338" on="0"/>
        <pt x="99" y="383" on="0"/>
        <pt x="174" y="383" on="1"/>
        <pt x="249" y="383" on="0"/>
        <pt x="308" y="338" on="0"/>
        <pt x="308" y="284" on="1"/>
        <pt x="308" y="243" on="0"/>
        <pt x="279" y="201" on="0"/>
        <pt x="247" y="194" on="1"/>
        <pt x="247" y="192" on="1"/>
        <pt x="282" y="184" on="0"/>
        <pt x="312" y="146" on="0"/>
        <pt x="312" y="101" on="1"/>
        <pt x="312" y="63" on="0"/>
        <pt x="289" y="18" on="0"/>
        <pt x="229" y="-4" on="0"/>
        <pt x="174" y="-4" on="1"/>
      </contour>
      <contour>
        <pt x="206" y="216" on="0"/>
        <pt x="235" y="225" on="0"/>
        <pt x="247" y="248" on="0"/>
        <pt x="247" y="273" on="1"/>
        <pt x="247" y="298" on="0"/>
        <pt x="236" y="322" on="0"/>
        <pt x="206" y="331" on="0"/>
        <pt x="175" y="331" on="1"/>
        <pt x="143" y="331" on="0"/>
        <pt x="113" y="322" on="0"/>
        <pt x="101" y="298" on="0"/>
        <pt x="101" y="273" on="1"/>
        <pt x="101" y="248" on="0"/>
        <pt x="113" y="225" on="0"/>
        <pt x="144" y="216" on="0"/>
        <pt x="175" y="216" on="1"/>
      </contour>
      <contour>
        <pt x="220" y="47" on="0"/>
        <pt x="251" y="69" on="0"/>
        <pt x="251" y="106" on="1"/>
        <pt x="251" y="133" on="0"/>
        <pt x="238" y="158" on="0"/>
        <pt x="208" y="166" on="0"/>
        <pt x="175" y="166" on="1"/>
        <pt x="142" y="166" on="0"/>
        <pt x="111" y="158" on="0"/>
        <pt x="98" y="133" on="0"/>
        <pt x="98" y="106" on="1"/>
        <pt x="98" y="69" on="0"/>
        <pt x="129" y="47" on="0"/>
        <pt x="175" y="47" on="1"/>
      </contour>
    </TTGlyph>
    <TTGlyph name="eight.numr" xMin="37" yMin="304" xMax="312" yMax="691">
      <component glyphName=".ttfautohint" x="37" y="304" flags="0x0"/>
      <component glyphName="eight.dnom" x="0" y="308" flags="0x4"/>
    </TTGlyph>
    <TTGlyph name="eight.tnum" xMin="53" yMin="-8" xMax="520" yMax="696">
      <contour>
        <pt x="192" y="-8" on="0"/>
        <pt x="90" y="34" on="0"/>
        <pt x="53" y="115" on="0"/>
        <pt x="53" y="183" on="1"/>
        <pt x="53" y="241" on="0"/>
        <pt x="77" y="307" on="0"/>
        <pt x="123" y="339" on="0"/>
        <pt x="162" y="349" on="1"/>
        <pt x="162" y="353" on="1"/>
        <pt x="108" y="365" on="0"/>
        <pt x="58" y="441" on="0"/>
        <pt x="58" y="516" on="1"/>
        <pt x="58" y="581" on="0"/>
        <pt x="99" y="659" on="0"/>
        <pt x="199" y="696" on="0"/>
        <pt x="287" y="696" on="1"/>
        <pt x="375" y="696" on="0"/>
        <pt x="474" y="659" on="0"/>
        <pt x="515" y="581" on="0"/>
        <pt x="515" y="516" on="1"/>
        <pt x="515" y="441" on="0"/>
        <pt x="465" y="365" on="0"/>
        <pt x="411" y="353" on="1"/>
        <pt x="411" y="349" on="1"/>
        <pt x="450" y="339" on="0"/>
        <pt x="496" y="307" on="0"/>
        <pt x="520" y="241" on="0"/>
        <pt x="520" y="183" on="1"/>
        <pt x="520" y="115" on="0"/>
        <pt x="482" y="34" on="0"/>
        <pt x="381" y="-8" on="0"/>
        <pt x="287" y="-8" on="1"/>
      </contour>
      <contour>
        <pt x="344" y="386" on="0"/>
        <pt x="402" y="405" on="0"/>
        <pt x="424" y="453" on="0"/>
        <pt x="424" y="502" on="1"/>
        <pt x="424" y="551" on="0"/>
        <pt x="403" y="600" on="0"/>
        <pt x="346" y="619" on="0"/>
        <pt x="287" y="619" on="1"/>
        <pt x="228" y="619" on="0"/>
        <pt x="170" y="600" on="0"/>
        <pt x="149" y="551" on="0"/>
        <pt x="149" y="502" on="1"/>
        <pt x="149" y="453" on="0"/>
        <pt x="171" y="405" on="0"/>
        <pt x="229" y="386" on="0"/>
        <pt x="287" y="386" on="1"/>
      </contour>
      <contour>
        <pt x="345" y="69" on="0"/>
        <pt x="405" y="87" on="0"/>
        <pt x="430" y="137" on="0"/>
        <pt x="430" y="188" on="1"/>
        <pt x="430" y="242" on="0"/>
        <pt x="406" y="293" on="0"/>
        <pt x="348" y="310" on="0"/>
        <pt x="287" y="310" on="1"/>
        <pt x="225" y="310" on="0"/>
        <pt x="167" y="293" on="0"/>
        <pt x="144" y="243" on="0"/>
        <pt x="144" y="188" on="1"/>
        <pt x="144" y="137" on="0"/>
        <pt x="169" y="87" on="0"/>
        <pt x="228" y="69" on="0"/>
        <pt x="287" y="69" on="1"/>
      </contour>
    </TTGlyph>
    <TTGlyph name="ellipsis" xMin="60" yMin="0" xMax="590" yMax="100">
      <contour>
        <pt x="60" y="100" on="1"/>
        <pt x="157" y="100" on="1"/>
        <pt x="157" y="0" on="1"/>
        <pt x="60" y="0" on="1"/>
      </contour>
      <contour>
        <pt x="276" y="100" on="1"/>
        <pt x="373" y="100" on="1"/>
        <pt x="373" y="0" on="1"/>
        <pt x="276" y="0" on="1"/>
      </contour>
      <contour>
        <pt x="492" y="100" on="1"/>
        <pt x="590" y="100" on="1"/>
        <pt x="590" y="0" on="1"/>
        <pt x="492" y="0" on="1"/>
      </contour>
    </TTGlyph>
    <TTGlyph name="emacron" xMin="54" yMin="-8" xMax="441" yMax="742">
      <component glyphName=".ttfautohint" x="54" y="0" flags="0x0"/>
      <component glyphName="e" x="0" y="0" flags="0x0"/>
      <component glyphName="uni0304" x="416" y="0" flags="0x0"/>
    </TTGlyph>
    <TTGlyph name="emdash" xMin="54" yMin="268" xMax="794" yMax="339">
      <contour>
        <pt x="54" y="339" on="1"/>
        <pt x="794" y="339" on="1"/>
        <pt x="794" y="268" on="1"/>
        <pt x="54" y="268" on="1"/>
      </contour>
    </TTGlyph>
    <TTGlyph name="endash" xMin="54" yMin="268" xMax="399" yMax="339">
      <contour>
        <pt x="54" y="339" on="1"/>
        <pt x="399" y="339" on="1"/>
        <pt x="399" y="268" on="1"/>
        <pt x="54" y="268" on="1"/>
      </contour>
    </TTGlyph>
    <TTGlyph name="eng" xMin="72" yMin="-197" xMax="455" yMax="518">
      <contour>
        <pt x="369" y="518" on="0"/>
        <pt x="433" y="477" on="0"/>
        <pt x="455" y="395" on="0"/>
        <pt x="455" y="322" on="1"/>
        <pt x="455" y="-52" on="1"/>
        <pt x="455" y="-119" on="0"/>
        <pt x="425" y="-179" on="0"/>
        <pt x="359" y="-197" on="0"/>
        <pt x="289" y="-197" on="1"/>
        <pt x="289" y="-130" on="1"/>
        <pt x="326" y="-130" on="0"/>
        <pt x="360" y="-120" on="0"/>
        <pt x="370" y="-98" on="0"/>
        <pt x="370" y="-75" on="1"/>
        <pt x="370" y="291" on="1"/>
        <pt x="370" y="362" on="0"/>
        <pt x="356" y="422" on="0"/>
        <pt x="316" y="441" on="0"/>
        <pt x="269" y="441" on="1"/>
        <pt x="218" y="441" on="0"/>
        <pt x="170" y="402" on="0"/>
        <pt x="157" y="332" on="0"/>
        <pt x="157" y="265" on="1"/>
        <pt x="157" y="0" on="1"/>
        <pt x="72" y="0" on="1"/>
        <pt x="72" y="510" on="1"/>
        <pt x="149" y="510" on="1"/>
        <pt x="153" y="440" on="1"/>
        <pt x="159" y="440" on="1"/>
        <pt x="174" y="478" on="0"/>
        <pt x="243" y="518" on="0"/>
        <pt x="305" y="518" on="1"/>
      </contour>
    </TTGlyph>
    <TTGlyph name="eogonek" xMin="54" yMin="-196" xMax="440" yMax="518">
      <contour>
        <pt x="440" y="227" on="1"/>
        <pt x="139" y="227" on="1"/>
        <pt x="139" y="152" on="0"/>
        <pt x="156" y="88" on="0"/>
        <pt x="212" y="64" on="0"/>
        <pt x="279" y="64" on="1"/>
        <pt x="350" y="64" on="0"/>
        <pt x="423" y="74" on="1"/>
        <pt x="423" y="7" on="1"/>
        <pt x="395" y="-12" on="0"/>
        <pt x="347" y="-75" on="0"/>
        <pt x="347" y="-103" on="1"/>
        <pt x="347" y="-120" on="0"/>
        <pt x="368" y="-142" on="0"/>
        <pt x="392" y="-142" on="1"/>
        <pt x="409" y="-141" on="1"/>
        <pt x="409" y="-194" on="1"/>
        <pt x="391" y="-196" on="0"/>
        <pt x="369" y="-196" on="1"/>
        <pt x="319" y="-196" on="0"/>
        <pt x="275" y="-154" on="0"/>
        <pt x="275" y="-121" on="1"/>
        <pt x="275" y="-63" on="0"/>
        <pt x="338" y="-5" on="1"/>
        <pt x="301" y="-8" on="0"/>
        <pt x="261" y="-8" on="1"/>
        <pt x="168" y="-8" on="0"/>
        <pt x="81" y="40" on="0"/>
        <pt x="54" y="146" on="0"/>
        <pt x="54" y="254" on="1"/>
        <pt x="54" y="361" on="0"/>
        <pt x="78" y="467" on="0"/>
        <pt x="163" y="518" on="0"/>
        <pt x="256" y="518" on="1"/>
        <pt x="343" y="518" on="0"/>
        <pt x="420" y="469" on="0"/>
        <pt x="440" y="366" on="0"/>
        <pt x="440" y="255" on="1"/>
      </contour>
      <contour>
        <pt x="201" y="447" on="0"/>
        <pt x="155" y="424" on="0"/>
        <pt x="140" y="361" on="0"/>
        <pt x="139" y="288" on="1"/>
        <pt x="358" y="288" on="1"/>
        <pt x="358" y="297" on="1"/>
        <pt x="358" y="365" on="0"/>
        <pt x="340" y="427" on="0"/>
        <pt x="298" y="447" on="0"/>
        <pt x="254" y="447" on="1"/>
      </contour>
    </TTGlyph>
    <TTGlyph name="equal" xMin="66" yMin="122" xMax="446" yMax="383">
      <contour>
        <pt x="66" y="383" on="1"/>
        <pt x="446" y="383" on="1"/>
        <pt x="446" y="313" on="1"/>
        <pt x="66" y="313" on="1"/>
      </contour>
      <contour>
        <pt x="66" y="192" on="1"/>
        <pt x="446" y="192" on="1"/>
        <pt x="446" y="122" on="1"/>
        <pt x="66" y="122" on="1"/>
      </contour>
    </TTGlyph>
    <TTGlyph name="estimated" xMin="63" yMin="-8" xMax="555" yMax="696">
      <contour>
        <pt x="154" y="171" on="0"/>
        <pt x="174" y="56" on="0"/>
        <pt x="234" y="26" on="0"/>
        <pt x="315" y="26" on="1"/>
        <pt x="398" y="26" on="0"/>
        <pt x="471" y="46" on="0"/>
        <pt x="506" y="117" on="0"/>
        <pt x="511" y="200" on="1"/>
        <pt x="547" y="200" on="1"/>
        <pt x="542" y="110" on="0"/>
        <pt x="501" y="24" on="0"/>
        <pt x="406" y="-8" on="0"/>
        <pt x="309" y="-8" on="1"/>
        <pt x="191" y="-8" on="0"/>
        <pt x="91" y="46" on="0"/>
        <pt x="63" y="183" on="0"/>
        <pt x="63" y="344" on="1"/>
        <pt x="63" y="505" on="0"/>
        <pt x="91" y="642" on="0"/>
        <pt x="191" y="696" on="0"/>
        <pt x="309" y="696" on="1"/>
        <pt x="427" y="696" on="0"/>
        <pt x="527" y="642" on="0"/>
        <pt x="555" y="505" on="0"/>
        <pt x="555" y="344" on="1"/>
        <pt x="555" y="323" on="1"/>
        <pt x="153" y="323" on="1"/>
      </contour>
      <contour>
        <pt x="230" y="662" on="0"/>
        <pt x="173" y="631" on="0"/>
        <pt x="154" y="514" on="0"/>
        <pt x="153" y="357" on="1"/>
        <pt x="465" y="357" on="1"/>
        <pt x="465" y="513" on="0"/>
        <pt x="446" y="631" on="0"/>
        <pt x="388" y="662" on="0"/>
        <pt x="309" y="662" on="1"/>
      </contour>
    </TTGlyph>
    <TTGlyph name="eth" xMin="54" yMin="-8" xMax="455" yMax="743">
      <contour>
        <pt x="160" y="-8" on="0"/>
        <pt x="77" y="36" on="0"/>
        <pt x="54" y="139" on="0"/>
        <pt x="54" y="254" on="1"/>
        <pt x="54" y="363" on="0"/>
        <pt x="75" y="468" on="0"/>
        <pt x="150" y="517" on="0"/>
        <pt x="232" y="517" on="1"/>
        <pt x="302" y="517" on="0"/>
        <pt x="341" y="492" on="1"/>
        <pt x="345" y="495" on="1"/>
        <pt x="325" y="565" on="0"/>
        <pt x="291" y="620" on="1"/>
        <pt x="184" y="603" on="1"/>
        <pt x="184" y="660" on="1"/>
        <pt x="258" y="672" on="1"/>
        <pt x="232" y="704" on="0"/>
        <pt x="197" y="739" on="1"/>
        <pt x="197" y="743" on="1"/>
        <pt x="289" y="743" on="1"/>
        <pt x="322" y="710" on="0"/>
        <pt x="341" y="685" on="1"/>
        <pt x="438" y="700" on="1"/>
        <pt x="438" y="644" on="1"/>
        <pt x="375" y="633" on="1"/>
        <pt x="422" y="551" on="0"/>
        <pt x="441" y="438" on="1"/>
        <pt x="455" y="359" on="0"/>
        <pt x="455" y="270" on="1"/>
        <pt x="455" y="145" on="0"/>
        <pt x="433" y="38" on="0"/>
        <pt x="351" y="-8" on="0"/>
        <pt x="254" y="-8" on="1"/>
      </contour>
      <contour>
        <pt x="313" y="63" on="0"/>
        <pt x="359" y="90" on="0"/>
        <pt x="370" y="159" on="0"/>
        <pt x="370" y="254" on="1"/>
        <pt x="370" y="339" on="0"/>
        <pt x="359" y="411" on="0"/>
        <pt x="311" y="446" on="0"/>
        <pt x="254" y="446" on="1"/>
        <pt x="195" y="446" on="0"/>
        <pt x="149" y="420" on="0"/>
        <pt x="139" y="350" on="0"/>
        <pt x="139" y="254" on="1"/>
        <pt x="139" y="159" on="0"/>
        <pt x="150" y="90" on="0"/>
        <pt x="195" y="63" on="0"/>
        <pt x="254" y="63" on="1"/>
      </contour>
    </TTGlyph>
    <TTGlyph name="exclam" xMin="71" yMin="0" xMax="171" yMax="688">
      <contour>
        <pt x="82" y="335" on="1"/>
        <pt x="71" y="546" on="0"/>
        <pt x="71" y="593" on="1"/>
        <pt x="71" y="688" on="1"/>
        <pt x="171" y="688" on="1"/>
        <pt x="171" y="593" on="1"/>
        <pt x="171" y="546" on="0"/>
        <pt x="160" y="335" on="1"/>
        <pt x="153" y="198" on="1"/>
        <pt x="89" y="198" on="1"/>
      </contour>
      <contour>
        <pt x="72" y="100" on="1"/>
        <pt x="170" y="100" on="1"/>
        <pt x="170" y="0" on="1"/>
        <pt x="72" y="0" on="1"/>
      </contour>
    </TTGlyph>
    <TTGlyph name="exclam.case" xMin="71" yMin="0" xMax="171" yMax="688">
      <component glyphName=".ttfautohint" x="71" y="0" flags="0x0"/>
      <component glyphName="exclam" x="0" y="0" flags="0x0"/>
    </TTGlyph>
    <TTGlyph name="exclam.ss02" xMin="45" yMin="-8" xMax="749" yMax="696">
      <contour>
        <pt x="302" y="-8" on="0"/>
        <pt x="140" y="87" on="0"/>
        <pt x="45" y="249" on="0"/>
        <pt x="45" y="344" on="1"/>
        <pt x="45" y="439" on="0"/>
        <pt x="140" y="601" on="0"/>
        <pt x="302" y="696" on="0"/>
        <pt x="397" y="696" on="1"/>
        <pt x="492" y="696" on="0"/>
        <pt x="654" y="601" on="0"/>
        <pt x="749" y="439" on="0"/>
        <pt x="749" y="344" on="1"/>
        <pt x="749" y="249" on="0"/>
        <pt x="654" y="87" on="0"/>
        <pt x="492" y="-8" on="0"/>
        <pt x="397" y="-8" on="1"/>
      </contour>
      <contour>
        <pt x="480" y="37" on="0"/>
        <pt x="621" y="120" on="0"/>
        <pt x="704" y="261" on="0"/>
        <pt x="704" y="344" on="1"/>
        <pt x="704" y="427" on="0"/>
        <pt x="621" y="568" on="0"/>
        <pt x="480" y="651" on="0"/>
        <pt x="397" y="651" on="1"/>
        <pt x="314" y="651" on="0"/>
        <pt x="173" y="568" on="0"/>
        <pt x="90" y="427" on="0"/>
        <pt x="90" y="344" on="1"/>
        <pt x="90" y="261" on="0"/>
        <pt x="173" y="120" on="0"/>
        <pt x="314" y="37" on="0"/>
        <pt x="397" y="37" on="1"/>
      </contour>
      <contour>
        <pt x="372" y="301" on="0"/>
        <pt x="363" y="422" on="0"/>
        <pt x="363" y="480" on="1"/>
        <pt x="363" y="579" on="1"/>
        <pt x="431" y="579" on="1"/>
        <pt x="431" y="480" on="1"/>
        <pt x="431" y="422" on="0"/>
        <pt x="422" y="301" on="0"/>
        <pt x="417" y="268" on="1"/>
        <pt x="377" y="268" on="1"/>
      </contour>
      <contour>
        <pt x="363" y="191" on="1"/>
        <pt x="431" y="191" on="1"/>
        <pt x="431" y="109" on="1"/>
        <pt x="363" y="109" on="1"/>
      </contour>
    </TTGlyph>
    <TTGlyph name="exclamdbl" xMin="71" yMin="0" xMax="368" yMax="688">
      <component glyphName=".ttfautohint" x="71" y="0" flags="0x0"/>
      <component glyphName="exclam" x="197" y="0" flags="0x0"/>
      <component glyphName="exclam" x="0" y="0" flags="0x0"/>
    </TTGlyph>
    <TTGlyph name="exclamdown" xMin="66" yMin="-178" xMax="166" yMax="510">
      <contour>
        <pt x="67" y="510" on="1"/>
        <pt x="164" y="510" on="1"/>
        <pt x="164" y="410" on="1"/>
        <pt x="67" y="410" on="1"/>
      </contour>
      <contour>
        <pt x="66" y="-83" on="1"/>
        <pt x="66" y="-36" on="0"/>
        <pt x="77" y="175" on="1"/>
        <pt x="84" y="312" on="1"/>
        <pt x="147" y="312" on="1"/>
        <pt x="154" y="171" on="1"/>
        <pt x="166" y="-19" on="0"/>
        <pt x="166" y="-83" on="1"/>
        <pt x="166" y="-178" on="1"/>
        <pt x="66" y="-178" on="1"/>
      </contour>
    </TTGlyph>
    <TTGlyph name="exclamdown.case" xMin="66" yMin="0" xMax="166" yMax="688">
      <component glyphName=".ttfautohint" x="66" y="0" flags="0x0"/>
      <component glyphName="exclamdown" x="0" y="178" flags="0x4"/>
    </TTGlyph>
    <TTGlyph name="f" xMin="23" yMin="0" xMax="307" yMax="743">
      <contour>
        <pt x="110" y="438" on="1"/>
        <pt x="23" y="438" on="1"/>
        <pt x="23" y="510" on="1"/>
        <pt x="110" y="510" on="1"/>
        <pt x="110" y="586" on="1"/>
        <pt x="110" y="658" on="0"/>
        <pt x="146" y="724" on="0"/>
        <pt x="224" y="743" on="0"/>
        <pt x="307" y="743" on="1"/>
        <pt x="307" y="677" on="1"/>
        <pt x="258" y="677" on="0"/>
        <pt x="212" y="666" on="0"/>
        <pt x="195" y="635" on="0"/>
        <pt x="195" y="601" on="1"/>
        <pt x="195" y="510" on="1"/>
        <pt x="307" y="510" on="1"/>
        <pt x="307" y="438" on="1"/>
        <pt x="195" y="438" on="1"/>
        <pt x="195" y="0" on="1"/>
        <pt x="110" y="0" on="1"/>
      </contour>
    </TTGlyph>
    <TTGlyph name="f_f" xMin="23" yMin="0" xMax="639" yMax="743">
      <component glyphName=".ttfautohint" x="23" y="0" flags="0x0"/>
      <component glyphName="f" x="0" y="0" flags="0x0"/>
      <component glyphName="f" x="332" y="0" flags="0x0"/>
    </TTGlyph>
    <TTGlyph name="fi" xMin="23" yMin="0" xMax="492" yMax="743">
      <component glyphName=".ttfautohint" x="23" y="0" flags="0x0"/>
      <component glyphName="f" x="0" y="0" flags="0x0"/>
      <component glyphName="i" x="332" y="0" flags="0x0"/>
    </TTGlyph>
    <TTGlyph name="five" xMin="67" yMin="-8" xMax="478" yMax="688">
      <contour>
        <pt x="175" y="70" on="0"/>
        <pt x="237" y="70" on="1"/>
        <pt x="300" y="70" on="0"/>
        <pt x="364" y="94" on="0"/>
        <pt x="388" y="150" on="0"/>
        <pt x="388" y="204" on="1"/>
        <pt x="388" y="263" on="0"/>
        <pt x="362" y="316" on="0"/>
        <pt x="297" y="334" on="0"/>
        <pt x="227" y="334" on="1"/>
        <pt x="162" y="334" on="0"/>
        <pt x="74" y="321" on="1"/>
        <pt x="74" y="688" on="1"/>
        <pt x="435" y="688" on="1"/>
        <pt x="435" y="610" on="1"/>
        <pt x="157" y="610" on="1"/>
        <pt x="157" y="403" on="1"/>
        <pt x="213" y="412" on="0"/>
        <pt x="281" y="412" on="1"/>
        <pt x="363" y="412" on="0"/>
        <pt x="448" y="368" on="0"/>
        <pt x="478" y="284" on="0"/>
        <pt x="478" y="214" on="1"/>
        <pt x="478" y="130" on="0"/>
        <pt x="440" y="36" on="0"/>
        <pt x="342" y="-8" on="0"/>
        <pt x="249" y="-8" on="1"/>
        <pt x="208" y="-8" on="0"/>
        <pt x="105" y="2" on="0"/>
        <pt x="67" y="9" on="1"/>
        <pt x="67" y="81" on="1"/>
      </contour>
    </TTGlyph>
    <TTGlyph name="five.dnom" xMin="42" yMin="-4" xMax="286" yMax="378">
      <contour>
        <pt x="106" y="48" on="0"/>
        <pt x="139" y="48" on="1"/>
        <pt x="175" y="48" on="0"/>
        <pt x="211" y="59" on="0"/>
        <pt x="225" y="86" on="0"/>
        <pt x="225" y="114" on="1"/>
        <pt x="225" y="143" on="0"/>
        <pt x="210" y="170" on="0"/>
        <pt x="172" y="179" on="0"/>
        <pt x="133" y="179" on="1"/>
        <pt x="89" y="179" on="0"/>
        <pt x="46" y="173" on="1"/>
        <pt x="46" y="378" on="1"/>
        <pt x="262" y="378" on="1"/>
        <pt x="262" y="325" on="1"/>
        <pt x="102" y="325" on="1"/>
        <pt x="102" y="226" on="1"/>
        <pt x="130" y="231" on="0"/>
        <pt x="171" y="231" on="1"/>
        <pt x="239" y="231" on="0"/>
        <pt x="286" y="178" on="0"/>
        <pt x="286" y="120" on="1"/>
        <pt x="286" y="74" on="0"/>
        <pt x="264" y="21" on="0"/>
        <pt x="205" y="-4" on="0"/>
        <pt x="150" y="-4" on="1"/>
        <pt x="100" y="-4" on="0"/>
        <pt x="42" y="5" on="1"/>
        <pt x="42" y="54" on="1"/>
      </contour>
    </TTGlyph>
    <TTGlyph name="five.numr" xMin="42" yMin="304" xMax="286" yMax="686">
      <contour>
        <pt x="106" y="356" on="0"/>
        <pt x="139" y="356" on="1"/>
        <pt x="175" y="356" on="0"/>
        <pt x="211" y="367" on="0"/>
        <pt x="225" y="394" on="0"/>
        <pt x="225" y="422" on="1"/>
        <pt x="225" y="451" on="0"/>
        <pt x="210" y="478" on="0"/>
        <pt x="172" y="487" on="0"/>
        <pt x="133" y="487" on="1"/>
        <pt x="90" y="487" on="0"/>
        <pt x="46" y="481" on="1"/>
        <pt x="46" y="686" on="1"/>
        <pt x="262" y="686" on="1"/>
        <pt x="262" y="633" on="1"/>
        <pt x="102" y="633" on="1"/>
        <pt x="102" y="534" on="1"/>
        <pt x="130" y="539" on="0"/>
        <pt x="171" y="539" on="1"/>
        <pt x="239" y="539" on="0"/>
        <pt x="286" y="486" on="0"/>
        <pt x="286" y="428" on="1"/>
        <pt x="286" y="382" on="0"/>
        <pt x="264" y="329" on="0"/>
        <pt x="205" y="304" on="0"/>
        <pt x="150" y="304" on="1"/>
        <pt x="100" y="304" on="0"/>
        <pt x="42" y="313" on="1"/>
        <pt x="42" y="362" on="1"/>
      </contour>
    </TTGlyph>
    <TTGlyph name="five.tnum" xMin="88" yMin="-8" xMax="499" yMax="688">
      <contour>
        <pt x="196" y="70" on="0"/>
        <pt x="258" y="70" on="1"/>
        <pt x="321" y="70" on="0"/>
        <pt x="384" y="94" on="0"/>
        <pt x="408" y="150" on="0"/>
        <pt x="408" y="204" on="1"/>
        <pt x="408" y="263" on="0"/>
        <pt x="382" y="316" on="0"/>
        <pt x="317" y="334" on="0"/>
        <pt x="247" y="334" on="1"/>
        <pt x="182" y="334" on="0"/>
        <pt x="94" y="321" on="1"/>
        <pt x="94" y="688" on="1"/>
        <pt x="456" y="688" on="1"/>
        <pt x="456" y="610" on="1"/>
        <pt x="178" y="610" on="1"/>
        <pt x="178" y="403" on="1"/>
        <pt x="232" y="412" on="0"/>
        <pt x="301" y="412" on="1"/>
        <pt x="383" y="412" on="0"/>
        <pt x="469" y="368" on="0"/>
        <pt x="499" y="284" on="0"/>
        <pt x="499" y="214" on="1"/>
        <pt x="499" y="130" on="0"/>
        <pt x="461" y="36" on="0"/>
        <pt x="363" y="-8" on="0"/>
        <pt x="269" y="-8" on="1"/>
        <pt x="228" y="-8" on="0"/>
        <pt x="126" y="2" on="0"/>
        <pt x="88" y="9" on="1"/>
        <pt x="88" y="81" on="1"/>
      </contour>
    </TTGlyph>
    <TTGlyph name="fiveeighths" xMin="42" yMin="-4" xMax="759" yMax="688">
      <component glyphName=".ttfautohint" x="42" y="0" flags="0x0"/>
      <component glyphName="five.numr" x="0" y="0" flags="0x0"/>
      <component glyphName="fraction" x="319" y="0" flags="0x0"/>
      <component glyphName="eight.dnom" x="447" y="0" flags="0x0"/>
    </TTGlyph>
    <TTGlyph name="fl" xMin="23" yMin="0" xMax="490" yMax="743">
      <component glyphName=".ttfautohint" x="23" y="0" flags="0x0"/>
      <component glyphName="f" x="0" y="0" flags="0x0"/>
      <component glyphName="l" x="332" y="0" flags="0x0"/>
    </TTGlyph>
    <TTGlyph name="florin" xMin="-120" yMin="-192" xMax="386" yMax="742">
      <contour>
        <pt x="315" y="677" on="0"/>
        <pt x="268" y="659" on="0"/>
        <pt x="243" y="598" on="0"/>
        <pt x="226" y="519" on="1"/>
        <pt x="224" y="510" on="1"/>
        <pt x="336" y="510" on="1"/>
        <pt x="321" y="438" on="1"/>
        <pt x="209" y="438" on="1"/>
        <pt x="118" y="10" on="1"/>
        <pt x="97" y="-86" on="0"/>
        <pt x="48" y="-169" on="0"/>
        <pt x="-33" y="-192" on="0"/>
        <pt x="-120" y="-192" on="1"/>
        <pt x="-106" y="-126" on="1"/>
        <pt x="-57" y="-126" on="0"/>
        <pt x="-10" y="-115" on="0"/>
        <pt x="14" y="-81" on="0"/>
        <pt x="22" y="-44" on="1"/>
        <pt x="125" y="438" on="1"/>
        <pt x="37" y="438" on="1"/>
        <pt x="52" y="510" on="1"/>
        <pt x="140" y="510" on="1"/>
        <pt x="141" y="515" on="1"/>
        <pt x="164" y="624" on="0"/>
        <pt x="214" y="716" on="0"/>
        <pt x="296" y="742" on="0"/>
        <pt x="386" y="742" on="1"/>
        <pt x="372" y="677" on="1"/>
      </contour>
    </TTGlyph>
    <TTGlyph name="four" xMin="38" yMin="0" xMax="520" yMax="688">
      <contour>
        <pt x="345" y="158" on="1"/>
        <pt x="38" y="158" on="1"/>
        <pt x="38" y="228" on="1"/>
        <pt x="258" y="688" on="1"/>
        <pt x="355" y="688" on="1"/>
        <pt x="134" y="236" on="1"/>
        <pt x="346" y="236" on="1"/>
        <pt x="365" y="475" on="1"/>
        <pt x="435" y="475" on="1"/>
        <pt x="435" y="236" on="1"/>
        <pt x="520" y="236" on="1"/>
        <pt x="520" y="158" on="1"/>
        <pt x="435" y="158" on="1"/>
        <pt x="435" y="0" on="1"/>
        <pt x="345" y="0" on="1"/>
      </contour>
    </TTGlyph>
    <TTGlyph name="four.dnom" xMin="22" yMin="0" xMax="307" yMax="378">
      <contour>
        <pt x="199" y="83" on="1"/>
        <pt x="22" y="83" on="1"/>
        <pt x="22" y="129" on="1"/>
        <pt x="142" y="378" on="1"/>
        <pt x="207" y="378" on="1"/>
        <pt x="86" y="135" on="1"/>
        <pt x="199" y="135" on="1"/>
        <pt x="214" y="252" on="1"/>
        <pt x="259" y="252" on="1"/>
        <pt x="259" y="135" on="1"/>
        <pt x="307" y="135" on="1"/>
        <pt x="307" y="83" on="1"/>
        <pt x="259" y="83" on="1"/>
        <pt x="259" y="0" on="1"/>
        <pt x="199" y="0" on="1"/>
      </contour>
    </TTGlyph>
    <TTGlyph name="four.numr" xMin="22" yMin="308" xMax="307" yMax="686">
      <component glyphName=".ttfautohint" x="22" y="308" flags="0x0"/>
      <component glyphName="four.dnom" x="0" y="308" flags="0x4"/>
    </TTGlyph>
    <TTGlyph name="four.ss01" xMin="38" yMin="0" xMax="520" yMax="688">
      <contour>
        <pt x="345" y="158" on="1"/>
        <pt x="38" y="158" on="1"/>
        <pt x="38" y="228" on="1"/>
        <pt x="312" y="688" on="1"/>
        <pt x="435" y="688" on="1"/>
        <pt x="435" y="237" on="1"/>
        <pt x="520" y="237" on="1"/>
        <pt x="520" y="158" on="1"/>
        <pt x="435" y="158" on="1"/>
        <pt x="435" y="0" on="1"/>
        <pt x="345" y="0" on="1"/>
      </contour>
      <contour>
        <pt x="346" y="237" on="1"/>
        <pt x="346" y="595" on="1"/>
        <pt x="344" y="595" on="1"/>
        <pt x="128" y="237" on="1"/>
      </contour>
    </TTGlyph>
    <TTGlyph name="four.tnum" xMin="43" yMin="0" xMax="530" yMax="688">
      <contour>
        <pt x="355" y="158" on="1"/>
        <pt x="43" y="158" on="1"/>
        <pt x="43" y="228" on="1"/>
        <pt x="267" y="688" on="1"/>
        <pt x="365" y="688" on="1"/>
        <pt x="140" y="236" on="1"/>
        <pt x="356" y="236" on="1"/>
        <pt x="375" y="475" on="1"/>
        <pt x="445" y="475" on="1"/>
        <pt x="445" y="236" on="1"/>
        <pt x="530" y="236" on="1"/>
        <pt x="530" y="158" on="1"/>
        <pt x="445" y="158" on="1"/>
        <pt x="445" y="0" on="1"/>
        <pt x="355" y="0" on="1"/>
      </contour>
    </TTGlyph>
    <TTGlyph name="fraction" xMin="-165" yMin="0" xMax="293" yMax="688">
      <contour>
        <pt x="230" y="688" on="1"/>
        <pt x="293" y="688" on="1"/>
        <pt x="-102" y="0" on="1"/>
        <pt x="-165" y="0" on="1"/>
      </contour>
    </TTGlyph>
    <TTGlyph name="g" xMin="54" yMin="-203" xMax="448" yMax="518">
      <contour>
        <pt x="143" y="-203" on="0"/>
        <pt x="80" y="-193" on="1"/>
        <pt x="80" y="-126" on="1"/>
        <pt x="174" y="-130" on="0"/>
        <pt x="220" y="-130" on="1"/>
        <pt x="286" y="-130" on="0"/>
        <pt x="345" y="-102" on="0"/>
        <pt x="363" y="-32" on="0"/>
        <pt x="363" y="46" on="1"/>
        <pt x="363" y="66" on="1"/>
        <pt x="358" y="66" on="1"/>
        <pt x="341" y="28" on="0"/>
        <pt x="273" y="-4" on="0"/>
        <pt x="219" y="-4" on="1"/>
        <pt x="152" y="-4" on="0"/>
        <pt x="82" y="41" on="0"/>
        <pt x="54" y="150" on="0"/>
        <pt x="54" y="256" on="1"/>
        <pt x="54" y="362" on="0"/>
        <pt x="83" y="473" on="0"/>
        <pt x="153" y="518" on="0"/>
        <pt x="219" y="518" on="1"/>
        <pt x="271" y="518" on="0"/>
        <pt x="345" y="485" on="0"/>
        <pt x="362" y="440" on="1"/>
        <pt x="367" y="440" on="1"/>
        <pt x="371" y="510" on="1"/>
        <pt x="448" y="510" on="1"/>
        <pt x="448" y="68" on="1"/>
        <pt x="448" y="-40" on="0"/>
        <pt x="421" y="-150" on="0"/>
        <pt x="332" y="-203" on="0"/>
        <pt x="238" y="-203" on="1"/>
      </contour>
      <contour>
        <pt x="294" y="71" on="0"/>
        <pt x="341" y="97" on="0"/>
        <pt x="351" y="127" on="1"/>
        <pt x="359" y="148" on="0"/>
        <pt x="363" y="206" on="0"/>
        <pt x="363" y="256" on="1"/>
        <pt x="363" y="303" on="0"/>
        <pt x="359" y="360" on="0"/>
        <pt x="352" y="380" on="1"/>
        <pt x="342" y="413" on="0"/>
        <pt x="294" y="442" on="0"/>
        <pt x="252" y="442" on="1"/>
        <pt x="199" y="442" on="0"/>
        <pt x="154" y="418" on="0"/>
        <pt x="139" y="344" on="0"/>
        <pt x="139" y="256" on="1"/>
        <pt x="139" y="169" on="0"/>
        <pt x="155" y="95" on="0"/>
        <pt x="199" y="71" on="0"/>
        <pt x="252" y="71" on="1"/>
      </contour>
    </TTGlyph>
    <TTGlyph name="g_tilde.loclGUA" xMin="54" yMin="-203" xMax="448" yMax="743">
      <component glyphName=".ttfautohint" x="54" y="0" flags="0x0"/>
      <component glyphName="g" x="0" y="0" flags="0x0"/>
      <component glyphName="tildecomb" x="437" y="0" flags="0x0"/>
    </TTGlyph>
    <TTGlyph name="gbreve" xMin="54" yMin="-203" xMax="448" yMax="743">
      <component glyphName=".ttfautohint" x="54" y="0" flags="0x0"/>
      <component glyphName="g" x="0" y="0" flags="0x0"/>
      <component glyphName="uni0306" x="401" y="0" flags="0x0"/>
    </TTGlyph>
    <TTGlyph name="gcaron" xMin="54" yMin="-203" xMax="448" yMax="743">
      <component glyphName=".ttfautohint" x="54" y="0" flags="0x0"/>
      <component glyphName="g" x="0" y="0" flags="0x0"/>
      <component glyphName="uni030C" x="408" y="0" flags="0x0"/>
    </TTGlyph>
    <TTGlyph name="gcircumflex" xMin="54" yMin="-203" xMax="448" yMax="743">
      <component glyphName=".ttfautohint" x="54" y="0" flags="0x0"/>
      <component glyphName="g" x="0" y="0" flags="0x0"/>
      <component glyphName="uni0302" x="407" y="0" flags="0x0"/>
    </TTGlyph>
    <TTGlyph name="gcommaaccent" xMin="54" yMin="-203" xMax="448" yMax="805">
      <component glyphName=".ttfautohint" x="54" y="0" flags="0x0"/>
      <component glyphName="g" x="0" y="0" flags="0x0"/>
      <component glyphName="uni0312" x="621" y="0" flags="0x0"/>
    </TTGlyph>
    <TTGlyph name="gdotaccent" xMin="54" yMin="-203" xMax="448" yMax="730">
      <component glyphName=".ttfautohint" x="54" y="0" flags="0x0"/>
      <component glyphName="g" x="0" y="0" flags="0x0"/>
      <component glyphName="uni0307" x="318" y="0" flags="0x0"/>
    </TTGlyph>
    <TTGlyph name="germandbls" xMin="72" yMin="0" xMax="482" yMax="750">
      <contour>
        <pt x="235" y="0" on="1"/>
        <pt x="235" y="72" on="1"/>
        <pt x="276" y="72" on="1"/>
        <pt x="334" y="72" on="0"/>
        <pt x="380" y="91" on="0"/>
        <pt x="396" y="158" on="0"/>
        <pt x="396" y="240" on="1"/>
        <pt x="396" y="307" on="0"/>
        <pt x="376" y="373" on="0"/>
        <pt x="329" y="398" on="0"/>
        <pt x="282" y="398" on="1"/>
        <pt x="257" y="398" on="1"/>
        <pt x="257" y="470" on="1"/>
        <pt x="282" y="470" on="1"/>
        <pt x="344" y="470" on="0"/>
        <pt x="389" y="514" on="0"/>
        <pt x="389" y="571" on="1"/>
        <pt x="389" y="614" on="0"/>
        <pt x="368" y="660" on="0"/>
        <pt x="319" y="678" on="0"/>
        <pt x="273" y="678" on="1"/>
        <pt x="229" y="678" on="0"/>
        <pt x="180" y="657" on="0"/>
        <pt x="157" y="598" on="0"/>
        <pt x="157" y="540" on="1"/>
        <pt x="157" y="0" on="1"/>
        <pt x="72" y="0" on="1"/>
        <pt x="72" y="547" on="1"/>
        <pt x="72" y="620" on="0"/>
        <pt x="111" y="708" on="0"/>
        <pt x="200" y="750" on="0"/>
        <pt x="276" y="750" on="1"/>
        <pt x="352" y="750" on="0"/>
        <pt x="438" y="713" on="0"/>
        <pt x="474" y="639" on="0"/>
        <pt x="474" y="579" on="1"/>
        <pt x="474" y="515" on="0"/>
        <pt x="424" y="449" on="0"/>
        <pt x="370" y="439" on="1"/>
        <pt x="370" y="435" on="1"/>
        <pt x="428" y="424" on="0"/>
        <pt x="482" y="336" on="0"/>
        <pt x="482" y="241" on="1"/>
        <pt x="482" y="147" on="0"/>
        <pt x="454" y="47" on="0"/>
        <pt x="373" y="0" on="0"/>
        <pt x="293" y="0" on="1"/>
      </contour>
    </TTGlyph>
    <TTGlyph name="grave" xMin="13" yMin="602" xMax="180" yMax="743">
      <contour>
        <pt x="13" y="738" on="1"/>
        <pt x="13" y="743" on="1"/>
        <pt x="103" y="743" on="1"/>
        <pt x="180" y="607" on="1"/>
        <pt x="180" y="602" on="1"/>
        <pt x="117" y="602" on="1"/>
      </contour>
    </TTGlyph>
    <TTGlyph name="gravecomb" xMin="-181" yMin="602" xMax="-14" yMax="743">
      <contour>
        <pt x="-181" y="738" on="1"/>
        <pt x="-181" y="743" on="1"/>
        <pt x="-91" y="743" on="1"/>
        <pt x="-14" y="607" on="1"/>
        <pt x="-14" y="602" on="1"/>
        <pt x="-77" y="602" on="1"/>
      </contour>
    </TTGlyph>
    <TTGlyph name="gravecomb.case" xMin="-181" yMin="747" xMax="-14" yMax="888">
      <contour>
        <pt x="-181" y="883" on="1"/>
        <pt x="-181" y="888" on="1"/>
        <pt x="-91" y="888" on="1"/>
        <pt x="-14" y="752" on="1"/>
        <pt x="-14" y="747" on="1"/>
        <pt x="-77" y="747" on="1"/>
      </contour>
    </TTGlyph>
    <TTGlyph name="greater" xMin="66" yMin="55" xMax="446" yMax="451">
      <contour>
        <pt x="66" y="128" on="1"/>
        <pt x="370" y="253" on="1"/>
        <pt x="66" y="377" on="1"/>
        <pt x="66" y="451" on="1"/>
        <pt x="446" y="292" on="1"/>
        <pt x="446" y="213" on="1"/>
        <pt x="66" y="55" on="1"/>
      </contour>
    </TTGlyph>
    <TTGlyph name="greaterequal" xMin="66" yMin="15" xMax="446" yMax="576">
      <contour>
        <pt x="66" y="253" on="1"/>
        <pt x="370" y="378" on="1"/>
        <pt x="66" y="502" on="1"/>
        <pt x="66" y="576" on="1"/>
        <pt x="446" y="417" on="1"/>
        <pt x="446" y="338" on="1"/>
        <pt x="66" y="180" on="1"/>
      </contour>
      <contour>
        <pt x="66" y="85" on="1"/>
        <pt x="446" y="85" on="1"/>
        <pt x="446" y="15" on="1"/>
        <pt x="66" y="15" on="1"/>
      </contour>
    </TTGlyph>
    <TTGlyph name="guillemotleft" xMin="38" yMin="103" xMax="367" yMax="510">
      <contour>
        <pt x="38" y="306" on="1"/>
        <pt x="152" y="510" on="1"/>
        <pt x="213" y="510" on="1"/>
        <pt x="116" y="306" on="1"/>
        <pt x="213" y="103" on="1"/>
        <pt x="152" y="103" on="1"/>
      </contour>
      <contour>
        <pt x="192" y="306" on="1"/>
        <pt x="306" y="510" on="1"/>
        <pt x="367" y="510" on="1"/>
        <pt x="271" y="306" on="1"/>
        <pt x="367" y="103" on="1"/>
        <pt x="306" y="103" on="1"/>
      </contour>
    </TTGlyph>
    <TTGlyph name="guillemotright" xMin="59" yMin="103" xMax="388" yMax="510">
      <contour>
        <pt x="155" y="306" on="1"/>
        <pt x="59" y="510" on="1"/>
        <pt x="120" y="510" on="1"/>
        <pt x="234" y="306" on="1"/>
        <pt x="120" y="103" on="1"/>
        <pt x="59" y="103" on="1"/>
      </contour>
      <contour>
        <pt x="310" y="306" on="1"/>
        <pt x="213" y="510" on="1"/>
        <pt x="274" y="510" on="1"/>
        <pt x="388" y="306" on="1"/>
        <pt x="274" y="103" on="1"/>
        <pt x="213" y="103" on="1"/>
      </contour>
    </TTGlyph>
    <TTGlyph name="guilsinglleft" xMin="38" yMin="103" xMax="212" yMax="510">
      <contour>
        <pt x="38" y="306" on="1"/>
        <pt x="151" y="510" on="1"/>
        <pt x="212" y="510" on="1"/>
        <pt x="116" y="306" on="1"/>
        <pt x="212" y="103" on="1"/>
        <pt x="151" y="103" on="1"/>
      </contour>
    </TTGlyph>
    <TTGlyph name="guilsinglright" xMin="59" yMin="103" xMax="234" yMax="510">
      <contour>
        <pt x="155" y="306" on="1"/>
        <pt x="59" y="510" on="1"/>
        <pt x="120" y="510" on="1"/>
        <pt x="234" y="306" on="1"/>
        <pt x="120" y="103" on="1"/>
        <pt x="59" y="103" on="1"/>
      </contour>
    </TTGlyph>
    <TTGlyph name="h" xMin="72" yMin="0" xMax="455" yMax="743">
      <contour>
        <pt x="370" y="291" on="1"/>
        <pt x="370" y="362" on="0"/>
        <pt x="356" y="422" on="0"/>
        <pt x="316" y="441" on="0"/>
        <pt x="269" y="441" on="1"/>
        <pt x="218" y="441" on="0"/>
        <pt x="170" y="402" on="0"/>
        <pt x="157" y="332" on="0"/>
        <pt x="157" y="265" on="1"/>
        <pt x="157" y="0" on="1"/>
        <pt x="72" y="0" on="1"/>
        <pt x="72" y="743" on="1"/>
        <pt x="157" y="743" on="1"/>
        <pt x="157" y="446" on="1"/>
        <pt x="163" y="446" on="1"/>
        <pt x="178" y="480" on="0"/>
        <pt x="244" y="518" on="0"/>
        <pt x="304" y="518" on="1"/>
        <pt x="368" y="518" on="0"/>
        <pt x="433" y="477" on="0"/>
        <pt x="455" y="396" on="0"/>
        <pt x="455" y="323" on="1"/>
        <pt x="455" y="0" on="1"/>
        <pt x="370" y="0" on="1"/>
      </contour>
    </TTGlyph>
    <TTGlyph name="hbar" xMin="14" yMin="0" xMax="455" yMax="743">
      <contour>
        <pt x="368" y="518" on="0"/>
        <pt x="433" y="477" on="0"/>
        <pt x="455" y="396" on="0"/>
        <pt x="455" y="323" on="1"/>
        <pt x="455" y="0" on="1"/>
        <pt x="370" y="0" on="1"/>
        <pt x="370" y="291" on="1"/>
        <pt x="370" y="362" on="0"/>
        <pt x="356" y="422" on="0"/>
        <pt x="316" y="441" on="0"/>
        <pt x="269" y="441" on="1"/>
        <pt x="218" y="441" on="0"/>
        <pt x="170" y="402" on="0"/>
        <pt x="157" y="332" on="0"/>
        <pt x="157" y="265" on="1"/>
        <pt x="157" y="0" on="1"/>
        <pt x="72" y="0" on="1"/>
        <pt x="72" y="617" on="1"/>
        <pt x="14" y="617" on="1"/>
        <pt x="14" y="688" on="1"/>
        <pt x="72" y="688" on="1"/>
        <pt x="72" y="743" on="1"/>
        <pt x="157" y="743" on="1"/>
        <pt x="157" y="688" on="1"/>
        <pt x="280" y="688" on="1"/>
        <pt x="280" y="617" on="1"/>
        <pt x="157" y="617" on="1"/>
        <pt x="157" y="446" on="1"/>
        <pt x="163" y="446" on="1"/>
        <pt x="178" y="480" on="0"/>
        <pt x="244" y="518" on="0"/>
        <pt x="304" y="518" on="1"/>
      </contour>
    </TTGlyph>
    <TTGlyph name="hcircumflex" xMin="-19" yMin="0" xMax="455" yMax="921">
      <component glyphName=".ttfautohint" x="0" y="0" flags="0x0"/>
      <component glyphName="h" x="0" y="0" flags="0x0"/>
      <component glyphName="uni0302" x="262" y="178" flags="0x4"/>
    </TTGlyph>
    <TTGlyph name="hookabovecomb" xMin="-249" yMin="608" xMax="-22" yMax="803">
      <contour>
        <pt x="-187" y="619" on="1"/>
        <pt x="-187" y="645" on="0"/>
        <pt x="-170" y="666" on="0"/>
        <pt x="-145" y="674" on="1"/>
        <pt x="-126" y="680" on="1"/>
        <pt x="-99" y="688" on="0"/>
        <pt x="-83" y="702" on="0"/>
        <pt x="-83" y="718" on="1"/>
        <pt x="-83" y="740" on="0"/>
        <pt x="-110" y="751" on="0"/>
        <pt x="-152" y="751" on="1"/>
        <pt x="-185" y="751" on="0"/>
        <pt x="-249" y="745" on="1"/>
        <pt x="-249" y="795" on="1"/>
        <pt x="-199" y="803" on="0"/>
        <pt x="-143" y="803" on="1"/>
        <pt x="-78" y="803" on="0"/>
        <pt x="-22" y="771" on="0"/>
        <pt x="-22" y="725" on="1"/>
        <pt x="-22" y="693" on="0"/>
        <pt x="-44" y="661" on="0"/>
        <pt x="-77" y="650" on="1"/>
        <pt x="-97" y="643" on="1"/>
        <pt x="-123" y="634" on="0"/>
        <pt x="-134" y="624" on="0"/>
        <pt x="-134" y="608" on="1"/>
        <pt x="-187" y="608" on="1"/>
      </contour>
    </TTGlyph>
    <TTGlyph name="hookabovecomb.case" xMin="-249" yMin="730" xMax="-22" yMax="925">
      <contour>
        <pt x="-187" y="741" on="1"/>
        <pt x="-187" y="767" on="0"/>
        <pt x="-170" y="787" on="0"/>
        <pt x="-145" y="796" on="1"/>
        <pt x="-126" y="802" on="1"/>
        <pt x="-99" y="811" on="0"/>
        <pt x="-83" y="824" on="0"/>
        <pt x="-83" y="840" on="1"/>
        <pt x="-83" y="861" on="0"/>
        <pt x="-110" y="872" on="0"/>
        <pt x="-152" y="872" on="1"/>
        <pt x="-196" y="872" on="0"/>
        <pt x="-249" y="867" on="1"/>
        <pt x="-249" y="916" on="1"/>
        <pt x="-193" y="925" on="0"/>
        <pt x="-143" y="925" on="1"/>
        <pt x="-78" y="925" on="0"/>
        <pt x="-22" y="893" on="0"/>
        <pt x="-22" y="846" on="1"/>
        <pt x="-22" y="814" on="0"/>
        <pt x="-44" y="782" on="0"/>
        <pt x="-77" y="771" on="1"/>
        <pt x="-97" y="764" on="1"/>
        <pt x="-123" y="756" on="0"/>
        <pt x="-134" y="745" on="0"/>
        <pt x="-134" y="730" on="1"/>
        <pt x="-187" y="730" on="1"/>
      </contour>
    </TTGlyph>
    <TTGlyph name="house" xMin="43" yMin="0" xMax="595" yMax="696">
      <contour>
        <pt x="43" y="394" on="1"/>
        <pt x="285" y="696" on="1"/>
        <pt x="353" y="696" on="1"/>
        <pt x="595" y="394" on="1"/>
        <pt x="595" y="0" on="1"/>
        <pt x="43" y="0" on="1"/>
      </contour>
      <contour>
        <pt x="523" y="61" on="1"/>
        <pt x="524" y="377" on="1"/>
        <pt x="319" y="631" on="1"/>
        <pt x="114" y="377" on="1"/>
        <pt x="115" y="61" on="1"/>
      </contour>
    </TTGlyph>
    <TTGlyph name="hungarumlaut" xMin="18" yMin="608" xMax="333" yMax="736">
      <contour>
        <pt x="18" y="613" on="1"/>
        <pt x="90" y="736" on="1"/>
        <pt x="168" y="736" on="1"/>
        <pt x="168" y="731" on="1"/>
        <pt x="73" y="608" on="1"/>
        <pt x="18" y="608" on="1"/>
      </contour>
      <contour>
        <pt x="183" y="613" on="1"/>
        <pt x="255" y="736" on="1"/>
        <pt x="333" y="736" on="1"/>
        <pt x="333" y="731" on="1"/>
        <pt x="238" y="608" on="1"/>
        <pt x="183" y="608" on="1"/>
      </contour>
    </TTGlyph>
    <TTGlyph name="hyphen" xMin="57" yMin="247" xMax="278" yMax="324">
      <contour>
        <pt x="57" y="324" on="1"/>
        <pt x="278" y="324" on="1"/>
        <pt x="278" y="247" on="1"/>
        <pt x="57" y="247" on="1"/>
      </contour>
    </TTGlyph>
</ttFont>
